RobotoCondensed-Light.ufo
<glyph name="numbersign" format="1">
  <advance width="1052"/>
  <unicode hex="0023"/>
  <outline>
    <contour>
      <point x="590" y="0" type="line"/>
      <point x="680" y="0" type="line"/>
      <point x="745.6112670898438" y="410" type="line"/>
      <point x="971" y="410" type="line"/>
      <point x="971" y="506" type="line"/>
      <point x="760.9738998413086" y="506" type="line"/>
      <point x="830.9059066772461" y="943" type="line"/>
      <point x="1034" y="943" type="line"/>
      <point x="1034" y="1040" type="line"/>
      <point x="846.4285736083984" y="1040" type="line"/>
      <point x="913" y="1456" type="line"/>
      <point x="822" y="1456" type="line"/>
      <point x="755.7142868041992" y="1040" type="line"/>
      <point x="499.7142868041992" y="1040" type="line"/>
      <point x="566" y="1456" type="line"/>
      <point x="475" y="1456" type="line"/>
      <point x="409" y="1040" type="line"/>
      <point x="161" y="1040" type="line"/>
      <point x="161" y="943" type="line"/>
      <point x="393.61058044433594" y="943" type="line"/>
      <point x="324.27884674072266" y="506" type="line"/>
      <point x="97" y="506" type="line"/>
      <point x="97" y="410" type="line"/>
      <point x="309.04808044433594" y="410" type="line"/>
      <point x="244" y="0" type="line"/>
      <point x="334" y="0" type="line"/>
      <point x="399.32967376708984" y="410" type="line"/>
      <point x="655.3296737670898" y="410" type="line"/>
    </contour>
    <contour>
      <point x="414.6263732910156" y="506" type="line"/>
      <point x="484.25823974609375" y="943" type="line"/>
      <point x="740.2582397460938" y="943" type="line"/>
      <point x="670.6263732910156" y="506" type="line"/>
    </contour>
  </outline>
</glyph>
<glyph name="dollar" format="1">
  <advance width="996"/>
  <unicode hex="0024"/>
  <outline>
    <contour>
      <point x="880.9999999999999" y="362.0" type="curve"/>
      <point x="881" y="600"/>
      <point x="753" y="699"/>
      <point x="541" y="782" type="curve" smooth="yes"/>
      <point x="325" y="870"/>
      <point x="271" y="951"/>
      <point x="271" y="1097" type="curve"/>
      <point x="271" y="1245"/>
      <point x="348" y="1369"/>
      <point x="515" y="1369" type="curve" smooth="yes"/>
      <point x="675" y="1369"/>
      <point x="762" y="1223"/>
      <point x="762" y="1027" type="curve"/>
      <point x="872" y="1027" type="line"/>
      <point x="872.0" y="1295.09021"/>
      <point x="757.482802217466" y="1452.0816460318702"/>
      <point x="564" y="1474.2652587890625" type="curve"/>
      <point x="564" y="1678" type="line"/>
      <point x="471" y="1678" type="line"/>
      <point x="471" y="1474.8275833129883" type="line"/>
      <point x="281.0966766353399" y="1455.7362057571152"/>
      <point x="159.9999999999999" y="1311.6295940000002"/>
      <point x="159.99999999999991" y="1094.0" type="curve"/>
      <point x="160" y="856"/>
      <point x="290" y="754"/>
      <point x="503" y="673" type="curve" smooth="yes"/>
      <point x="703" y="588"/>
      <point x="770" y="506"/>
      <point x="770" y="360" type="curve"/>
      <point x="770" y="208"/>
      <point x="673" y="87"/>
      <point x="507" y="87" type="curve" smooth="yes"/>
      <point x="376" y="87"/>
      <point x="227" y="162"/>
      <point x="227" y="419" type="curve"/>
      <point x="116" y="419" type="line"/>
      <point x="116.0" y="112.47125"/>
      <point x="287.698944359375" y="-4.239571562499975"/>
      <point x="466" y="-19.287277221679688" type="curve"/>
      <point x="466" y="-208" type="line"/>
      <point x="559" y="-208" type="line"/>
      <point x="559" y="-18.364547729492188" type="line"/>
      <point x="754.6697206091" y="1.9709166341"/>
      <point x="880.9999999999999" y="139.16882"/>
    </contour>
  </outline>
</glyph>
<glyph name="ampersand" format="1">
  <advance width="1101"/>
  <unicode hex="0026"/>
  <outline>
    <contour>
      <point x="927" y="0" type="line"/>
      <point x="1060" y="0" type="line"/>
      <point x="891.1908264160156" y="235.53441619873047" type="line"/>
      <point x="961.7187507030119" y="346.707812027352"/>
      <point x="997.9999999999999" y="485.18701799999997"/>
      <point x="998.0" y="653.0" type="curve"/>
      <point x="896" y="653" type="line"/>
      <point x="896.0" y="527.5451"/>
      <point x="869.178463745675" y="417.20284225497505"/>
      <point x="824.9801483154297" y="327.9162139892578" type="curve"/>
      <point x="496.9883804321289" y="785.5533828735352" type="line"/>
      <point x="606" y="884" type="line" smooth="yes"/>
      <point x="690" y="958"/>
      <point x="770" y="1059"/>
      <point x="770" y="1190" type="curve"/>
      <point x="770" y="1346"/>
      <point x="671" y="1477"/>
      <point x="503" y="1477" type="curve" smooth="yes"/>
      <point x="330" y="1477"/>
      <point x="217" y="1349"/>
      <point x="217" y="1144" type="curve" smooth="yes"/>
      <point x="217.0" y="1023.389268"/>
      <point x="272.040029214016" y="919.814735518624"/>
      <point x="359.31319427490234" y="793.4990158081055" type="curve"/>
      <point x="351" y="786" type="line"/>
      <point x="214" y="665"/>
      <point x="110" y="547"/>
      <point x="110" y="372" type="curve"/>
      <point x="110" y="138"/>
      <point x="256" y="-20"/>
      <point x="493" y="-20" type="curve"/>
      <point x="617.630308" y="-20.0"/>
      <point x="737.803340497195" y="41.51040193870901"/>
      <point x="824.9017944335938" y="142.65218353271484" type="curve"/>
    </contour>
    <contour>
      <point x="329.0" y="1147.9999999999998" type="curve" smooth="yes"/>
      <point x="329" y="1270"/>
      <point x="389" y="1373"/>
      <point x="503" y="1373" type="curve" smooth="yes"/>
      <point x="608" y="1373"/>
      <point x="666" y="1284"/>
      <point x="666" y="1190" type="curve"/>
      <point x="666" y="1091"/>
      <point x="616" y="1023"/>
      <point x="545" y="961" type="curve"/>
      <point x="439.8671417236328" y="866.1636581420898" type="line"/>
      <point x="369.909958569168" y="969.8329242751599"/>
      <point x="329.0" y="1062.8501119999999"/>
    </contour>
    <contour>
      <point x="221" y="372" type="curve"/>
      <point x="221" y="438"/>
      <point x="239" y="541"/>
      <point x="379" y="679" type="curve" smooth="yes"/>
      <point x="416.59798431396484" y="712.9541244506836" type="line"/>
      <point x="419.70521050689604" y="708.666371247856"/>
      <point x="422.83950000000004" y="704.348848"/>
      <point x="426.00000000000006" y="700.0" type="curve" smooth="yes"/>
      <point x="762.7852935791016" y="229.44170379638672" type="line"/>
      <point x="688.823944713471" y="136.83659206834898"/>
      <point x="591.950246" y="83.99999999999997"/>
      <point x="492.99999999999994" y="83.99999999999999" type="curve" smooth="yes"/>
      <point x="308" y="84"/>
      <point x="221" y="219"/>
    </contour>
  </outline>
</glyph>
<glyph name="three" format="1">
  <advance width="996"/>
  <unicode hex="0033"/>
  <outline>
    <contour>
      <point x="461" y="690" type="line" smooth="yes"/>
      <point x="639" y="690"/>
      <point x="760" y="601"/>
      <point x="760" y="392" type="curve" smooth="yes"/>
      <point x="760" y="193"/>
      <point x="661" y="84"/>
      <point x="493" y="84" type="curve" smooth="yes"/>
      <point x="327" y="84"/>
      <point x="214" y="211"/>
      <point x="214" y="395" type="curve"/>
      <point x="102" y="395" type="line"/>
      <point x="102" y="119"/>
      <point x="292" y="-20"/>
      <point x="493" y="-20" type="curve" smooth="yes"/>
      <point x="710" y="-20"/>
      <point x="871" y="131"/>
      <point x="871" y="396" type="curve" smooth="yes"/>
      <point x="871.0" y="556.823312"/>
      <point x="804.641843500969" y="693.135953581439"/>
      <point x="642.8049392700195" y="746.6866836547852" type="curve"/>
      <point x="780.132003808" y="808.083584365568"/>
      <point x="849.0" y="943.847456"/>
      <point x="849.0000000000002" y="1073.0" type="curve" smooth="yes"/>
      <point x="849" y="1331"/>
      <point x="706" y="1476"/>
      <point x="490" y="1476" type="curve" smooth="yes"/>
      <point x="276" y="1476"/>
      <point x="119" y="1310"/>
      <point x="119" y="1074" type="curve"/>
      <point x="230" y="1074" type="line"/>
      <point x="230" y="1258"/>
      <point x="340" y="1372"/>
      <point x="490" y="1372" type="curve" smooth="yes"/>
      <point x="659" y="1372"/>
      <point x="738" y="1251"/>
      <point x="738" y="1077" type="curve" smooth="yes"/>
      <point x="738" y="921"/>
      <point x="644" y="795"/>
      <point x="461" y="795" type="curve" smooth="yes"/>
      <point x="357" y="795" type="line"/>
      <point x="357" y="690" type="line"/>
    </contour>
  </outline>
</glyph>
<glyph name="six" format="1">
  <advance width="996"/>
  <unicode hex="0036"/>
  <outline>
    <contour>
      <point x="891" y="478" type="curve" smooth="yes"/>
      <point x="891" y="734"/>
      <point x="775" y="956"/>
      <point x="539" y="956" type="curve" smooth="yes"/>
      <point x="416.13543400000003" y="956.0"/>
      <point x="309.99676065041206" y="894.931043113612"/>
      <point x="242.90277099609375" y="787.8233489990234" type="curve"/>
      <point x="261.766474374184" y="1140.501190951"/>
      <point x="420.777604" y="1360.0"/>
      <point x="715.0" y="1360.0" type="curve" smooth="yes"/>
      <point x="729" y="1360" type="line"/>
      <point x="729" y="1467" type="line"/>
      <point x="715" y="1467" type="line" name="hr00"/>
      <point x="305" y="1467"/>
      <point x="130" y="1136"/>
      <point x="130" y="643" type="curve" smooth="yes"/>
      <point x="130" y="516" type="line" smooth="yes"/>
      <point x="130" y="224"/>
      <point x="276" y="-20"/>
      <point x="525" y="-20" type="curve" smooth="yes"/>
      <point x="755" y="-20"/>
      <point x="891" y="198"/>
    </contour>
    <contour>
      <point x="241" y="514" type="curve"/>
      <point x="241" y="613.6554641723633" type="line"/>
      <point x="275.55380287500003" y="747.87697125"/>
      <point x="393.12075" y="851.0"/>
      <point x="521.0" y="851.0" type="curve" smooth="yes"/>
      <point x="697" y="851"/>
      <point x="781" y="677"/>
      <point x="781" y="473" type="curve" smooth="yes"/>
      <point x="781" y="258"/>
      <point x="685" y="84"/>
      <point x="525" y="84" type="curve" smooth="yes"/>
      <point x="369" y="84"/>
      <point x="241" y="245"/>
    </contour>
  </outline>
</glyph>
<glyph name="eight" format="1">
  <advance width="996"/>
  <unicode hex="0038"/>
  <outline>
    <contour>
      <point x="889" y="387" type="curve" smooth="yes"/>
      <point x="889.0" y="556.741899"/>
      <point x="796.147446183991" y="690.221853906174"/>
      <point x="657.6832733154297" y="747.9271545410156" type="curve"/>
      <point x="777.846179633796" y="805.0367084485399"/>
      <point x="858.0000000000001" y="927.6041579999999"/>
      <point x="858.0000000000001" y="1081.0" type="curve" smooth="yes"/>
      <point x="858" y="1335"/>
      <point x="703" y="1476"/>
      <point x="498" y="1476" type="curve" smooth="yes"/>
      <point x="293" y="1476"/>
      <point x="141" y="1335"/>
      <point x="141" y="1081" type="curve" smooth="yes"/>
      <point x="141.0" y="927.76744"/>
      <point x="218.4197055216" y="805.297676896"/>
      <point x="338.38226318359375" y="748.1108551025391" type="curve"/>
      <point x="200.28835865539594" y="690.492655028926"/>
      <point x="109.99999999999993" y="556.9141070000001"/>
      <point x="109.99999999999994" y="387.0" type="curve" smooth="yes"/>
      <point x="110" y="121"/>
      <point x="280" y="-20"/>
      <point x="500" y="-20" type="curve" smooth="yes"/>
      <point x="718" y="-20"/>
      <point x="889" y="121"/>
    </contour>
    <contour>
      <point x="747" y="1082" type="curve" smooth="yes"/>
      <point x="747" y="909"/>
      <point x="642" y="799"/>
      <point x="499" y="799" type="curve" smooth="yes"/>
      <point x="354" y="799"/>
      <point x="252" y="909"/>
      <point x="252" y="1082" type="curve" smooth="yes"/>
      <point x="252" y="1261"/>
      <point x="355" y="1372"/>
      <point x="498" y="1372" type="curve" smooth="yes"/>
      <point x="640" y="1372"/>
      <point x="747" y="1251"/>
    </contour>
    <contour>
      <point x="777" y="386" type="curve" smooth="yes"/>
      <point x="777" y="193"/>
      <point x="663" y="84"/>
      <point x="500" y="84" type="curve" smooth="yes"/>
      <point x="335" y="84"/>
      <point x="221" y="193"/>
      <point x="221" y="386" type="curve" smooth="yes"/>
      <point x="221" y="572"/>
      <point x="335" y="695"/>
      <point x="498" y="695" type="curve" smooth="yes"/>
      <point x="658" y="695"/>
      <point x="777" y="572"/>
    </contour>
  </outline>
</glyph>
<glyph name="nine" format="1">
  <advance width="996"/>
  <unicode hex="0039"/>
  <outline>
    <contour>
      <point x="866" y="781" type="curve" smooth="yes"/>
      <point x="866" y="895" type="line" smooth="yes"/>
      <point x="866" y="1233"/>
      <point x="742" y="1476"/>
      <point x="476" y="1476" type="curve" smooth="yes"/>
      <point x="241" y="1476"/>
      <point x="105" y="1245"/>
      <point x="105" y="966" type="curve" smooth="yes"/>
      <point x="105" y="716"/>
      <point x="224" y="478"/>
      <point x="456" y="478" type="curve" smooth="yes"/>
      <point x="580.53357" y="478.0"/>
      <point x="687.835351047839" y="552.905531567557"/>
      <point x="754.5480804443359" y="664.7683486938477" type="curve"/>
      <point x="746.7610842710001" y="340.54380796982394"/>
      <point x="636.6683300000001" y="95.99999999999994"/>
      <point x="295.0000000000001" y="95.99999999999997" type="curve" smooth="yes"/>
      <point x="275" y="96" type="line"/>
      <point x="274" y="-11" type="line"/>
      <point x="295" y="-11" type="line" smooth="yes"/>
      <point x="749" y="-11"/>
      <point x="866" y="351"/>
    </contour>
    <contour>
      <point x="214" y="971" type="curve" smooth="yes"/>
      <point x="214" y="1185"/>
      <point x="313" y="1371"/>
      <point x="478" y="1371" type="curve" smooth="yes"/>
      <point x="638" y="1371"/>
      <point x="755" y="1212"/>
      <point x="755" y="907" type="curve"/>
      <point x="755" y="834.4970169067383" type="line"/>
      <point x="716.306635643776" y="706.573504396608"/>
      <point x="614.353448" y="583.0"/>
      <point x="471.0" y="583.0000000000001" type="curve" smooth="yes"/>
      <point x="303" y="583"/>
      <point x="214" y="773"/>
    </contour>
  </outline>
</glyph>
<glyph name="at" format="1">
  <advance width="1606"/>
  <unicode hex="0040"/>
  <outline>
    <contour>
      <point x="1082" y="-364" type="curve"/>
      <point x="1055" y="-283" type="line"/>
      <point x="986" y="-331"/>
      <point x="876" y="-362"/>
      <point x="778" y="-362" type="curve" smooth="yes"/>
      <point x="399" y="-362"/>
      <point x="193" y="-19"/>
      <point x="213" y="478" type="curve" smooth="yes"/>
      <point x="233" y="991"/>
      <point x="482" y="1326"/>
      <point x="841" y="1326" type="curve" smooth="yes"/>
      <point x="1253" y="1326"/>
      <point x="1425" y="1017"/>
      <point x="1405" y="513" type="curve" smooth="yes"/>
      <point x="1396" y="261"/>
      <point x="1316" y="67"/>
      <point x="1170" y="67" type="curve" smooth="yes"/>
      <point x="1116" y="67"/>
      <point x="1028" y="99"/>
      <point x="1043" y="312" type="curve"/>
      <point x="1086" y="881" type="line"/>
      <point x="1026" y="938"/>
      <point x="971" y="989"/>
      <point x="856" y="989" type="curve" smooth="yes"/>
      <point x="677" y="989"/>
      <point x="518" y="771"/>
      <point x="492" y="427" type="curve" smooth="yes"/>
      <point x="471" y="158"/>
      <point x="551" y="-20"/>
      <point x="711" y="-20" type="curve" smooth="yes"/>
      <point x="809.024124" y="-20.0"/>
      <point x="896.570410027469" y="45.072888460982014"/>
      <point x="957.2580795288086" y="171.13471221923828" type="curve"/>
      <point x="980.0712215268001" y="51.212404072899986"/>
      <point x="1050.26645" y="-20.000000000000014"/>
      <point x="1158.0" y="-20.0" type="curve"/>
      <point x="1388" y="-20"/>
      <point x="1481" y="262"/>
      <point x="1489" y="513" type="curve"/>
      <point x="1508" y="1069"/>
      <point x="1289" y="1421"/>
      <point x="845" y="1421" type="curve" smooth="yes"/>
      <point x="422" y="1421"/>
      <point x="142" y="1037"/>
      <point x="122" y="478" type="curve" smooth="yes"/>
      <point x="102" y="-96"/>
      <point x="348" y="-453"/>
      <point x="774" y="-453" type="curve" smooth="yes"/>
      <point x="876" y="-453"/>
      <point x="1007" y="-422"/>
    </contour>
    <contour>
      <point x="590" y="427" type="curve" smooth="yes"/>
      <point x="615" y="744"/>
      <point x="731" y="896"/>
      <point x="863" y="896" type="curve" smooth="yes"/>
      <point x="916.163" y="896.0"/>
      <point x="958.2720087968" y="877.4091966128"/>
      <point x="990.7516326904297" y="850.5399398803711" type="curve"/>
      <point x="952.273567199707" y="329.2538146972656" type="line"/>
      <point x="898.12191673115" y="134.73708839462503"/>
      <point x="810.166195" y="80.00000000000003"/>
      <point x="734.0" y="80.00000000000006" type="curve" smooth="yes"/>
      <point x="622" y="80"/>
      <point x="572" y="221"/>
    </contour>
  </outline>
</glyph>
<glyph name="B" format="1">
  <advance width="1098"/>
  <unicode hex="0042"/>
  <outline>
    <contour>
      <point x="513" y="1612" type="move" name="top"/>
    </contour>
    <contour>
      <point x="517" y="10" type="move" name="bottom"/>
    </contour>
    <contour>
      <point x="1078" y="1600" type="move" name="top_dd"/>
    </contour>
    <contour>
      <point x="1078" y="-407" type="move" name="bottom_dd"/>
    </contour>
    <contour>
      <point x="1078" y="1612" type="move" name="top0315"/>
    </contour>
    <contour>
      <point x="983" y="411" type="curve" smooth="yes"/>
      <point x="983.0" y="579.920346"/>
      <point x="890.979306768848" y="723.27938832468"/>
      <point x="745.475944519043" y="760.0619583129883" type="curve"/>
      <point x="867.3002605744" y="809.405697928"/>
      <point x="941.0" y="926.9896"/>
      <point x="941.0" y="1075.0" type="curve"/>
      <point x="941" y="1340"/>
      <point x="790" y="1456"/>
      <point x="541" y="1456" type="curve"/>
      <point x="173" y="1456" type="line"/>
      <point x="173" y="0" type="line"/>
      <point x="589" y="0" type="line"/>
      <point x="824" y="0"/>
      <point x="983" y="145"/>
    </contour>
    <contour>
      <point x="287" y="1349" type="line"/>
      <point x="541" y="1349" type="line"/>
      <point x="731" y="1349"/>
      <point x="826" y="1262"/>
      <point x="826" y="1078" type="curve"/>
      <point x="826" y="899"/>
      <point x="724" y="805"/>
      <point x="551" y="805" type="curve"/>
      <point x="287" y="805" type="line"/>
    </contour>
    <contour>
      <point x="868" y="409" type="curve" smooth="yes"/>
      <point x="868" y="221"/>
      <point x="764" y="107"/>
      <point x="589" y="107" type="curve" smooth="yes"/>
      <point x="287" y="107" type="line"/>
      <point x="287" y="700" type="line"/>
      <point x="597" y="700" type="line" smooth="yes"/>
      <point x="782" y="700"/>
      <point x="868" y="573"/>
    </contour>
  </outline>
</glyph>
<glyph name="K" format="1">
  <advance width="1124"/>
  <unicode hex="004B"/>
  <outline>
    <contour>
      <point x="562" y="100" type="move" name="bottom"/>
    </contour>
    <contour>
      <point x="1033" y="-16" type="move" name="right"/>
    </contour>
    <contour>
      <point x="251" y="1229" type="move" name="cross"/>
    </contour>
    <contour>
      <point x="527" y="1560" type="move" name="top"/>
    </contour>
    <contour>
      <point x="1104" y="1600" type="move" name="top_dd"/>
    </contour>
    <contour>
      <point x="1104" y="-407" type="move" name="bottom_dd"/>
    </contour>
    <contour>
      <point x="1104" y="1560" type="move" name="top0315"/>
    </contour>
    <contour>
      <point x="941" y="0" type="line"/>
      <point x="1080" y="0" type="line"/>
      <point x="532.0808792114258" y="809.4693603515625" type="line"/>
      <point x="1040" y="1456" type="line"/>
      <point x="898" y="1456" type="line"/>
      <point x="447" y="880" type="line"/>
      <point x="287" y="681.6901397705078" type="line"/>
      <point x="287" y="1456" type="line"/>
      <point x="173" y="1456" type="line"/>
      <point x="173" y="0" type="line"/>
      <point x="287" y="0" type="line"/>
      <point x="287" y="522.5427474975586" type="line"/>
      <point x="456.0447006225586" y="719.2378845214844" type="line"/>
    </contour>
  </outline>
</glyph>
<glyph name="Q" format="1">
  <advance width="1208"/>
  <unicode hex="0051"/>
  <outline>
    <contour>
      <point x="608" y="1600" type="move" name="top"/>
    </contour>
    <contour>
      <point x="606" y="-10" type="move" name="bottom"/>
    </contour>
    <contour>
      <point x="1188" y="1600" type="move" name="top_dd"/>
    </contour>
    <contour>
      <point x="1188" y="-407" type="move" name="bottom_dd"/>
    </contour>
    <contour>
      <point x="1188" y="1600" type="move" name="top0315"/>
    </contour>
    <contour>
      <point x="1068" y="-176" type="line"/>
      <point x="849.590705871582" y="45.46397399902344" type="line"/>
      <point x="990.570606418804" y="134.835207360072"/>
      <point x="1071.0" y="312.92756999999995"/>
      <point x="1071.0" y="570.9999999999999" type="curve"/>
      <point x="1071" y="885" type="line"/>
      <point x="1071" y="1269"/>
      <point x="891" y="1476"/>
      <point x="599" y="1476" type="curve" smooth="yes"/>
      <point x="313" y="1476"/>
      <point x="128" y="1269"/>
      <point x="128" y="885" type="curve"/>
      <point x="128" y="571" type="line"/>
      <point x="128" y="186"/>
      <point x="315" y="-21"/>
      <point x="600" y="-21" type="curve" smooth="yes"/>
      <point x="650.217868" y="-21.0"/>
      <point x="697.093560262167" y="-14.877607276713"/>
      <point x="740.2911376953125" y="-2.77581787109375" type="curve"/>
      <point x="989" y="-255" type="line"/>
    </contour>
    <contour>
      <point x="957" y="571" type="line"/>
      <point x="957" y="250"/>
      <point x="833" y="89"/>
      <point x="600" y="89" type="curve" smooth="yes"/>
      <point x="376" y="89"/>
      <point x="243" y="250"/>
      <point x="243" y="571" type="curve" smooth="yes"/>
      <point x="243" y="887" type="line" smooth="yes"/>
      <point x="243" y="1205"/>
      <point x="374" y="1366"/>
      <point x="599" y="1366" type="curve" smooth="yes"/>
      <point x="831" y="1366"/>
      <point x="957" y="1205"/>
      <point x="957" y="887" type="curve"/>
    </contour>
  </outline>
</glyph>
<glyph name="R" format="1">
  <advance width="1126"/>
  <unicode hex="0052"/>
  <outline>
    <contour>
      <point x="531" y="1606" type="move" name="top"/>
    </contour>
    <contour>
      <point x="531" y="10" type="move" name="bottom"/>
    </contour>
    <contour>
      <point x="1106" y="1600" type="move" name="top_dd"/>
    </contour>
    <contour>
      <point x="1106" y="-407" type="move" name="bottom_dd"/>
    </contour>
    <contour>
      <point x="1106" y="1606" type="move" name="top0315"/>
    </contour>
    <contour>
      <point x="918" y="0" type="line"/>
      <point x="1040" y="0" type="line"/>
      <point x="1040" y="13" type="line"/>
      <point x="736.3825378417969" y="632.8452301025391" type="line"/>
      <point x="886.96413814784" y="685.363111919616"/>
      <point x="987.0" y="834.869568"/>
      <point x="987.0" y="1027.0" type="curve" smooth="yes"/>
      <point x="987" y="1305"/>
      <point x="828" y="1456"/>
      <point x="570" y="1456" type="curve" smooth="yes"/>
      <point x="171" y="1456" type="line"/>
      <point x="171" y="0" type="line"/>
      <point x="285" y="0" type="line"/>
      <point x="285" y="606" type="line"/>
      <point x="626.6359481811523" y="606" type="line"/>
    </contour>
    <contour>
      <point x="285" y="1349" type="line"/>
      <point x="570" y="1349" type="line" smooth="yes"/>
      <point x="768" y="1349"/>
      <point x="873" y="1225"/>
      <point x="873" y="1027" type="curve" smooth="yes"/>
      <point x="873" y="862"/>
      <point x="778" y="713"/>
      <point x="589" y="713" type="curve" smooth="yes"/>
      <point x="285" y="713" type="line"/>
    </contour>
  </outline>
</glyph>
<glyph name="W" format="1">
  <advance width="1579"/>
  <unicode hex="0057"/>
  <outline>
    <contour>
      <point x="797" y="1606" type="move" name="top"/>
    </contour>
    <contour>
      <point x="796" y="10" type="move" name="bottom"/>
    </contour>
    <contour>
      <point x="1559" y="1600" type="move" name="top_dd"/>
    </contour>
    <contour>
      <point x="1559" y="-407" type="move" name="bottom_dd"/>
    </contour>
    <contour>
      <point x="1559" y="1606" type="move" name="top0315"/>
    </contour>
    <contour>
      <point x="1516" y="1456" type="line"/>
      <point x="1400" y="1456" type="line"/>
      <point x="1185" y="397" type="line"/>
      <point x="1147.5601196289062" y="178.4171905517578" type="line"/>
      <point x="1104" y="386" type="line"/>
      <point x="847" y="1456" type="line"/>
      <point x="746" y="1456" type="line"/>
      <point x="485" y="386" type="line"/>
      <point x="441.1047821044922" y="179.37129974365234" type="line"/>
      <point x="405" y="396" type="line"/>
      <point x="188" y="1456" type="line"/>
      <point x="71" y="1456" type="line"/>
      <point x="381" y="0" type="line"/>
      <point x="489" y="0" type="line"/>
      <point x="769" y="1136" type="line"/>
      <point x="797.2888870239258" y="1271.1111145019531" type="line"/>
      <point x="826" y="1136" type="line"/>
      <point x="1098" y="0" type="line"/>
      <point x="1207" y="0" type="line"/>
    </contour>
  </outline>
</glyph>
<glyph name="b" format="1">
  <advance width="996"/>
  <unicode hex="0062"/>
  <outline>
    <contour>
      <point x="533" y="1612" type="move" name="top"/>
    </contour>
    <contour>
      <point x="518" y="-10" type="move" name="bottom"/>
    </contour>
    <contour>
      <point x="976" y="1600" type="move" name="top_dd"/>
    </contour>
    <contour>
      <point x="976" y="-407" type="move" name="bottom_dd"/>
    </contour>
    <contour>
      <point x="976" y="1612" type="move" name="top0315"/>
    </contour>
    <contour>
      <point x="888" y="490" type="curve" smooth="yes"/>
      <point x="888" y="591" type="line"/>
      <point x="888" y="953"/>
      <point x="761" y="1102"/>
      <point x="538" y="1102" type="curve" smooth="yes"/>
      <point x="406.71556" y="1102.0"/>
      <point x="316.07744279718395" y="1038.294705615952"/>
      <point x="259" y="930.6724319458008" type="curve"/>
      <point x="259" y="1536" type="line"/>
      <point x="148" y="1536" type="line"/>
      <point x="148" y="0" type="line"/>
      <point x="251" y="0" type="line"/>
      <point x="256.53975677490234" y="145.4186248779297" type="line"/>
      <point x="313.456200316227" y="42.390807117243"/>
      <point x="405.921915" y="-20.999999999999986"/>
      <point x="540.0" y="-20.99999999999997" type="curve" smooth="yes"/>
      <point x="761" y="-21"/>
      <point x="888" y="141"/>
    </contour>
    <contour>
      <point x="515.0" y="995.9999999999999" type="curve" smooth="yes"/>
      <point x="701" y="996"/>
      <point x="776" y="866"/>
      <point x="776" y="591" type="curve" smooth="yes"/>
      <point x="776" y="490" type="line"/>
      <point x="776" y="213"/>
      <point x="697" y="86"/>
      <point x="517" y="86" type="curve" smooth="yes"/>
      <point x="382.913541" y="86.0"/>
      <point x="301.07566623844303" y="163.42862483528302"/>
      <point x="259" y="262.86781311035156" type="curve"/>
      <point x="259" y="803.2470245361328" type="line"/>
      <point x="297.198039466066" y="904.090733879174"/>
      <point x="372.08065500000004" y="996.0"/>
    </contour>
  </outline>
</glyph>
<glyph name="d" format="1">
  <advance width="999"/>
  <unicode hex="0064"/>
  <outline>
    <contour>
      <point x="952" y="1536" type="move" name="caron"/>
    </contour>
    <contour>
      <point x="737" y="1306" type="move" name="cross"/>
    </contour>
    <contour>
      <point x="531" y="0" type="move" name="bottom"/>
    </contour>
    <contour>
      <point x="477" y="1616" type="move" name="top"/>
    </contour>
    <contour>
      <point x="979" y="1600" type="move" name="top_dd"/>
    </contour>
    <contour>
      <point x="979" y="-407" type="move" name="bottom_dd"/>
    </contour>
    <contour>
      <point x="979" y="1616" type="move" name="top0315"/>
    </contour>
    <contour>
      <point x="744" y="0" type="line"/>
      <point x="848" y="0" type="line"/>
      <point x="848" y="1536" type="line"/>
      <point x="737" y="1536" type="line"/>
      <point x="737" y="936.8284454345703" type="line"/>
      <point x="680.0424095680951" y="1040.723471424757"/>
      <point x="590.7575100000001" y="1102.0"/>
      <point x="462.0000000000001" y="1102.0" type="curve" smooth="yes"/>
      <point x="245" y="1102"/>
      <point x="109" y="953"/>
      <point x="109" y="591" type="curve" smooth="yes"/>
      <point x="109" y="490" type="line"/>
      <point x="109" y="141"/>
      <point x="246" y="-21"/>
      <point x="460" y="-21" type="curve" smooth="yes"/>
      <point x="590.999244" y="-21.0"/>
      <point x="682.277879116504" y="40.079804226507996"/>
      <point x="739.3412094116211" y="139.76373291015625" type="curve"/>
    </contour>
    <contour>
      <point x="221" y="490" type="curve" smooth="yes"/>
      <point x="221" y="591" type="line"/>
      <point x="221" y="867"/>
      <point x="302" y="996"/>
      <point x="484" y="996" type="curve" smooth="yes"/>
      <point x="622.8545799999999" y="996.0"/>
      <point x="697.6188502964999" y="910.1747157014"/>
      <point x="737" y="813.3933868408203" type="curve"/>
      <point x="737" y="255.35362243652344" type="line"/>
      <point x="693.4003624382719" y="157.555035821408"/>
      <point x="614.38172" y="86.00000000000001"/>
      <point x="482.0" y="86.0" type="curve" smooth="yes"/>
      <point x="302" y="86"/>
      <point x="221" y="213"/>
    </contour>
  </outline>
</glyph>
<glyph name="g" format="1">
  <advance width="997"/>
  <unicode hex="0067"/>
  <outline>
    <contour>
      <point x="491" y="1290" type="move" name="top"/>
    </contour>
    <contour>
      <point x="485" y="-447" type="move" name="bottom"/>
    </contour>
    <contour>
      <point x="977" y="1600" type="move" name="top_dd"/>
    </contour>
    <contour>
      <point x="977" y="-407" type="move" name="bottom_dd"/>
    </contour>
    <contour>
      <point x="977" y="1290" type="move" name="top0315"/>
    </contour>
    <contour>
      <point x="848" y="-27" type="curve" smooth="yes"/>
      <point x="848" y="1082" type="line"/>
      <point x="745" y="1082" type="line"/>
      <point x="739.9374084472656" y="931.3878479003906" type="line"/>
      <point x="683.13078769152" y="1038.577270797312"/>
      <point x="592.99296" y="1102.0"/>
      <point x="462.0" y="1101.9999999999998" type="curve" smooth="yes"/>
      <point x="243" y="1102"/>
      <point x="109" y="953"/>
      <point x="109" y="591" type="curve" smooth="yes"/>
      <point x="109" y="490" type="line"/>
      <point x="109" y="141"/>
      <point x="243" y="-21"/>
      <point x="460" y="-21" type="curve" smooth="yes"/>
      <point x="589.222188" y="-21.0"/>
      <point x="679.794108937816" y="38.433901237132"/>
      <point x="737" y="135.73296356201172" type="curve"/>
      <point x="737" y="-31" type="line" smooth="yes"/>
      <point x="737" y="-247"/>
      <point x="645" y="-328"/>
      <point x="478" y="-328" type="curve" smooth="yes"/>
      <point x="383" y="-328"/>
      <point x="294" y="-286"/>
      <point x="220" y="-202" type="curve"/>
      <point x="168" y="-282" type="line"/>
      <point x="241" y="-376"/>
      <point x="378" y="-431"/>
      <point x="486" y="-431" type="curve" smooth="yes"/>
      <point x="707" y="-431"/>
      <point x="848" y="-309"/>
    </contour>
    <contour>
      <point x="221" y="490" type="curve" smooth="yes"/>
      <point x="221" y="591" type="line"/>
      <point x="221" y="867"/>
      <point x="302" y="996"/>
      <point x="484" y="996" type="curve" smooth="yes"/>
      <point x="624.359506" y="996.0"/>
      <point x="698.093028124003" y="908.304260539286"/>
      <point x="737" y="810.2557144165039" type="curve"/>
      <point x="737" y="258.2211151123047" type="line"/>
      <point x="693.749912734064" y="158.961525678432"/>
      <point x="615.8901079999999" y="85.99999999999999"/>
      <point x="482.9999999999999" y="85.99999999999997" type="curve" smooth="yes"/>
      <point x="302" y="86"/>
      <point x="221" y="213"/>
    </contour>
  </outline>
</glyph>
<glyph name="h" format="1">
  <advance width="985"/>
  <unicode hex="0068"/>
  <outline>
    <contour>
      <point x="431" y="1611" type="move" name="top"/>
    </contour>
    <contour>
      <point x="275" y="1306" type="move" name="cross"/>
    </contour>
    <contour>
      <point x="509" y="10" type="move" name="bottom"/>
    </contour>
    <contour>
      <point x="841" y="0" type="move" name="right"/>
    </contour>
    <contour>
      <point x="965" y="1600" type="move" name="top_dd"/>
    </contour>
    <contour>
      <point x="965" y="-407" type="move" name="bottom_dd"/>
    </contour>
    <contour>
      <point x="965" y="1611" type="move" name="top0315"/>
    </contour>
    <contour>
      <point x="521.0" y="995.9999999999998" type="curve" smooth="yes"/>
      <point x="650" y="996"/>
      <point x="729" y="927"/>
      <point x="729" y="706" type="curve" smooth="yes"/>
      <point x="729" y="0" type="line"/>
      <point x="840" y="0" type="line"/>
      <point x="840" y="705" type="line" smooth="yes"/>
      <point x="840" y="990"/>
      <point x="731" y="1102"/>
      <point x="550" y="1102" type="curve" smooth="yes"/>
      <point x="424.646799" y="1102.0"/>
      <point x="323.646742023389" y="1028.234679697271"/>
      <point x="260" y="914.6667785644531" type="curve"/>
      <point x="260" y="1536" type="line"/>
      <point x="149" y="1536" type="line"/>
      <point x="149" y="0" type="line"/>
      <point x="260" y="0" type="line"/>
      <point x="260" y="753.2088241577148" type="line"/>
      <point x="300.31208417976495" y="879.1170855455659"/>
      <point x="388.675848" y="995.9999999999999"/>
    </contour>
  </outline>
</glyph>
<glyph name="k" format="1">
  <advance width="889"/>
  <unicode hex="006B"/>
  <outline>
    <contour>
      <point x="461" y="92" type="move" name="bottom"/>
    </contour>
    <contour>
      <point x="261" y="1289" type="move" name="cross"/>
    </contour>
    <contour>
      <point x="480" y="1612" type="move" name="top"/>
    </contour>
    <contour>
      <point x="480" y="1612" type="move" name="marktop"/>
    </contour>
    <contour>
      <point x="869" y="1600" type="move" name="top_dd"/>
    </contour>
    <contour>
      <point x="869" y="-407" type="move" name="bottom_dd"/>
    </contour>
    <contour>
      <point x="759" y="1612" type="move" name="top0315"/>
    </contour>
    <contour>
      <point x="730" y="0" type="line"/>
      <point x="862" y="0" type="line"/>
      <point x="447.00337982177734" y="626.7295913696289" type="line"/>
      <point x="827" y="1082" type="line"/>
      <point x="688" y="1082" type="line"/>
      <point x="353" y="678" type="line"/>
      <point x="260" y="559.8648681640625" type="line"/>
      <point x="260" y="1536" type="line"/>
      <point x="149" y="1536" type="line"/>
      <point x="149" y="0" type="line"/>
      <point x="260" y="0" type="line"/>
      <point x="260" y="415.55555725097656" type="line"/>
      <point x="373.62512969970703" y="541.8057022094727" type="line"/>
    </contour>
  </outline>
</glyph>
<glyph name="p" format="1">
  <advance width="996"/>
  <unicode hex="0070"/>
  <outline>
    <contour>
      <point x="533" y="1280" type="move" name="top"/>
    </contour>
    <contour>
      <point x="202" y="-407" type="move" name="bottom"/>
    </contour>
    <contour>
      <point x="533" y="1280" type="move" name="marktop"/>
    </contour>
    <contour>
      <point x="976" y="1600" type="move" name="top_dd"/>
    </contour>
    <contour>
      <point x="976" y="-407" type="move" name="bottom_dd"/>
    </contour>
    <contour>
      <point x="976" y="1280" type="move" name="top0315"/>
    </contour>
    <contour>
      <point x="539.0" y="-21.000000000000014" type="curve" smooth="yes"/>
      <point x="760" y="-21"/>
      <point x="887" y="141"/>
      <point x="887" y="490" type="curve" smooth="yes"/>
      <point x="887" y="591" type="line"/>
      <point x="887" y="953"/>
      <point x="761" y="1102"/>
      <point x="537" y="1102" type="curve" smooth="yes"/>
      <point x="406.84021900000005" y="1102.0"/>
      <point x="315.11395089474104" y="1039.973637605517"/>
      <point x="256.6569595336914" y="934.9190826416016" type="curve"/>
      <point x="251" y="1082" type="line"/>
      <point x="148" y="1082" type="line"/>
      <point x="148" y="-416" type="line"/>
      <point x="259" y="-416" type="line"/>
      <point x="259" y="130.08736419677734" type="line"/>
      <point x="317.80367474636796" y="36.18811416345598"/>
      <point x="410.05848" y="-21.00000000000002"/>
    </contour>
    <contour>
      <point x="509.99999999999994" y="995.9999999999999" type="curve" smooth="yes"/>
      <point x="692" y="996"/>
      <point x="776" y="867"/>
      <point x="776" y="591" type="curve" smooth="yes"/>
      <point x="776" y="490" type="line"/>
      <point x="776" y="213"/>
      <point x="692" y="83"/>
      <point x="512" y="83" type="curve" smooth="yes"/>
      <point x="381.40863" y="83.0"/>
      <point x="302.76597380230004" y="152.8620633893"/>
      <point x="259" y="246.92290496826172" type="curve"/>
      <point x="259" y="816.9044723510742" type="line"/>
      <point x="298.58864283867297" y="912.2409361313661"/>
      <point x="373.564535" y="996.0000000000001"/>
    </contour>
  </outline>
</glyph>
<glyph name="q" format="1">
  <advance width="1003"/>
  <unicode hex="0071"/>
  <outline>
    <contour>
      <point x="471" y="1290" type="move" name="top"/>
    </contour>
    <contour>
      <point x="793" y="-407" type="move" name="bottom"/>
    </contour>
    <contour>
      <point x="471" y="1290" type="move" name="marktop"/>
    </contour>
    <contour>
      <point x="983" y="1600" type="move" name="top_dd"/>
    </contour>
    <contour>
      <point x="983" y="-407" type="move" name="bottom_dd"/>
    </contour>
    <contour>
      <point x="983" y="1290" type="move" name="top0315"/>
    </contour>
    <contour>
      <point x="847" y="1082" type="line"/>
      <point x="744" y="1082" type="line"/>
      <point x="738.6183166503906" y="942.0763168334961" type="line"/>
      <point x="680.2971478042" y="1042.7847971772999"/>
      <point x="590.17603" y="1101.9999999999998"/>
      <point x="462.9999999999999" y="1102.0" type="curve" smooth="yes"/>
      <point x="240" y="1102"/>
      <point x="109" y="953"/>
      <point x="109" y="591" type="curve" smooth="yes"/>
      <point x="109" y="490" type="line"/>
      <point x="109" y="141"/>
      <point x="241" y="-21"/>
      <point x="462" y="-21" type="curve" smooth="yes"/>
      <point x="587.520655" y="-21.0"/>
      <point x="677.593711893144" y="34.55729318670701"/>
      <point x="736" y="126.18302917480469" type="curve"/>
      <point x="736" y="-416" type="line"/>
      <point x="847" y="-416" type="line"/>
    </contour>
    <contour>
      <point x="221" y="490" type="curve" smooth="yes"/>
      <point x="221" y="591" type="line"/>
      <point x="221" y="867"/>
      <point x="304" y="998"/>
      <point x="486" y="998" type="curve" smooth="yes"/>
      <point x="617.7588499999999" y="998.0"/>
      <point x="694.2282038331" y="916.841106544"/>
      <point x="736" y="825.3263397216797" type="curve"/>
      <point x="736" y="243.7380599975586" type="line"/>
      <point x="690.25" y="150.5"/>
      <point x="610.75" y="83.0"/>
      <point x="484.0" y="83.0" type="curve" smooth="yes"/>
      <point x="304" y="83"/>
      <point x="221" y="213"/>
    </contour>
  </outline>
</glyph>
<glyph name="r" format="1">
  <advance width="620"/>
  <unicode hex="0072"/>
  <outline>
    <contour>
      <point x="364" y="1290" type="move" name="top"/>
    </contour>
    <contour>
      <point x="211" y="15" type="move" name="bottom"/>
    </contour>
    <contour>
      <point x="600" y="1600" type="move" name="top_dd"/>
    </contour>
    <contour>
      <point x="600" y="-407" type="move" name="bottom_dd"/>
    </contour>
    <contour>
      <point x="600" y="1290" type="move" name="top0315"/>
    </contour>
    <contour>
      <point x="503.0" y="985.0" type="curve"/>
      <point x="529" y="985"/>
      <point x="549" y="983"/>
      <point x="572" y="978" type="curve"/>
      <point x="575" y="1090" type="line"/>
      <point x="562" y="1096"/>
      <point x="532" y="1102"/>
      <point x="508" y="1102" type="curve"/>
      <point x="390.087843" y="1102.0"/>
      <point x="308.460879827906" y="1031.97594173562"/>
      <point x="259.7073440551758" y="920.4619674682617" type="curve"/>
      <point x="257" y="1082" type="line"/>
      <point x="149" y="1082" type="line"/>
      <point x="149" y="0" type="line"/>
      <point x="260" y="0" type="line"/>
      <point x="260" y="751.9254913330078" type="line"/>
      <point x="293.786899792972" y="889.3046329823919"/>
      <point x="373.878896" y="984.9999999999999"/>
    </contour>
  </outline>
</glyph>
<glyph name="u" format="1">
  <advance width="986"/>
  <unicode hex="0075"/>
  <outline>
    <contour>
      <point x="501" y="1292" type="move" name="top"/>
    </contour>
    <contour>
      <point x="833" y="0" type="move" name="ogonek"/>
    </contour>
    <contour>
      <point x="449" y="0" type="move" name="bottomu"/>
    </contour>
    <contour>
      <point x="966" y="1600" type="move" name="top_dd"/>
    </contour>
    <contour>
      <point x="966" y="-407" type="move" name="bottom_dd"/>
    </contour>
    <contour>
      <point x="794" y="654" type="move" name="rhotichook"/>
    </contour>
    <contour>
      <point x="966" y="1292" type="move" name="top0315"/>
    </contour>
    <contour>
      <point x="492" y="0" type="move" name="bottom"/>
    </contour>
    <contour>
      <point x="731" y="0" type="line"/>
      <point x="838" y="0" type="line"/>
      <point x="838" y="1082" type="line"/>
      <point x="727" y="1082" type="line"/>
      <point x="727" y="291.6565170288086" type="line"/>
      <point x="692.95971390048" y="172.60625763392"/>
      <point x="611.9884079999999" y="87.0"/>
      <point x="458.0" y="87.00000000000003" type="curve" smooth="yes"/>
      <point x="349" y="87"/>
      <point x="256" y="158"/>
      <point x="256" y="387" type="curve"/>
      <point x="256" y="1082" type="line"/>
      <point x="145" y="1082" type="line"/>
      <point x="145" y="389" type="line"/>
      <point x="145" y="94"/>
      <point x="266" y="-20"/>
      <point x="444" y="-20" type="curve" smooth="yes"/>
      <point x="580.294039" y="-20.0"/>
      <point x="672.432341872147" y="36.530592112729"/>
      <point x="728.9165725708008" y="130.2143325805664" type="curve"/>
    </contour>
  </outline>
</glyph>
<glyph name="w" format="1">
  <advance width="1337"/>
  <unicode hex="0077"/>
  <outline>
    <contour>
      <point x="662" y="1292" type="move" name="top"/>
    </contour>
    <contour>
      <point x="665" y="10" type="move" name="bottom"/>
    </contour>
    <contour>
      <point x="662" y="1292" type="move" name="marktop"/>
    </contour>
    <contour>
      <point x="1317" y="1600" type="move" name="top_dd"/>
    </contour>
    <contour>
      <point x="1317" y="-407" type="move" name="bottom_dd"/>
    </contour>
    <contour>
      <point x="1317" y="1292" type="move" name="top0315"/>
    </contour>
    <contour>
      <point x="1261" y="1082" type="line"/>
      <point x="1147" y="1082" type="line"/>
      <point x="959" y="250" type="line"/>
      <point x="946.4777908325195" y="173.64505004882812" type="line"/>
      <point x="930" y="259" type="line"/>
      <point x="712" y="1082" type="line"/>
      <point x="619" y="1082" type="line"/>
      <point x="397" y="251" type="line"/>
      <point x="385.4728775024414" y="188.1020050048828" type="line"/>
      <point x="377" y="246" type="line"/>
      <point x="183" y="1082" type="line"/>
      <point x="70" y="1082" type="line"/>
      <point x="334" y="0" type="line"/>
      <point x="427" y="0" type="line"/>
      <point x="658" y="860" type="line"/>
      <point x="662.694938659668" y="887.4283065795898" type="line"/>
      <point x="667" y="861" type="line"/>
      <point x="903" y="0" type="line"/>
      <point x="996" y="0" type="line"/>
    </contour>
  </outline>
</glyph>
<glyph name="z" format="1">
  <advance width="880"/>
  <unicode hex="007A"/>
  <outline>
    <contour>
      <point x="451" y="1292" type="move" name="top"/>
    </contour>
    <contour>
      <point x="466" y="10" type="move" name="bottom"/>
    </contour>
    <contour>
      <point x="860" y="1600" type="move" name="top_dd"/>
    </contour>
    <contour>
      <point x="860" y="-407" type="move" name="bottom_dd"/>
    </contour>
    <contour>
      <point x="860" y="1292" type="move" name="top0315"/>
    </contour>
    <contour>
      <point x="109" y="977" type="line"/>
      <point x="640.2623596191406" y="977" type="line"/>
      <point x="94" y="91" type="line"/>
      <point x="94" y="0" type="line"/>
      <point x="810" y="0" type="line"/>
      <point x="810" y="104" type="line"/>
      <point x="226.26612854003906" y="104" type="line"/>
      <point x="775" y="992" type="line"/>
      <point x="775" y="1082" type="line"/>
      <point x="109" y="1082" type="line"/>
    </contour>
  </outline>
</glyph>
<glyph name="braceleft" format="1">
  <advance width="611"/>
  <unicode hex="007B"/>
  <outline>
    <contour>
      <point x="268" y="286" type="curve" smooth="yes"/>
      <point x="268" y="60" type="line" smooth="yes"/>
      <point x="268" y="-150"/>
      <point x="335" y="-326"/>
      <point x="554" y="-403" type="curve"/>
      <point x="581" y="-322" type="line"/>
      <point x="435" y="-264"/>
      <point x="379" y="-122"/>
      <point x="379" y="60" type="curve" smooth="yes"/>
      <point x="379" y="286" type="line" smooth="yes"/>
      <point x="379.0" y="425.19665999999995"/>
      <point x="332.305075249348" y="542.9243890801599"/>
      <point x="222.79376983642578" y="595.9165191650391" type="curve"/>
      <point x="332.305075249348" y="648.6838294658321"/>
      <point x="379.0" y="766.0707260000001"/>
      <point x="379.0" y="906.0" type="curve"/>
      <point x="379" y="1132" type="line"/>
      <point x="379" y="1313"/>
      <point x="433" y="1460"/>
      <point x="579" y="1517" type="curve"/>
      <point x="554" y="1597" type="line"/>
      <point x="335" y="1520"/>
      <point x="268" y="1342"/>
      <point x="268" y="1132" type="curve"/>
      <point x="268" y="906" type="line"/>
      <point x="268" y="749"/>
      <point x="212" y="649"/>
      <point x="77" y="649" type="curve"/>
      <point x="77" y="543" type="line"/>
      <point x="212" y="543"/>
      <point x="268" y="442"/>
    </contour>
  </outline>
</glyph>
<glyph name="braceright" format="1">
  <advance width="611"/>
  <unicode hex="007D"/>
  <outline>
    <contour>
      <point x="342" y="906" type="curve" smooth="yes"/>
      <point x="342" y="1132" type="line" smooth="yes"/>
      <point x="342" y="1342"/>
      <point x="276" y="1520"/>
      <point x="56" y="1597" type="curve"/>
      <point x="32" y="1517" type="line"/>
      <point x="178" y="1460"/>
      <point x="231" y="1313"/>
      <point x="231" y="1132" type="curve" smooth="yes"/>
      <point x="231" y="906" type="line" smooth="yes"/>
      <point x="231.0" y="762.2075600000001"/>
      <point x="280.8755897728" y="645.0532190832"/>
      <point x="396.84090423583984" y="595.9321136474609" type="curve"/>
      <point x="280.8755897728" y="546.574637048"/>
      <point x="231.0" y="429.0396"/>
      <point x="230.99999999999997" y="286.0" type="curve" smooth="yes"/>
      <point x="231" y="60" type="line" smooth="yes"/>
      <point x="231" y="-122"/>
      <point x="175" y="-264"/>
      <point x="30" y="-322" type="curve"/>
      <point x="56" y="-403" type="line"/>
      <point x="276" y="-326"/>
      <point x="342" y="-150"/>
      <point x="342" y="60" type="curve" smooth="yes"/>
      <point x="342" y="286" type="line" smooth="yes"/>
      <point x="342" y="442"/>
      <point x="398" y="543"/>
      <point x="533" y="543" type="curve"/>
      <point x="533" y="649" type="line"/>
      <point x="398" y="649"/>
      <point x="342" y="749"/>
    </contour>
  </outline>
</glyph>
<glyph name="cent" format="1">
  <advance width="978"/>
  <unicode hex="00A2"/>
  <outline>
    <contour>
      <point x="861.0" y="335.0" type="curve"/>
      <point x="755" y="335" type="line"/>
      <point x="745" y="172"/>
      <point x="633" y="84"/>
      <point x="509" y="84" type="curve" smooth="yes"/>
      <point x="303" y="84"/>
      <point x="229" y="290"/>
      <point x="229" y="520" type="curve" smooth="yes"/>
      <point x="229" y="562" type="line" smooth="yes"/>
      <point x="229" y="790"/>
      <point x="304" y="998"/>
      <point x="508" y="998" type="curve"/>
      <point x="643" y="998"/>
      <point x="746" y="891"/>
      <point x="755" y="717" type="curve"/>
      <point x="861" y="717" type="line"/>
      <point x="853.717784" y="930.915095"/>
      <point x="731.259581874669" y="1074.398831578035"/>
      <point x="560" y="1098.4232025146484" type="curve"/>
      <point x="560" y="1318" type="line"/>
      <point x="449" y="1318" type="line"/>
      <point x="449" y="1097.576759338379" type="line"/>
      <point x="230.67253687566802" y="1063.858196527864"/>
      <point x="118.00000000000001" y="840.885442"/>
      <point x="118.0" y="562.0000000000002" type="curve" smooth="yes"/>
      <point x="118" y="520" type="line" smooth="yes"/>
      <point x="118.0" y="241.44543400000003"/>
      <point x="230.405340977972" y="18.670962019144042"/>
      <point x="449" y="-15.453048706054688" type="curve"/>
      <point x="449" y="-245" type="line"/>
      <point x="560" y="-245" type="line"/>
      <point x="560" y="-16.20606231689453" type="line"/>
      <point x="722.8975968107" y="8.180762241824997"/>
      <point x="852.836235" y="148.14049"/>
    </contour>
  </outline>
</glyph>
<glyph name="sterling" format="1">
  <advance width="1026"/>
  <unicode hex="00A3"/>
  <outline>
    <contour>
      <point x="101" y="0" type="line"/>
      <point x="945" y="0" type="line"/>
      <point x="945" y="107" type="line"/>
      <point x="319.55615997314453" y="107" type="line"/>
      <point x="357.283670136896" y="167.694177880768"/>
      <point x="375.603344" y="260.170936"/>
      <point x="374.0" y="370.0" type="curve" smooth="yes"/>
      <point x="366.62779998779297" y="644" type="line"/>
      <point x="649" y="644" type="line"/>
      <point x="649" y="751" type="line"/>
      <point x="363.7488784790039" y="751" type="line"/>
      <point x="356" y="1039" type="line"/>
      <point x="356" y="1252"/>
      <point x="449" y="1369"/>
      <point x="580" y="1369" type="curve" smooth="yes"/>
      <point x="702" y="1369"/>
      <point x="808" y="1289"/>
      <point x="808" y="1088" type="curve"/>
      <point x="922" y="1088" type="line"/>
      <point x="922" y="1318"/>
      <point x="801" y="1476"/>
      <point x="588" y="1476" type="curve" smooth="yes"/>
      <point x="385" y="1476"/>
      <point x="242" y="1315"/>
      <point x="242" y="1039" type="curve" smooth="yes"/>
      <point x="249.73731231689453" y="751" type="line"/>
      <point x="98" y="751" type="line"/>
      <point x="98" y="644" type="line"/>
      <point x="252.6119384765625" y="644" type="line"/>
      <point x="260" y="369" type="line" smooth="yes"/>
      <point x="261" y="265"/>
      <point x="240" y="126"/>
      <point x="181" y="107" type="curve"/>
      <point x="101" y="107" type="line"/>
    </contour>
  </outline>
</glyph>
<glyph name="currency" format="1">
  <advance width="1481"/>
  <unicode hex="00A4"/>
  <outline>
    <contour>
      <point x="1376" y="62" type="line"/>
      <point x="1214.867057800293" y="226.32369232177734" type="line"/>
      <point x="1290.293251975264" y="331.19112650368"/>
      <point x="1335.0" y="462.872744"/>
      <point x="1335.0" y="608.0" type="curve" smooth="yes"/>
      <point x="1335.0" y="759.500865"/>
      <point x="1286.554308927046" y="895.7030907138039"/>
      <point x="1205.4412689208984" y="1002.0638656616211" type="curve"/>
      <point x="1376" y="1176" type="line"/>
      <point x="1289" y="1265" type="line"/>
      <point x="1120.1140213012695" y="1092.7697448730469" type="line"/>
      <point x="1017.0803580882331" y="1181.6304634271612"/>
      <point x="884.627413" y="1234.0000000000002"/>
      <point x="740.0000000000001" y="1234.0000000000002" type="curve" smooth="yes"/>
      <point x="596.470152" y="1234.0"/>
      <point x="464.620942880141" y="1182.1073256308491"/>
      <point x="361.71346282958984" y="1093.9852752685547" type="curve"/>
      <point x="195" y="1264" type="line"/>
      <point x="110" y="1176" type="line"/>
      <point x="277.3690414428711" y="1005.3167190551758" type="line"/>
      <point x="194.62511867296297" y="898.480673114124"/>
      <point x="144.99999999999997" y="761.046535"/>
      <point x="145.0" y="607.9999999999999" type="curve"/>
      <point x="145.0" y="461.32576400000005"/>
      <point x="190.836601169452" y="328.38534108448005"/>
      <point x="267.85689544677734" y="222.98277282714844" type="curve"/>
      <point x="110" y="62" type="line"/>
      <point x="195" y="-26" type="line"/>
      <point x="349.7113800048828" y="131.77497100830078" type="line"/>
      <point x="454.271628013525" y="36.67374681484995"/>
      <point x="590.82724" y="-20.000000000000036"/>
      <point x="740.0" y="-20.00000000000003" type="curve" smooth="yes"/>
      <point x="890.286871" y="-20.0"/>
      <point x="1027.427826436737" y="37.174299433874005"/>
      <point x="1132.0730514526367" y="133.03440856933594" type="curve"/>
      <point x="1289" y="-27" type="line"/>
    </contour>
    <contour>
      <point x="258" y="608" type="curve"/>
      <point x="258" y="892"/>
      <point x="475" y="1120"/>
      <point x="740" y="1120" type="curve" smooth="yes"/>
      <point x="1004" y="1120"/>
      <point x="1221" y="892"/>
      <point x="1221" y="608" type="curve" smooth="yes"/>
      <point x="1221" y="324"/>
      <point x="1004" y="94"/>
      <point x="740" y="94" type="curve" smooth="yes"/>
      <point x="475" y="94"/>
      <point x="258" y="324"/>
    </contour>
  </outline>
</glyph>
<glyph name="yen" format="1">
  <advance width="931"/>
  <unicode hex="00A5"/>
  <outline>
    <contour>
      <point x="815" y="324" type="line"/>
      <point x="815" y="414" type="line"/>
      <point x="520" y="414" type="line"/>
      <point x="520" y="616" type="line"/>
      <point x="815" y="616" type="line"/>
      <point x="815" y="707" type="line"/>
      <point x="558.3000030517578" y="707" type="line"/>
      <point x="890" y="1456" type="line"/>
      <point x="762" y="1456" type="line"/>
      <point x="465.34801483154297" y="747.2270584106445" type="line"/>
      <point x="168" y="1456" type="line"/>
      <point x="39" y="1456" type="line"/>
      <point x="370.6999969482422" y="707" type="line"/>
      <point x="114" y="707" type="line"/>
      <point x="114" y="616" type="line"/>
      <point x="405" y="616" type="line"/>
      <point x="405" y="414" type="line"/>
      <point x="114" y="414" type="line"/>
      <point x="114" y="324" type="line"/>
      <point x="405" y="324" type="line"/>
      <point x="405" y="0" type="line"/>
      <point x="520" y="0" type="line"/>
      <point x="520" y="324" type="line"/>
    </contour>
  </outline>
</glyph>
<glyph name="section" format="1">
  <advance width="1084"/>
  <unicode hex="00A7"/>
  <outline>
    <contour>
      <point x="927" y="-139" type="curve" smooth="yes"/>
      <point x="927.0" y="8.173376000000019"/>
      <point x="871.868081958912" y="95.38576084582404"/>
      <point x="770.2841186523438" y="159.14022827148438" type="curve"/>
      <point x="892.084468570688" y="203.404522661696"/>
      <point x="965.0" y="299.61075200000005"/>
      <point x="964.9999999999999" y="431.00000000000006" type="curve"/>
      <point x="965" y="668"/>
      <point x="818" y="751"/>
      <point x="568" y="830" type="curve" smooth="yes"/>
      <point x="318" y="915"/>
      <point x="258" y="974"/>
      <point x="258" y="1122" type="curve"/>
      <point x="258" y="1260"/>
      <point x="347" y="1373"/>
      <point x="545" y="1373" type="curve" smooth="yes"/>
      <point x="733" y="1373"/>
      <point x="835" y="1226"/>
      <point x="835" y="1045" type="curve"/>
      <point x="946" y="1045" type="line"/>
      <point x="946" y="1323"/>
      <point x="794" y="1476"/>
      <point x="545" y="1476" type="curve" smooth="yes"/>
      <point x="303" y="1476"/>
      <point x="147" y="1335"/>
      <point x="147" y="1120" type="curve"/>
      <point x="147.0" y="977.064568"/>
      <point x="200.14126190814" y="889.168300119145"/>
      <point x="295.90025329589844" y="825.6792602539062" type="curve"/>
      <point x="178.7718607136" y="780.7238064183999"/>
      <point x="108.99999999999999" y="682.79184"/>
      <point x="108.99999999999997" y="551.0" type="curve" smooth="yes"/>
      <point x="109" y="313"/>
      <point x="263" y="220"/>
      <point x="508" y="146" type="curve"/>
      <point x="750" y="64"/>
      <point x="816" y="-3"/>
      <point x="816" y="-141" type="curve" smooth="yes"/>
      <point x="816" y="-284"/>
      <point x="713" y="-391"/>
      <point x="530" y="-391" type="curve" smooth="yes"/>
      <point x="383" y="-391"/>
      <point x="216" y="-313"/>
      <point x="216" y="-62" type="curve"/>
      <point x="104" y="-64" type="line"/>
      <point x="104" y="-388"/>
      <point x="321" y="-495"/>
      <point x="530" y="-495" type="curve" smooth="yes"/>
      <point x="770" y="-495"/>
      <point x="927" y="-364"/>
    </contour>
    <contour>
      <point x="550.0" y="253.00000000000009" type="curve" smooth="yes"/>
      <point x="285" y="343"/>
      <point x="221" y="399"/>
      <point x="221" y="553" type="curve" smooth="yes"/>
      <point x="221.0" y="663.4495"/>
      <point x="277.994158058768" y="751.257485154736"/>
      <point x="403.02020263671875" y="770.2015991210938" type="curve"/>
      <point x="439.328585410495" y="755.132292060494"/>
      <point x="479.079835" y="741.3326470000001"/>
      <point x="522.0" y="728.0" type="curve" smooth="yes"/>
      <point x="776" y="640"/>
      <point x="854" y="572"/>
      <point x="854" y="428" type="curve"/>
      <point x="854.0" y="320.251552"/>
      <point x="782.238714037248" y="234.34349537996798"/>
      <point x="655.2495803833008" y="215.74851989746094" type="curve"/>
      <point x="622.790711779728" y="228.68470608425605"/>
      <point x="587.66368" y="240.91623600000005"/>
    </contour>
  </outline>
</glyph>
<glyph name="ordfeminine" format="1">
  <advance width="803"/>
  <unicode hex="00AA"/>
  <outline>
    <contour>
      <point x="561.0" y="705.0" type="curve"/>
      <point x="663" y="705" type="line"/>
      <point x="648" y="763"/>
      <point x="641" y="821"/>
      <point x="641" y="886" type="curve" smooth="yes"/>
      <point x="641" y="1200" type="line"/>
      <point x="641" y="1383"/>
      <point x="548" y="1476"/>
      <point x="411" y="1476" type="curve" smooth="yes"/>
      <point x="258" y="1476"/>
      <point x="158" y="1378"/>
      <point x="158" y="1243" type="curve"/>
      <point x="256" y="1237" type="line"/>
      <point x="256" y="1331"/>
      <point x="316" y="1378"/>
      <point x="411" y="1378" type="curve" smooth="yes"/>
      <point x="498" y="1378"/>
      <point x="541" y="1313"/>
      <point x="541" y="1201" type="curve"/>
      <point x="541" y="1141" type="line"/>
      <point x="429" y="1141" type="line"/>
      <point x="246" y="1141"/>
      <point x="151" y="1055"/>
      <point x="151" y="909" type="curve" smooth="yes"/>
      <point x="151" y="778"/>
      <point x="225" y="691"/>
      <point x="360" y="691" type="curve" smooth="yes"/>
      <point x="444.375162" y="691.0"/>
      <point x="507.386246550129" y="740.849514049699"/>
      <point x="544.1679763793945" y="797.182487487793" type="curve"/>
      <point x="547.411461653446" y="764.7315495956869"/>
      <point x="553.097027" y="733.572287"/>
    </contour>
    <contour>
      <point x="380.0" y="788.0000000000001" type="curve" smooth="yes"/>
      <point x="289" y="788"/>
      <point x="251" y="838"/>
      <point x="251" y="913" type="curve" smooth="yes"/>
      <point x="251" y="1004"/>
      <point x="311" y="1057"/>
      <point x="429" y="1057" type="curve"/>
      <point x="541" y="1057" type="line"/>
      <point x="541" y="887.980094909668" type="line"/>
      <point x="510.663957683051" y="836.358360431126"/>
      <point x="442.23929300000003" y="788.0"/>
    </contour>
  </outline>
</glyph>
<glyph name="registered" format="1">
  <advance width="1642"/>
  <unicode hex="00AE"/>
  <outline>
    <contour>
      <point x="103" y="729" type="curve" smooth="yes"/>
      <point x="103" y="306"/>
      <point x="421" y="-21"/>
      <point x="813" y="-21" type="curve" smooth="yes"/>
      <point x="1204" y="-21"/>
      <point x="1522" y="306"/>
      <point x="1522" y="729" type="curve" smooth="yes"/>
      <point x="1522" y="1152"/>
      <point x="1204" y="1476"/>
      <point x="813" y="1476" type="curve" smooth="yes"/>
      <point x="421" y="1476"/>
      <point x="103" y="1152"/>
    </contour>
    <contour>
      <point x="188" y="729" type="curve" smooth="yes"/>
      <point x="188" y="1101"/>
      <point x="469" y="1388"/>
      <point x="813" y="1388" type="curve" smooth="yes"/>
      <point x="1156" y="1388"/>
      <point x="1437" y="1101"/>
      <point x="1437" y="729" type="curve" smooth="yes"/>
      <point x="1437" y="357"/>
      <point x="1156" y="67"/>
      <point x="813" y="67" type="curve" smooth="yes"/>
      <point x="469" y="67"/>
      <point x="188" y="357"/>
    </contour>
    <contour>
      <point x="838" y="666" type="line"/>
      <point x="959" y="666"/>
      <point x="1004" y="619"/>
      <point x="1004" y="509" type="curve"/>
      <point x="1004" y="465" type="line"/>
      <point x="1004" y="436"/>
      <point x="1004" y="355"/>
      <point x="1018" y="321" type="curve"/>
      <point x="1120" y="321" type="line"/>
      <point x="1120" y="337" type="line"/>
      <point x="1108" y="367"/>
      <point x="1103" y="414"/>
      <point x="1103" y="464" type="curve"/>
      <point x="1103" y="510" type="line"/>
      <point x="1103.0" y="603.748158"/>
      <point x="1070.892063904838" y="681.995933057508"/>
      <point x="975.7845840454102" y="715.9050674438477" type="curve"/>
      <point x="1065.631744707008" y="756.757875596544"/>
      <point x="1116.0" y="822.4593679999999"/>
      <point x="1116.0" y="913.0" type="curve"/>
      <point x="1116" y="1078"/>
      <point x="1005" y="1161"/>
      <point x="810" y="1161" type="curve"/>
      <point x="553" y="1161" type="line"/>
      <point x="553" y="321" type="line"/>
      <point x="651" y="321" type="line"/>
      <point x="651" y="666" type="line"/>
    </contour>
    <contour>
      <point x="651" y="1069" type="line"/>
      <point x="810" y="1069" type="line"/>
      <point x="966" y="1069"/>
      <point x="1018" y="1022"/>
      <point x="1018" y="910" type="curve"/>
      <point x="1018" y="812"/>
      <point x="932" y="760"/>
      <point x="831" y="759" type="curve"/>
      <point x="651" y="759" type="line"/>
    </contour>
  </outline>
</glyph>
<glyph name="threesuperior" format="1">
  <advance width="663"/>
  <unicode hex="00B3"/>
  <outline>
    <contour>
      <point x="311" y="1025" type="line" smooth="yes"/>
      <point x="408.0" y="1025.0"/>
      <point x="473.0" y="985.0"/>
      <point x="473.0" y="884.0" type="curve" smooth="yes"/>
      <point x="473.0" y="798.0"/>
      <point x="421.0" y="743.0"/>
      <point x="328.0" y="743.0" type="curve" smooth="yes"/>
      <point x="238.0" y="743.0"/>
      <point x="176.0" y="802.0"/>
      <point x="176.0" y="885.0" type="curve"/>
      <point x="79" y="885" type="line"/>
      <point x="79.0" y="726.0"/>
      <point x="203.0" y="654.0"/>
      <point x="325.0" y="654.0" type="curve" smooth="yes"/>
      <point x="465.0" y="654.0"/>
      <point x="570.0" y="736.0"/>
      <point x="570.0" y="881.0" type="curve" smooth="yes"/>
      <point x="570.0" y="974.80057399999998"/>
      <point x="525.66365491192005" y="1041.4451366335511"/>
      <point x="435.75311279296875" y="1069.3663330078125" type="curve"/>
      <point x="513.53748764531497" y="1101.912855771893"/>
      <point x="557.0" y="1169.632824"/>
      <point x="557.0" y="1244.0" type="curve"/>
      <point x="557.0" y="1386.0"/>
      <point x="463.0" y="1465.0"/>
      <point x="323.0" y="1465.0" type="curve" smooth="yes"/>
      <point x="193.0" y="1465.0"/>
      <point x="90.0" y="1379.0"/>
      <point x="90.0" y="1246.0" type="curve"/>
      <point x="187" y="1246" type="line"/>
      <point x="187.0" y="1326.0"/>
      <point x="246.0" y="1376.0"/>
      <point x="325.0" y="1376.0" type="curve" smooth="yes"/>
      <point x="418.0" y="1376.0"/>
      <point x="460.0" y="1317.0"/>
      <point x="460.0" y="1242.0" type="curve"/>
      <point x="460.0" y="1166.0"/>
      <point x="409.0" y="1108.0"/>
      <point x="311.0" y="1108.0" type="curve" smooth="yes"/>
      <point x="245" y="1108" type="line"/>
      <point x="245" y="1025" type="line"/>
    </contour>
  </outline>
</glyph>
<glyph name="mu" format="1">
  <advance width="1001"/>
  <unicode hex="00B5"/>
  <outline>
    <contour>
      <point x="487.0" y="-20.0" type="curve" smooth="yes"/>
      <point x="606.7366079999999" y="-20.0"/>
      <point x="689.1405792570879" y="42.314626743807985"/>
      <point x="740.1605758666992" y="145.98553466796875" type="curve"/>
      <point x="746" y="0" type="line"/>
      <point x="847" y="0" type="line"/>
      <point x="847" y="1082" type="line"/>
      <point x="736" y="1082" type="line"/>
      <point x="736" y="302.9483108520508" type="line"/>
      <point x="706.347635844688" y="170.25050388527202"/>
      <point x="634.4020780000001" y="83.00000000000003"/>
      <point x="480.0000000000001" y="83.0" type="curve" smooth="yes"/>
      <point x="365" y="83"/>
      <point x="265" y="152"/>
      <point x="265" y="450" type="curve"/>
      <point x="265" y="1082" type="line"/>
      <point x="156" y="1082" type="line"/>
      <point x="156" y="-416" type="line"/>
      <point x="265" y="-416" type="line"/>
      <point x="265" y="101.74913024902344" type="line"/>
      <point x="317.61139356394403" y="12.944922484768"/>
      <point x="396.35730800000005" y="-20.0"/>
    </contour>
  </outline>
</glyph>
<glyph name="AE" format="1">
  <advance width="1614"/>
  <unicode hex="00C6"/>
  <outline>
    <contour>
      <point x="819" y="1612" type="move" name="top"/>
    </contour>
    <contour>
      <point x="1594" y="1600" type="move" name="top_dd"/>
    </contour>
    <contour>
      <point x="1594" y="1612" type="move" name="top0315"/>
    </contour>
    <contour>
      <point x="1561" y="104" type="line"/>
      <point x="971.2857131958008" y="104" type="line"/>
      <point x="949.75" y="707" type="line"/>
      <point x="1441" y="707" type="line"/>
      <point x="1441" y="810" type="line"/>
      <point x="946.0714263916016" y="810" type="line"/>
      <point x="926.7142868041992" y="1352" type="line"/>
      <point x="1509" y="1352" type="line"/>
      <point x="1509" y="1456" type="line"/>
      <point x="770" y="1456" type="line"/>
      <point x="30" y="0" type="line"/>
      <point x="165" y="0" type="line"/>
      <point x="356.1386413574219" y="388" type="line"/>
      <point x="850.1428604125977" y="388" type="line"/>
      <point x="864" y="0" type="line"/>
      <point x="1561" y="0" type="line"/>
    </contour>
    <contour>
      <point x="412.7905578613281" y="503" type="line"/>
      <point x="816.7495498657227" y="1323.012565612793" type="line"/>
      <point x="846.0357131958008" y="503" type="line"/>
    </contour>
  </outline>
</glyph>
<glyph name="multiply" format="1">
  <advance width="944"/>
  <unicode hex="00D7"/>
  <outline>
    <contour>
      <point x="836" y="186" type="line"/>
      <point x="536.8186721801758" y="549.1284790039062" type="line"/>
      <point x="825" y="899" type="line"/>
      <point x="752" y="981" type="line"/>
      <point x="466.7181091308594" y="634.2123794555664" type="line"/>
      <point x="181" y="981" type="line"/>
      <point x="108" y="899" type="line"/>
      <point x="396.67333984375" y="549.0662155151367" type="line"/>
      <point x="98" y="186" type="line"/>
      <point x="171" y="105" type="line"/>
      <point x="466.7738723754883" y="464.0893783569336" type="line"/>
      <point x="763" y="105" type="line"/>
    </contour>
  </outline>
</glyph>
<glyph name="Oslash" format="1">
  <advance width="1208"/>
  <unicode hex="00D8"/>
  <outline>
    <contour>
      <point x="619" y="1674" type="move" name="top"/>
    </contour>
    <contour>
      <point x="1188" y="1600" type="move" name="top_dd"/>
    </contour>
    <contour>
      <point x="1188" y="1674" type="move" name="top0315"/>
    </contour>
    <contour>
      <point x="605.0" y="-20.000000000000057" type="curve" smooth="yes"/>
      <point x="896" y="-20"/>
      <point x="1083" y="242"/>
      <point x="1083" y="651" type="curve"/>
      <point x="1083" y="805" type="line"/>
      <point x="1083.0" y="994.298128"/>
      <point x="1042.530283558672" y="1152.38291087238"/>
      <point x="969.9802780151367" y="1267.462661743164" type="curve"/>
      <point x="1096" y="1506" type="line"/>
      <point x="1003" y="1506" type="line"/>
      <point x="915.0677642822266" y="1339.754753112793" type="line"/>
      <point x="834.674752070016" y="1427.469864484752"/>
      <point x="728.432688" y="1476.0"/>
      <point x="603.0" y="1476.0" type="curve" smooth="yes"/>
      <point x="317" y="1476"/>
      <point x="125" y="1213"/>
      <point x="125" y="805" type="curve"/>
      <point x="125" y="651" type="line"/>
      <point x="125.0" y="430.485196"/>
      <point x="181.393703313184" y="252.70170327339198"/>
      <point x="278.1952362060547" y="135.6794662475586" type="curve"/>
      <point x="162" y="-84" type="line"/>
      <point x="256" y="-84" type="line"/>
      <point x="339.52647399902344" y="74.10368347167969" type="line"/>
      <point x="413.347347606812" y="13.087227054181938"/>
      <point x="503.364466" y="-20.000000000000064"/>
    </contour>
    <contour>
      <point x="239.0" y="651.0" type="curve" smooth="yes"/>
      <point x="239" y="807" type="line" smooth="yes"/>
      <point x="239" y="1150"/>
      <point x="378" y="1366"/>
      <point x="603" y="1366" type="curve" smooth="yes"/>
      <point x="710.768176" y="1366.0"/>
      <point x="797.605985684572" y="1319.392173978016"/>
      <point x="859.7046813964844" y="1235.0849533081055" type="curve"/>
      <point x="335.5077133178711" y="244.03480529785156" type="line"/>
      <point x="273.465379445456" y="340.8934582932961"/>
      <point x="239.0" y="479.93621600000006"/>
    </contour>
    <contour>
      <point x="970.0" y="807.0000000000002" type="curve"/>
      <point x="970" y="651" type="line"/>
      <point x="970" y="305"/>
      <point x="837" y="90"/>
      <point x="605" y="90" type="curve" smooth="yes"/>
      <point x="521.651675" y="90.0"/>
      <point x="449.8301299613959" y="119.503067758335"/>
      <point x="392.4327392578125" y="174.24768829345703" type="curve"/>
      <point x="908.2365036010742" y="1150.5905227661133" type="line"/>
      <point x="948.6135256762599" y="1059.9212203028521"/>
      <point x="969.9999999999999" y="943.5201740000001"/>
    </contour>
  </outline>
</glyph>
<glyph name="ae" format="1">
  <advance width="1495"/>
  <unicode hex="00E6"/>
  <outline>
    <contour>
      <point x="742" y="1291" type="move" name="top"/>
    </contour>
    <contour>
      <point x="1475" y="1600" type="move" name="top_dd"/>
    </contour>
    <contour>
      <point x="1475" y="1291" type="move" name="top0315"/>
    </contour>
    <contour>
      <point x="1396" y="112" type="curve"/>
      <point x="1353" y="202" type="line"/>
      <point x="1293" y="141"/>
      <point x="1210" y="83"/>
      <point x="1082" y="83" type="curve" smooth="yes"/>
      <point x="872" y="83"/>
      <point x="782" y="274"/>
      <point x="782" y="510" type="curve" smooth="yes"/>
      <point x="782" y="537" type="line"/>
      <point x="1414" y="537" type="line"/>
      <point x="1414" y="637" type="line" smooth="yes"/>
      <point x="1414" y="924"/>
      <point x="1285" y="1102"/>
      <point x="1055" y="1102" type="curve" smooth="yes"/>
      <point x="928.740224" y="1102.584536"/>
      <point x="820.5896117706881" y="1026.632228893696"/>
      <point x="752.5180587768555" y="900.2929992675781" type="curve"/>
      <point x="705.631131645828" y="1034.392876608124"/>
      <point x="601.824282" y="1102.0"/>
      <point x="465.0000000000001" y="1102.0" type="curve" smooth="yes"/>
      <point x="254" y="1102"/>
      <point x="114" y="965"/>
      <point x="114" y="778" type="curve"/>
      <point x="225" y="765" type="line"/>
      <point x="225" y="895"/>
      <point x="315" y="998"/>
      <point x="465" y="998" type="curve" smooth="yes"/>
      <point x="601" y="998"/>
      <point x="671" y="895"/>
      <point x="671" y="720" type="curve"/>
      <point x="671" y="633" type="line"/>
      <point x="461" y="633" type="line"/>
      <point x="218" y="633"/>
      <point x="91" y="502"/>
      <point x="91" y="294" type="curve" smooth="yes"/>
      <point x="91" y="104"/>
      <point x="197" y="-20"/>
      <point x="389" y="-20" type="curve" smooth="yes"/>
      <point x="579.206804" y="-20.0"/>
      <point x="696.94722557774" y="85.71566376894401"/>
      <point x="747.7315139770508" y="182.2187271118164" type="curve"/>
      <point x="814.9335449629821" y="56.587390489678"/>
      <point x="928.112466" y="-19.999999999999986"/>
      <point x="1082.0" y="-19.99999999999997" type="curve"/>
      <point x="1255" y="-20"/>
      <point x="1349" y="58"/>
    </contour>
    <contour>
      <point x="1055.0" y="998.0000000000001" type="curve"/>
      <point x="1227" y="998"/>
      <point x="1303" y="850"/>
      <point x="1303" y="668" type="curve"/>
      <point x="1303" y="636" type="line"/>
      <point x="785.1353607177734" y="636" type="line"/>
      <point x="803.395293804479" y="841.642279576494"/>
      <point x="900.5857960000001" y="998.0"/>
    </contour>
    <contour>
      <point x="407.00000000000006" y="82.0" type="curve" smooth="yes"/>
      <point x="271" y="82"/>
      <point x="202" y="166"/>
      <point x="202" y="290" type="curve" smooth="yes"/>
      <point x="202" y="421"/>
      <point x="288" y="535"/>
      <point x="463" y="535" type="curve"/>
      <point x="671" y="535" type="line"/>
      <point x="671" y="230.88622283935547" type="line"/>
      <point x="625.1045975552" y="160.41218475519997"/>
      <point x="515.43488" y="81.99999999999999"/>
    </contour>
  </outline>
</glyph>
<glyph name="eth" format="1">
  <advance width="1043"/>
  <unicode hex="00F0"/>
  <outline>
    <contour>
      <point x="909" y="535" type="curve"/>
      <point x="909" y="624" type="line"/>
      <point x="909.0" y="912.851848"/>
      <point x="834.63805985572" y="1138.65770326898"/>
      <point x="700.4375686645508" y="1304.354118347168" type="curve"/>
      <point x="851" y="1415" type="line"/>
      <point x="805" y="1489" type="line"/>
      <point x="641.6739883422852" y="1369.3542022705078" type="line"/>
      <point x="548.267036004496" y="1462.032617727184"/>
      <point x="432.549388" y="1531.6781680000001"/>
      <point x="297.99999999999994" y="1579.0" type="curve"/>
      <point x="263" y="1473" type="line"/>
      <point x="368.122955" y="1432.732563"/>
      <point x="466.261756460945" y="1378.115865092487"/>
      <point x="549.0447006225586" y="1301.4978637695312" type="curve"/>
      <point x="375" y="1174" type="line"/>
      <point x="421" y="1099" type="line"/>
      <point x="609.8325958251953" y="1237.770004272461" type="line"/>
      <point x="694.8787485140008" y="1136.5409084332377"/>
      <point x="756.9892278792208" y="1003.9221992623229"/>
      <point x="783.6171264648438" y="828.4405517578125" type="curve"/>
      <point x="719.0286167267959" y="912.95748814784"/>
      <point x="619.8212859999999" y="966.0"/>
      <point x="510.9999999999999" y="966.0" type="curve"/>
      <point x="291" y="966"/>
      <point x="142" y="775"/>
      <point x="142" y="466" type="curve"/>
      <point x="142" y="195"/>
      <point x="303" y="-20"/>
      <point x="535" y="-20" type="curve" smooth="yes"/>
      <point x="752" y="-20"/>
      <point x="909" y="206"/>
    </contour>
    <contour>
      <point x="253" y="466" type="curve"/>
      <point x="253" y="696"/>
      <point x="347" y="860"/>
      <point x="533" y="860" type="curve"/>
      <point x="675.610304" y="860.0"/>
      <point x="761.947678358312" y="772.280433205604"/>
      <point x="796.9294204711914" y="683.7064743041992" type="curve"/>
      <point x="797.63955059616" y="664.950535950488"/>
      <point x="798.0" y="645.6870319999999"/>
      <point x="798.0000000000001" y="626.0000000000001" type="curve" smooth="yes"/>
      <point x="798" y="535" type="line" smooth="yes"/>
      <point x="798" y="276"/>
      <point x="698" y="86"/>
      <point x="538" y="86" type="curve" smooth="yes"/>
      <point x="355" y="86"/>
      <point x="253" y="278"/>
    </contour>
  </outline>
</glyph>
<glyph name="oslash" format="1">
  <advance width="1001"/>
  <unicode hex="00F8"/>
  <outline>
    <contour>
      <point x="462" y="1289" type="move" name="top"/>
    </contour>
    <contour>
      <point x="981" y="1600" type="move" name="top_dd"/>
    </contour>
    <contour>
      <point x="981" y="1289" type="move" name="top0315"/>
    </contour>
    <contour>
      <point x="503.0" y="-20.000000000000043" type="curve" smooth="yes"/>
      <point x="751" y="-20"/>
      <point x="910" y="210"/>
      <point x="910" y="525" type="curve"/>
      <point x="910" y="557" type="line"/>
      <point x="910.0" y="751.7959999999999"/>
      <point x="849.19544896" y="914.0864224"/>
      <point x="743.9038162231445" y="1009.5723037719727" type="curve"/>
      <point x="828" y="1214" type="line"/>
      <point x="745" y="1214" type="line"/>
      <point x="680.0256042480469" y="1056.055061340332" type="line"/>
      <point x="627.89063473975" y="1085.7829676682502"/>
      <point x="568.118215" y="1102.0000000000002"/>
      <point x="502.0" y="1102.0000000000002" type="curve" smooth="yes"/>
      <point x="256" y="1102"/>
      <point x="95" y="872"/>
      <point x="95" y="557" type="curve"/>
      <point x="95" y="525" type="line"/>
      <point x="95.0" y="324.203565"/>
      <point x="160.42093764376102" y="157.94613434608502"/>
      <point x="271.83605194091797" y="63.79536437988281" type="curve"/>
      <point x="188" y="-140" type="line"/>
      <point x="271" y="-140" type="line"/>
      <point x="336.7947082519531" y="19.93901824951172" type="line"/>
      <point x="386.19220176824604" y="-5.958725270970049"/>
      <point x="441.970993" y="-20.00000000000005"/>
    </contour>
    <contour>
      <point x="206.0" y="525.0" type="curve"/>
      <point x="206" y="557" type="line"/>
      <point x="206" y="789"/>
      <point x="310" y="998"/>
      <point x="502" y="998" type="curve" smooth="yes"/>
      <point x="554.205149" y="998.0"/>
      <point x="599.8984827886391" y="982.708209222759"/>
      <point x="638.783088684082" y="955.7994613647461" type="curve"/>
      <point x="315.6618118286133" y="170.33049774169922" type="line"/>
      <point x="243.64269921193602" y="251.775490019172"/>
      <point x="206.00000000000003" y="382.41558599999996"/>
    </contour>
    <contour>
      <point x="799.0000000000001" y="557.0" type="curve"/>
      <point x="799" y="525" type="line"/>
      <point x="799" y="288"/>
      <point x="695" y="84"/>
      <point x="503" y="84" type="curve" smooth="yes"/>
      <point x="455.658837" y="84.0"/>
      <point x="413.672597046609" y="96.274205634924"/>
      <point x="377.262451171875" y="118.31123352050781" type="curve"/>
      <point x="698.5162353515625" y="899.2405395507812" type="line"/>
      <point x="764.5523010440961" y="816.4248948847519"/>
      <point x="799.0000000000001" y="690.5215679999999"/>
    </contour>
  </outline>
</glyph>
<glyph name="thorn" format="1">
  <advance width="1011"/>
  <unicode hex="00FE"/>
  <outline>
    <contour>
      <point x="544.0" y="-20.000000000000014" type="curve" smooth="yes"/>
      <point x="765" y="-20"/>
      <point x="892" y="207"/>
      <point x="892" y="530" type="curve" smooth="yes"/>
      <point x="892" y="551" type="line"/>
      <point x="892" y="886"/>
      <point x="765" y="1102"/>
      <point x="542" y="1102" type="curve" smooth="yes"/>
      <point x="417.217622" y="1102.0"/>
      <point x="325.5016541156" y="1043.803118196544"/>
      <point x="264" y="944.5081253051758" type="curve"/>
      <point x="264" y="1536" type="line"/>
      <point x="152" y="1536" type="line"/>
      <point x="152" y="-416" type="line"/>
      <point x="264" y="-416" type="line"/>
      <point x="264" y="126.80152130126953" type="line"/>
      <point x="325.82429830200397" y="35.315224355888006"/>
      <point x="418.671342" y="-20.0"/>
    </contour>
    <contour>
      <point x="515.0" y="996.0" type="curve" smooth="yes"/>
      <point x="696" y="996"/>
      <point x="780" y="801"/>
      <point x="780" y="551" type="curve" smooth="yes"/>
      <point x="780" y="530" type="line"/>
      <point x="780" y="279"/>
      <point x="696" y="84"/>
      <point x="516" y="84" type="curve" smooth="yes"/>
      <point x="387.042528" y="84.0"/>
      <point x="308.16840756936" y="160.008851205264"/>
      <point x="264" y="264.5526657104492" type="curve"/>
      <point x="264" y="798.631217956543" type="line"/>
      <point x="303.892686336" y="903.3137672192"/>
      <point x="378.46112" y="996.0"/>
    </contour>
  </outline>
</glyph>
<glyph name="Aogonek" format="1">
  <advance width="1124"/>
  <unicode hex="0104"/>
  <outline>
    <contour>
      <point x="564" y="1606" type="move" name="parent_top"/>
    </contour>
    <contour>
      <point x="580" y="0" type="move" name="bottom"/>
    </contour>
    <contour>
      <point x="1104" y="1600" type="move" name="top_dd"/>
    </contour>
    <contour>
      <point x="1104" y="-407" type="move" name="bottom_dd"/>
    </contour>
    <contour>
      <point x="1104" y="1606" type="move" name="top0315"/>
    </contour>
    <contour>
      <point x="564" y="1606" type="move" name="top"/>
    </contour>
    <contour>
      <point x="45" y="0" type="line"/>
      <point x="164" y="0" type="line"/>
      <point x="288.95613861083984" y="407" type="line"/>
      <point x="835.0438613891602" y="407" type="line"/>
      <point x="958.7089157104492" y="4.2052459716796875" type="line"/>
      <point x="864.8872626856249" y="-69.23210495812499"/>
      <point x="810.9999999999999" y="-158.223325"/>
      <point x="810.9999999999999" y="-244.99999999999997" type="curve" smooth="yes"/>
      <point x="811" y="-358"/>
      <point x="873" y="-415"/>
      <point x="957" y="-415" type="curve" smooth="yes"/>
      <point x="1018" y="-415"/>
      <point x="1056" y="-391"/>
      <point x="1080" y="-371" type="curve"/>
      <point x="1068" y="-285" type="line"/>
      <point x="1050" y="-299"/>
      <point x="1021" y="-318"/>
      <point x="981" y="-318" type="curve" smooth="yes"/>
      <point x="927" y="-318"/>
      <point x="910" y="-280"/>
      <point x="910" y="-234" type="curve" smooth="yes"/>
      <point x="910" y="-142"/>
      <point x="984" y="-69"/>
      <point x="1060" y="0" type="curve"/>
      <point x="1079" y="0" type="line"/>
      <point x="615" y="1456" type="line"/>
      <point x="509" y="1456" type="line"/>
    </contour>
    <contour>
      <point x="321.80701446533203" y="514" type="line"/>
      <point x="562" y="1296.3428573608398" type="line"/>
      <point x="802.192985534668" y="514" type="line"/>
    </contour>
  </outline>
</glyph>
<glyph name="aogonek" format="1">
  <advance width="965"/>
  <unicode hex="0105"/>
  <outline>
    <contour>
      <point x="507" y="1291" type="move" name="parent_top"/>
    </contour>
    <contour>
      <point x="443" y="0" type="move" name="bottom"/>
    </contour>
    <contour>
      <point x="945" y="1600" type="move" name="top_dd"/>
    </contour>
    <contour>
      <point x="945" y="-407" type="move" name="bottom_dd"/>
    </contour>
    <contour>
      <point x="945" y="1291" type="move" name="top0315"/>
    </contour>
    <contour>
      <point x="507" y="1291" type="move" name="top"/>
    </contour>
    <contour>
      <point x="842" y="-371" type="curve"/>
      <point x="830" y="-285" type="line"/>
      <point x="812" y="-299"/>
      <point x="783" y="-318"/>
      <point x="743" y="-318" type="curve" smooth="yes"/>
      <point x="689" y="-318"/>
      <point x="672" y="-280"/>
      <point x="672" y="-234" type="curve" smooth="yes"/>
      <point x="672" y="-142"/>
      <point x="746" y="-69"/>
      <point x="822" y="0" type="curve"/>
      <point x="838" y="0" type="line"/>
      <point x="838" y="13" type="line"/>
      <point x="820" y="64"/>
      <point x="810" y="152"/>
      <point x="810" y="227" type="curve" smooth="yes"/>
      <point x="810" y="780" type="line"/>
      <point x="810" y="1015"/>
      <point x="672" y="1102"/>
      <point x="478" y="1102" type="curve" smooth="yes"/>
      <point x="268" y="1102"/>
      <point x="127" y="951"/>
      <point x="127" y="784" type="curve"/>
      <point x="238" y="783" type="line"/>
      <point x="238" y="909"/>
      <point x="334" y="998"/>
      <point x="473" y="998" type="curve" smooth="yes"/>
      <point x="620" y="998"/>
      <point x="699" y="935"/>
      <point x="699" y="782" type="curve"/>
      <point x="699" y="631" type="line"/>
      <point x="516" y="631" type="line"/>
      <point x="244" y="631"/>
      <point x="106" y="485"/>
      <point x="106" y="285" type="curve" smooth="yes"/>
      <point x="106" y="82"/>
      <point x="223" y="-21"/>
      <point x="402" y="-21" type="curve" smooth="yes"/>
      <point x="544.232904" y="-21.0"/>
      <point x="644.667876222576" y="60.015744309328"/>
      <point x="699.9687194824219" y="150.14676666259766" type="curve"/>
      <point x="702.2815379861738" y="96.67820842536287"/>
      <point x="708.7769682203754" y="40.61838102642204"/>
      <point x="719.8965301513672" y="3.5701446533203125" type="curve"/>
      <point x="626.5763714261769" y="-69.746245311253"/>
      <point x="572.9999999999999" y="-158.47400700000003"/>
      <point x="572.9999999999999" y="-245.0" type="curve" smooth="yes"/>
      <point x="573" y="-358"/>
      <point x="635" y="-415"/>
      <point x="719" y="-415" type="curve" smooth="yes"/>
      <point x="780" y="-415"/>
      <point x="818" y="-391"/>
    </contour>
    <contour>
      <point x="415.0" y="88.00000000000004" type="curve" smooth="yes"/>
      <point x="291" y="88"/>
      <point x="217" y="150"/>
      <point x="217" y="294" type="curve" smooth="yes"/>
      <point x="217" y="442"/>
      <point x="324" y="537"/>
      <point x="532" y="537" type="curve"/>
      <point x="699" y="537" type="line"/>
      <point x="699" y="273.4262008666992" type="line"/>
      <point x="657.659385560588" y="171.45453510027204"/>
      <point x="555.703067" y="88.00000000000006"/>
    </contour>
  </outline>
</glyph>
<glyph name="dcroat" format="1">
  <advance width="1033"/>
  <unicode hex="0111"/>
  <outline>
    <contour>
      <point x="952" y="1536" type="move" name="caron"/>
    </contour>
    <contour>
      <point x="531" y="0" type="move" name="bottom"/>
    </contour>
    <contour>
      <point x="477" y="1612" type="move" name="top"/>
    </contour>
    <contour>
      <point x="979" y="1600" type="move" name="top_dd"/>
    </contour>
    <contour>
      <point x="979" y="-407" type="move" name="bottom_dd"/>
    </contour>
    <contour>
      <point x="531" y="0" type="move" name="markbottom"/>
    </contour>
    <contour>
      <point x="1013" y="1612" type="move" name="top0315"/>
    </contour>
    <contour>
      <point x="736" y="1308" type="move" name="parenthesses.w2"/>
    </contour>
    <contour>
      <point x="744" y="0" type="line"/>
      <point x="848" y="0" type="line"/>
      <point x="848" y="1257" type="line"/>
      <point x="996" y="1257" type="line"/>
      <point x="996" y="1360" type="line"/>
      <point x="848" y="1360" type="line"/>
      <point x="848" y="1536" type="line"/>
      <point x="737" y="1536" type="line"/>
      <point x="737" y="1360" type="line"/>
      <point x="478" y="1360" type="line"/>
      <point x="478" y="1257" type="line"/>
      <point x="737" y="1257" type="line"/>
      <point x="737" y="942.5552673339844" type="line"/>
      <point x="677.201241458784" y="1043.037931084096"/>
      <point x="587.021232" y="1102.0"/>
      <point x="461.99999999999994" y="1102.0" type="curve" smooth="yes"/>
      <point x="245" y="1102"/>
      <point x="109" y="886"/>
      <point x="109" y="551" type="curve" smooth="yes"/>
      <point x="109" y="530" type="line"/>
      <point x="109" y="207"/>
      <point x="246" y="-20"/>
      <point x="460" y="-20" type="curve" smooth="yes"/>
      <point x="587.25526" y="-20.0"/>
      <point x="679.379122773655" y="38.886913446064"/>
      <point x="739.4681015014648" y="135.95697784423828" type="curve"/>
    </contour>
    <contour>
      <point x="221" y="530" type="curve" smooth="yes"/>
      <point x="221" y="551" type="line"/>
      <point x="221" y="801"/>
      <point x="302" y="996"/>
      <point x="484" y="996" type="curve" smooth="yes"/>
      <point x="622.8545799999999" y="996.0"/>
      <point x="697.6188502964999" y="900.1431889652"/>
      <point x="737" y="793.2960433959961" type="curve"/>
      <point x="737" y="275.7533721923828" type="line"/>
      <point x="693.4003624382719" y="166.43821773393603"/>
      <point x="614.38172" y="87.00000000000004"/>
      <point x="482.0" y="86.99999999999999" type="curve" smooth="yes"/>
      <point x="302" y="87"/>
      <point x="221" y="279"/>
    </contour>
  </outline>
</glyph>
<glyph name="Eogonek" format="1">
  <advance width="1019"/>
  <unicode hex="0118"/>
  <outline>
    <contour>
      <point x="540" y="1612" type="move" name="parent_top"/>
    </contour>
    <contour>
      <point x="540" y="10" type="move" name="bottom"/>
    </contour>
    <contour>
      <point x="999" y="1600" type="move" name="top_dd"/>
    </contour>
    <contour>
      <point x="999" y="-407" type="move" name="bottom_dd"/>
    </contour>
    <contour>
      <point x="999" y="1612" type="move" name="top0315"/>
    </contour>
    <contour>
      <point x="540" y="1612" type="move" name="top"/>
    </contour>
    <contour>
      <point x="173" y="0" type="line"/>
      <point x="773.4007186889648" y="0" type="line"/>
      <point x="682.8576863888001" y="-72.61518220319999"/>
      <point x="631.0000000000001" y="-159.87315999999998"/>
      <point x="631.0" y="-245.00000000000003" type="curve" smooth="yes"/>
      <point x="631" y="-358"/>
      <point x="693" y="-415"/>
      <point x="777" y="-415" type="curve" smooth="yes"/>
      <point x="838" y="-415"/>
      <point x="876" y="-391"/>
      <point x="900" y="-371" type="curve"/>
      <point x="888" y="-285" type="line"/>
      <point x="870" y="-299"/>
      <point x="841" y="-318"/>
      <point x="801" y="-318" type="curve" smooth="yes"/>
      <point x="747" y="-318"/>
      <point x="730" y="-280"/>
      <point x="730" y="-234" type="curve" smooth="yes"/>
      <point x="730" y="-142"/>
      <point x="804" y="-69"/>
      <point x="880" y="0" type="curve"/>
      <point x="936" y="0" type="line"/>
      <point x="936" y="107" type="line"/>
      <point x="287" y="107" type="line"/>
      <point x="287" y="697" type="line"/>
      <point x="851" y="697" type="line"/>
      <point x="851" y="804" type="line"/>
      <point x="287" y="804" type="line"/>
      <point x="287" y="1349" type="line"/>
      <point x="931" y="1349" type="line"/>
      <point x="931" y="1456" type="line"/>
      <point x="173" y="1456" type="line"/>
    </contour>
  </outline>
</glyph>
<glyph name="eogonek" format="1">
  <advance width="938"/>
  <unicode hex="0119"/>
  <outline>
    <contour>
      <point x="495" y="1291" type="move" name="parent_top"/>
    </contour>
    <contour>
      <point x="496" y="2" type="move" name="bottom"/>
    </contour>
    <contour>
      <point x="914" y="1600" type="move" name="top_dd"/>
    </contour>
    <contour>
      <point x="914" y="-407" type="move" name="bottom_dd"/>
    </contour>
    <contour>
      <point x="914" y="1291" type="move" name="top0315"/>
    </contour>
    <contour>
      <point x="495" y="1291" type="move" name="top"/>
    </contour>
    <contour>
      <point x="729" y="-329" type="curve"/>
      <point x="717" y="-243" type="line"/>
      <point x="699" y="-257"/>
      <point x="670" y="-276"/>
      <point x="630" y="-276" type="curve" smooth="yes"/>
      <point x="576" y="-276"/>
      <point x="559" y="-238"/>
      <point x="559" y="-192" type="curve" smooth="yes"/>
      <point x="559.0" y="-115.522424"/>
      <point x="610.135710383016" y="-52.174287152396005"/>
      <point x="671.048095703125" y="6.6591339111328125" type="curve"/>
      <point x="741.9373520953961" y="33.457156586032"/>
      <point x="792.1630460000001" y="77.014926"/>
      <point x="828.0" y="125.0" type="curve"/>
      <point x="769" y="199" type="line"/>
      <point x="703" y="121"/>
      <point x="622" y="83"/>
      <point x="511" y="83" type="curve" smooth="yes"/>
      <point x="329" y="83"/>
      <point x="207" y="207"/>
      <point x="207" y="470" type="curve" smooth="yes"/>
      <point x="207" y="532" type="line"/>
      <point x="849" y="532" type="line"/>
      <point x="849" y="625" type="line" smooth="yes"/>
      <point x="849" y="949"/>
      <point x="724" y="1102"/>
      <point x="487" y="1102" type="curve" smooth="yes"/>
      <point x="280" y="1102"/>
      <point x="96" y="955"/>
      <point x="96" y="594" type="curve" smooth="yes"/>
      <point x="96" y="470" type="line" smooth="yes"/>
      <point x="96" y="135"/>
      <point x="265" y="-21"/>
      <point x="506" y="-21" type="curve"/>
      <point x="516.743645" y="-21.0"/>
      <point x="527.203229914477" y="-20.715939914477"/>
      <point x="537.3862609863281" y="-20.15258026123047" type="curve"/>
      <point x="487.490058290372" y="-77.91135557710803"/>
      <point x="460.0" y="-141.02054200000003"/>
      <point x="460.0" y="-203.00000000000003" type="curve" smooth="yes"/>
      <point x="460" y="-316"/>
      <point x="522" y="-373"/>
      <point x="606" y="-373" type="curve" smooth="yes"/>
      <point x="667" y="-373"/>
      <point x="705" y="-349"/>
    </contour>
    <contour>
      <point x="487.0" y="998.0" type="curve"/>
      <point x="655" y="998"/>
      <point x="734" y="875"/>
      <point x="738" y="664" type="curve"/>
      <point x="738" y="636" type="line"/>
      <point x="207.8393783569336" y="636" type="line"/>
      <point x="218.47543404731198" y="895.9672540125721"/>
      <point x="329.26115599999997" y="998.0000000000001"/>
    </contour>
  </outline>
</glyph>
<glyph name="hbar" format="1">
  <advance width="1015"/>
  <unicode hex="0127"/>
  <outline>
    <contour>
      <point x="431" y="1611" type="move" name="parent_top"/>
    </contour>
    <contour>
      <point x="509" y="10" type="move" name="bottom"/>
    </contour>
    <contour>
      <point x="995" y="1600" type="move" name="top_dd"/>
    </contour>
    <contour>
      <point x="995" y="-407" type="move" name="bottom_dd"/>
    </contour>
    <contour>
      <point x="995" y="1611" type="move" name="top0315"/>
    </contour>
    <contour>
      <point x="431" y="1611" type="move" name="top"/>
    </contour>
    <contour>
      <point x="551.0" y="995.9999999999998" type="curve" smooth="yes"/>
      <point x="680" y="996"/>
      <point x="759" y="927"/>
      <point x="759" y="706" type="curve" smooth="yes"/>
      <point x="759" y="0" type="line"/>
      <point x="870" y="0" type="line"/>
      <point x="870" y="705" type="line" smooth="yes"/>
      <point x="870" y="990"/>
      <point x="761" y="1102"/>
      <point x="580" y="1102" type="curve" smooth="yes"/>
      <point x="454.646799" y="1102.0"/>
      <point x="353.646742023389" y="1028.234679697271"/>
      <point x="290" y="914.6667785644531" type="curve"/>
      <point x="290" y="1256" type="line"/>
      <point x="563" y="1256" type="line"/>
      <point x="563" y="1360" type="line"/>
      <point x="290" y="1360" type="line"/>
      <point x="290" y="1536" type="line"/>
      <point x="179" y="1536" type="line"/>
      <point x="179" y="1360" type="line"/>
      <point x="45" y="1360" type="line"/>
      <point x="45" y="1256" type="line"/>
      <point x="179" y="1256" type="line"/>
      <point x="179" y="0" type="line"/>
      <point x="290" y="0" type="line"/>
      <point x="290" y="753.2088241577148" type="line"/>
      <point x="330.31208417976495" y="879.1170855455659"/>
      <point x="418.675848" y="995.9999999999999"/>
    </contour>
  </outline>
</glyph>
<glyph name="eng" format="1">
  <advance width="1001"/>
  <unicode hex="014B"/>
  <outline>
    <contour>
      <point x="503" y="1290" type="move" name="top"/>
    </contour>
    <contour>
      <point x="498" y="10" type="move" name="bottom"/>
    </contour>
    <contour>
      <point x="671" y="-306" type="move" name="parenthesses.w1"/>
    </contour>
    <contour>
      <point x="498" y="10" type="move" name="markbottom"/>
    </contour>
    <contour>
      <point x="981" y="1290" type="move" name="top0315"/>
    </contour>
    <contour>
      <point x="849" y="-89" type="curve" smooth="yes"/>
      <point x="849" y="660" type="line" smooth="yes"/>
      <point x="849" y="973"/>
      <point x="737" y="1102"/>
      <point x="546" y="1102" type="curve" smooth="yes"/>
      <point x="413.86454000000003" y="1102.0"/>
      <point x="317.37475518443205" y="1027.7381766991"/>
      <point x="259.1852264404297" y="905.184455871582" type="curve"/>
      <point x="250" y="1082" type="line"/>
      <point x="151" y="1082" type="line"/>
      <point x="151" y="0" type="line"/>
      <point x="262" y="0" type="line"/>
      <point x="262" y="788.7790832519531" type="line"/>
      <point x="301.6243747235" y="908.56596692265"/>
      <point x="381.21227" y="996.0"/>
      <point x="518.0" y="995.9999999999998" type="curve" smooth="yes"/>
      <point x="651" y="996"/>
      <point x="738" y="920"/>
      <point x="738" y="659" type="curve" smooth="yes"/>
      <point x="738" y="-89" type="line" smooth="yes"/>
      <point x="738" y="-244"/>
      <point x="684" y="-329"/>
      <point x="591" y="-329" type="curve" smooth="yes"/>
      <point x="566" y="-329"/>
      <point x="518" y="-321"/>
      <point x="500" y="-313" type="curve"/>
      <point x="488" y="-418" type="line"/>
      <point x="523" y="-431"/>
      <point x="553" y="-437"/>
      <point x="591" y="-437" type="curve" smooth="yes"/>
      <point x="752" y="-437"/>
      <point x="849" y="-314"/>
    </contour>
  </outline>
</glyph>
<glyph name="OE" format="1">
  <advance width="1653"/>
  <unicode hex="0152"/>
  <outline>
    <contour>
      <point x="822" y="1617" type="move" name="top"/>
    </contour>
    <contour>
      <point x="822" y="-1" type="move" name="bottom"/>
    </contour>
    <contour>
      <point x="1633" y="1600" type="move" name="top_dd"/>
    </contour>
    <contour>
      <point x="1633" y="-407" type="move" name="bottom_dd"/>
    </contour>
    <contour>
      <point x="1633" y="1617" type="move" name="top0315"/>
    </contour>
    <contour>
      <point x="1533" y="107" type="line"/>
      <point x="884" y="107" type="line"/>
      <point x="884" y="697" type="line"/>
      <point x="1447" y="697" type="line"/>
      <point x="1447" y="804" type="line"/>
      <point x="884" y="804" type="line"/>
      <point x="884" y="1349" type="line"/>
      <point x="1528" y="1349" type="line"/>
      <point x="1528" y="1456" type="line"/>
      <point x="824" y="1456" type="line"/>
      <point x="744" y="1467"/>
      <point x="655" y="1476"/>
      <point x="564" y="1476" type="curve" smooth="yes"/>
      <point x="294" y="1476"/>
      <point x="110" y="1233"/>
      <point x="110" y="880" type="curve"/>
      <point x="110" y="576" type="line"/>
      <point x="110" y="223"/>
      <point x="296" y="-21"/>
      <point x="565" y="-21" type="curve" smooth="yes"/>
      <point x="656" y="-21"/>
      <point x="744" y="-10"/>
      <point x="824" y="0" type="curve"/>
      <point x="1533" y="0" type="line"/>
    </contour>
    <contour>
      <point x="222" y="576" type="curve"/>
      <point x="222" y="882" type="line"/>
      <point x="222" y="1188"/>
      <point x="355" y="1373"/>
      <point x="564" y="1373" type="curve" smooth="yes"/>
      <point x="635.790234" y="1373.0"/>
      <point x="705.1969148966241" y="1368.232893793248"/>
      <point x="769" y="1358.6977310180664" type="curve"/>
      <point x="769" y="97.15592193603516" type="line"/>
      <point x="705.584776792336" y="87.717633584672"/>
      <point x="634.11298" y="83.0"/>
      <point x="565.0" y="83.0" type="curve" smooth="yes"/>
      <point x="356" y="83"/>
      <point x="222" y="273"/>
    </contour>
  </outline>
</glyph>
<glyph name="oe" format="1">
  <advance width="1624"/>
  <unicode hex="0153"/>
  <outline>
    <contour>
      <point x="824" y="1290" type="move" name="top"/>
    </contour>
    <contour>
      <point x="824" y="-5" type="move" name="bottom"/>
    </contour>
    <contour>
      <point x="1604" y="1600" type="move" name="top_dd"/>
    </contour>
    <contour>
      <point x="1604" y="-407" type="move" name="bottom_dd"/>
    </contour>
    <contour>
      <point x="1604" y="1290" type="move" name="top0315"/>
    </contour>
    <contour>
      <point x="1518" y="118" type="curve"/>
      <point x="1471" y="203" type="line"/>
      <point x="1413" y="131"/>
      <point x="1330" y="83"/>
      <point x="1201" y="83" type="curve" smooth="yes"/>
      <point x="1023" y="83"/>
      <point x="912" y="274"/>
      <point x="912" y="510" type="curve" smooth="yes"/>
      <point x="912" y="537" type="line"/>
      <point x="1547" y="537" type="line"/>
      <point x="1547" y="639" type="line" smooth="yes"/>
      <point x="1547" y="918"/>
      <point x="1416" y="1102"/>
      <point x="1185" y="1102" type="curve" smooth="yes"/>
      <point x="1047.223698" y="1102.668817"/>
      <point x="921.972249025692" y="1003.138809794464"/>
      <point x="854.1214599609375" y="842.5901031494141" type="curve"/>
      <point x="789.564360433625" y="1001.59480841825"/>
      <point x="666.518035" y="1102.0"/>
      <point x="502.0" y="1102.0" type="curve" smooth="yes"/>
      <point x="256" y="1102"/>
      <point x="100" y="872"/>
      <point x="100" y="557" type="curve"/>
      <point x="100" y="525" type="line"/>
      <point x="100" y="210"/>
      <point x="256" y="-20"/>
      <point x="503" y="-20" type="curve" smooth="yes"/>
      <point x="665.791912" y="-20.0"/>
      <point x="788.080549065266" y="79.10375781903001"/>
      <point x="852.895378112793" y="236.31316375732422" type="curve"/>
      <point x="919.793328642304" y="78.91526572799202"/>
      <point x="1046.138608" y="-19.999999999999957"/>
      <point x="1200.9999999999998" y="-19.99999999999997" type="curve"/>
      <point x="1356" y="-20"/>
      <point x="1457" y="40"/>
    </contour>
    <contour>
      <point x="1185.0" y="998.0" type="curve"/>
      <point x="1347" y="998"/>
      <point x="1436" y="850"/>
      <point x="1436" y="670" type="curve"/>
      <point x="1436" y="640" type="line"/>
      <point x="915.8195114135742" y="640" type="line"/>
      <point x="936.6074487690989" y="843.695516290094"/>
      <point x="1040.521434" y="998.0"/>
    </contour>
    <contour>
      <point x="211" y="557" type="line"/>
      <point x="211" y="789"/>
      <point x="310" y="998"/>
      <point x="502" y="998" type="curve" smooth="yes"/>
      <point x="695" y="998"/>
      <point x="794" y="789"/>
      <point x="794" y="557" type="curve"/>
      <point x="794" y="525" type="line"/>
      <point x="794" y="288"/>
      <point x="695" y="83"/>
      <point x="503" y="83" type="curve" smooth="yes"/>
      <point x="310" y="83"/>
      <point x="211" y="288"/>
      <point x="211" y="525" type="curve"/>
    </contour>
  </outline>
</glyph>
<glyph name="Uogonek" format="1">
  <advance width="1168"/>
  <unicode hex="0172"/>
  <outline>
    <contour>
      <point x="591" y="1606" type="move" name="parent_top"/>
    </contour>
    <contour>
      <point x="585" y="0" type="move" name="bottom"/>
    </contour>
    <contour>
      <point x="1148" y="1600" type="move" name="top_dd"/>
    </contour>
    <contour>
      <point x="1148" y="-407" type="move" name="bottom_dd"/>
    </contour>
    <contour>
      <point x="1148" y="1606" type="move" name="top0315"/>
    </contour>
    <contour>
      <point x="591" y="1606" type="move" name="top"/>
    </contour>
    <contour>
      <point x="828" y="-332" type="curve"/>
      <point x="816" y="-246" type="line"/>
      <point x="798" y="-260"/>
      <point x="769" y="-279"/>
      <point x="729" y="-279" type="curve" smooth="yes"/>
      <point x="675" y="-279"/>
      <point x="658" y="-241"/>
      <point x="658" y="-195" type="curve" smooth="yes"/>
      <point x="658.0" y="-114.489328"/>
      <point x="714.671272995744" y="-48.529388255664"/>
      <point x="779.7601470947266" y="12.929283142089844" type="curve"/>
      <point x="920.739162601405" y="68.955788649805"/>
      <point x="1018.0" y="198.353608"/>
      <point x="1017.9999999999999" y="430.0" type="curve"/>
      <point x="1018" y="1456" type="line"/>
      <point x="904" y="1456" type="line"/>
      <point x="904" y="430" type="line" smooth="yes"/>
      <point x="904" y="176"/>
      <point x="772" y="86"/>
      <point x="585" y="86" type="curve" smooth="yes"/>
      <point x="400" y="86"/>
      <point x="267" y="176"/>
      <point x="267" y="430" type="curve" smooth="yes"/>
      <point x="267" y="1456" type="line"/>
      <point x="153" y="1456" type="line"/>
      <point x="153" y="430" type="line"/>
      <point x="153" y="102"/>
      <point x="340" y="-21"/>
      <point x="585" y="-21" type="curve" smooth="yes"/>
      <point x="603.727744" y="-21.0"/>
      <point x="622.189240542208" y="-20.238408434688"/>
      <point x="640.310173034668" y="-18.6697998046875" type="curve"/>
      <point x="587.9332429328" y="-77.63984261919998"/>
      <point x="559.0" y="-142.41443999999996"/>
      <point x="559.0" y="-205.99999999999994" type="curve" smooth="yes"/>
      <point x="559" y="-319"/>
      <point x="621" y="-376"/>
      <point x="705" y="-376" type="curve" smooth="yes"/>
      <point x="766" y="-376"/>
      <point x="804" y="-352"/>
    </contour>
  </outline>
</glyph>
<glyph name="uogonek" format="1">
  <advance width="986"/>
  <unicode hex="0173"/>
  <outline>
    <contour>
      <point x="501" y="1292" type="move" name="parent_top"/>
    </contour>
    <contour>
      <point x="966" y="1600" type="move" name="top_dd"/>
    </contour>
    <contour>
      <point x="966" y="-407" type="move" name="bottom_dd"/>
    </contour>
    <contour>
      <point x="966" y="1292" type="move" name="top0315"/>
    </contour>
    <contour>
      <point x="492" y="0" type="move" name="bottom"/>
    </contour>
    <contour>
      <point x="501" y="1292" type="move" name="top"/>
    </contour>
    <contour>
      <point x="853" y="-371" type="curve"/>
      <point x="841" y="-285" type="line"/>
      <point x="823" y="-299"/>
      <point x="794" y="-318"/>
      <point x="754" y="-318" type="curve" smooth="yes"/>
      <point x="700" y="-318"/>
      <point x="683" y="-280"/>
      <point x="683" y="-234" type="curve" smooth="yes"/>
      <point x="683" y="-142"/>
      <point x="757" y="-69"/>
      <point x="833" y="0" type="curve"/>
      <point x="838" y="0" type="line"/>
      <point x="838" y="1082" type="line"/>
      <point x="727" y="1082" type="line"/>
      <point x="727" y="291.6565170288086" type="line"/>
      <point x="692.95971390048" y="172.60625763392"/>
      <point x="611.9884079999999" y="87.0"/>
      <point x="458.0" y="87.00000000000003" type="curve" smooth="yes"/>
      <point x="349" y="87"/>
      <point x="256" y="158"/>
      <point x="256" y="387" type="curve"/>
      <point x="256" y="1082" type="line"/>
      <point x="145" y="1082" type="line"/>
      <point x="145" y="389" type="line"/>
      <point x="145" y="94"/>
      <point x="266" y="-20"/>
      <point x="444" y="-20" type="curve" smooth="yes"/>
      <point x="580.294039" y="-20.0"/>
      <point x="672.432341872147" y="36.530592112729"/>
      <point x="728.9165725708008" y="130.2143325805664" type="curve"/>
      <point x="730.9423065185547" y="3.605926513671875" type="line"/>
      <point x="637.5938836618969" y="-69.717245630333"/>
      <point x="584.0" y="-158.45986699999997"/>
      <point x="584.0" y="-244.99999999999997" type="curve" smooth="yes"/>
      <point x="584" y="-358"/>
      <point x="646" y="-415"/>
      <point x="730" y="-415" type="curve" smooth="yes"/>
      <point x="791" y="-415"/>
      <point x="829" y="-391"/>
    </contour>
  </outline>
</glyph>
<glyph name="Bhook" format="1">
  <advance width="1257"/>
  <unicode hex="0181"/>
  <outline>
    <contour>
      <point x="41" y="1172" type="curve" smooth="yes"/>
      <point x="41" y="1134"/>
      <point x="47" y="1093"/>
      <point x="57" y="1058" type="curve"/>
      <point x="149" y="1065" type="line"/>
      <point x="143" y="1085"/>
      <point x="138" y="1120"/>
      <point x="138" y="1148" type="curve" smooth="yes"/>
      <point x="138.0" y="1277.34168"/>
      <point x="201.353449222144" y="1348.279398998336"/>
      <point x="332" y="1348.9889755249023" type="curve"/>
      <point x="332" y="0" type="line"/>
      <point x="748" y="0" type="line"/>
      <point x="984" y="0"/>
      <point x="1142" y="145"/>
      <point x="1142" y="411" type="curve" smooth="yes"/>
      <point x="1142.0" y="579.835068"/>
      <point x="1050.072195044672" y="723.13463462352"/>
      <point x="904.6964263916016" y="760.0047988891602" type="curve"/>
      <point x="1026.920624005712" y="809.31589999762"/>
      <point x="1100.0" y="926.93308"/>
      <point x="1100.0000000000002" y="1075.0" type="curve"/>
      <point x="1100" y="1340"/>
      <point x="949" y="1456"/>
      <point x="700" y="1456" type="curve"/>
      <point x="332" y="1456" type="line"/>
      <point x="332" y="1455.9880142211914" type="line"/>
      <point x="145" y="1456"/>
      <point x="41" y="1357"/>
    </contour>
    <contour>
      <point x="446" y="1349" type="line"/>
      <point x="700" y="1349" type="line"/>
      <point x="890" y="1349"/>
      <point x="985" y="1262"/>
      <point x="985" y="1078" type="curve"/>
      <point x="985" y="899"/>
      <point x="883" y="805"/>
      <point x="710" y="805" type="curve"/>
      <point x="446" y="805" type="line"/>
    </contour>
    <contour>
      <point x="1027" y="409" type="curve" smooth="yes"/>
      <point x="1027" y="221"/>
      <point x="923" y="107"/>
      <point x="748" y="107" type="curve" smooth="yes"/>
      <point x="446" y="107" type="line"/>
      <point x="446" y="700" type="line"/>
      <point x="756" y="700" type="line" smooth="yes"/>
      <point x="942" y="700"/>
      <point x="1027" y="573"/>
    </contour>
  </outline>
</glyph>
<glyph name="btopbar" format="1">
  <advance width="996"/>
  <unicode hex="0183"/>
  <outline>
    <contour>
      <point x="148" y="0" type="line"/>
      <point x="251" y="0" type="line"/>
      <point x="256.36881256103516" y="140.9312744140625" type="line"/>
      <point x="316.67607295978405" y="40.90104249926402"/>
      <point x="409.99851800000005" y="-19.999999999999986"/>
      <point x="540.0" y="-20.0" type="curve" smooth="yes"/>
      <point x="761" y="-20"/>
      <point x="888" y="207"/>
      <point x="888" y="530" type="curve" smooth="yes"/>
      <point x="888" y="551" type="line"/>
      <point x="888" y="886"/>
      <point x="761" y="1102"/>
      <point x="538" y="1102" type="curve" smooth="yes"/>
      <point x="410.753968" y="1102.0"/>
      <point x="319.253176139612" y="1040.920754712896"/>
      <point x="259" y="937.1511306762695" type="curve"/>
      <point x="259" y="1432" type="line"/>
      <point x="745" y="1432" type="line"/>
      <point x="745" y="1536" type="line"/>
      <point x="148" y="1536" type="line"/>
    </contour>
    <contour>
      <point x="515.0" y="996.0" type="curve" smooth="yes"/>
      <point x="701" y="996"/>
      <point x="776" y="801"/>
      <point x="776" y="551" type="curve" smooth="yes"/>
      <point x="776" y="530" type="line"/>
      <point x="776" y="279"/>
      <point x="697" y="87"/>
      <point x="517" y="87" type="curve" smooth="yes"/>
      <point x="382.913541" y="87.0"/>
      <point x="301.07566623844303" y="172.61213802925602"/>
      <point x="259" y="283.91375732421875" type="curve"/>
      <point x="259" y="782.0855178833008" type="line"/>
      <point x="297.198039466066" y="893.348092384532"/>
      <point x="372.08065500000004" y="996.0"/>
    </contour>
  </outline>
</glyph>
<glyph name="tonesix" format="1">
  <advance width="1049"/>
  <unicode hex="0185"/>
  <outline>
    <contour>
      <point x="950" y="530" type="curve" smooth="yes"/>
      <point x="950" y="551" type="line"/>
      <point x="950" y="886"/>
      <point x="823" y="1102"/>
      <point x="600" y="1102" type="curve" smooth="yes"/>
      <point x="472.753968" y="1102.0"/>
      <point x="381.253176139612" y="1040.920754712896"/>
      <point x="321" y="937.1511306762695" type="curve"/>
      <point x="321" y="1536" type="line"/>
      <point x="210" y="1536" type="line"/>
      <point x="92" y="1320" type="line"/>
      <point x="92" y="1262" type="line"/>
      <point x="210" y="1047" type="line"/>
      <point x="210" y="0" type="line"/>
      <point x="313" y="0" type="line"/>
      <point x="318.3647155761719" y="140.82378387451172" type="line"/>
      <point x="378.57425752231995" y="40.85673946598399"/>
      <point x="471.63383999999996" y="-20.0"/>
      <point x="601.0" y="-19.99999999999997" type="curve" smooth="yes"/>
      <point x="822" y="-20"/>
      <point x="950" y="207"/>
    </contour>
    <contour>
      <point x="577.0" y="996.0" type="curve" smooth="yes"/>
      <point x="763" y="996"/>
      <point x="838" y="801"/>
      <point x="838" y="551" type="curve" smooth="yes"/>
      <point x="838" y="530" type="line"/>
      <point x="838" y="279"/>
      <point x="759" y="87"/>
      <point x="579" y="87" type="curve" smooth="yes"/>
      <point x="444.913541" y="87.0"/>
      <point x="363.07566623844303" y="172.61213802925602"/>
      <point x="321" y="283.91375732421875" type="curve"/>
      <point x="321" y="782.0855178833008" type="line"/>
      <point x="359.198039466066" y="893.348092384532"/>
      <point x="434.08065500000004" y="996.0"/>
    </contour>
  </outline>
</glyph>
<glyph name="Chook" format="1">
  <advance width="1192"/>
  <unicode hex="0187"/>
  <outline>
    <contour>
      <point x="1198" y="1418" type="curve" smooth="yes"/>
      <point x="1220" y="1418"/>
      <point x="1248" y="1412"/>
      <point x="1265" y="1405" type="curve"/>
      <point x="1271" y="1506" type="line"/>
      <point x="1241" y="1518"/>
      <point x="1206" y="1525"/>
      <point x="1175" y="1525" type="curve" smooth="yes"/>
      <point x="1051.908044" y="1525.0"/>
      <point x="982.982416812287" y="1448.420017886077"/>
      <point x="959.3803253173828" y="1305.5516738891602" type="curve"/>
      <point x="883.870805704984" y="1422.270458723295"/>
      <point x="761.703928" y="1476.0"/>
      <point x="601.0000000000001" y="1475.9999999999998" type="curve" smooth="yes"/>
      <point x="312" y="1476"/>
      <point x="137" y="1254"/>
      <point x="137" y="889" type="curve"/>
      <point x="137" y="577" type="line"/>
      <point x="137" y="205"/>
      <point x="312" y="-21"/>
      <point x="592" y="-21" type="curve" smooth="yes"/>
      <point x="866" y="-21"/>
      <point x="1025" y="128"/>
      <point x="1045" y="454" type="curve"/>
      <point x="930" y="454" type="line"/>
      <point x="908" y="176"/>
      <point x="807" y="86"/>
      <point x="592" y="86" type="curve" smooth="yes"/>
      <point x="367" y="86"/>
      <point x="252" y="280"/>
      <point x="252" y="577" type="curve" smooth="yes"/>
      <point x="252" y="891" type="line" smooth="yes"/>
      <point x="252" y="1191"/>
      <point x="376" y="1369"/>
      <point x="601" y="1369" type="curve" smooth="yes"/>
      <point x="807" y="1369"/>
      <point x="910" y="1267"/>
      <point x="930" y="1000" type="curve"/>
      <point x="1045" y="1000" type="line"/>
      <point x="1045" y="1177" type="line" smooth="yes"/>
      <point x="1045" y="1340"/>
      <point x="1092" y="1418"/>
    </contour>
  </outline>
</glyph>
<glyph name="Epsilon1" format="1">
  <advance width="1105"/>
  <unicode hex="0190"/>
  <outline>
    <contour>
      <point x="536" y="1617" type="move" name="top"/>
    </contour>
    <contour>
      <point x="536" y="-1" type="move" name="bottom"/>
    </contour>
    <contour>
      <point x="1085" y="1617" type="move" name="top0315"/>
    </contour>
    <contour>
      <point x="540" y="797" type="line" smooth="yes"/>
      <point x="321" y="797"/>
      <point x="234" y="908"/>
      <point x="234" y="1077" type="curve" smooth="yes"/>
      <point x="234" y="1244"/>
      <point x="327" y="1369"/>
      <point x="545" y="1369" type="curve" smooth="yes"/>
      <point x="710" y="1369"/>
      <point x="840" y="1254"/>
      <point x="840" y="1075" type="curve"/>
      <point x="954" y="1075" type="line"/>
      <point x="954" y="1323"/>
      <point x="766" y="1476"/>
      <point x="545" y="1476" type="curve" smooth="yes"/>
      <point x="287" y="1476"/>
      <point x="119" y="1337"/>
      <point x="119" y="1073" type="curve" smooth="yes"/>
      <point x="119.0" y="917.485173"/>
      <point x="198.72323842900897" y="800.5940267295821"/>
      <point x="335.17208099365234" y="744.981689453125" type="curve"/>
      <point x="180.98326926863191" y="693.200862045972"/>
      <point x="99.9999999999999" y="573.370803"/>
      <point x="99.99999999999991" y="395.9999999999999" type="curve" smooth="yes"/>
      <point x="100" y="106"/>
      <point x="295" y="-21"/>
      <point x="545" y="-21" type="curve" smooth="yes"/>
      <point x="752" y="-21"/>
      <point x="972" y="109"/>
      <point x="972" y="404" type="curve"/>
      <point x="857" y="404" type="line"/>
      <point x="857" y="222"/>
      <point x="733" y="86"/>
      <point x="545" y="86" type="curve" smooth="yes"/>
      <point x="339" y="86"/>
      <point x="215" y="195"/>
      <point x="215" y="392" type="curve" smooth="yes"/>
      <point x="215" y="601"/>
      <point x="327" y="689"/>
      <point x="540" y="689" type="curve" smooth="yes"/>
      <point x="685" y="689" type="line"/>
      <point x="685" y="797" type="line"/>
    </contour>
  </outline>
</glyph>
<glyph name="Gamma1" format="1">
  <advance width="1099"/>
  <unicode hex="0194"/>
  <outline>
    <contour>
      <point x="723" y="-185" type="curve" smooth="yes"/>
      <point x="723" y="-95"/>
      <point x="672" y="3"/>
      <point x="605" y="187" type="curve" smooth="yes"/>
      <point x="601.4572067260742" y="197.3114776611328" type="line"/>
      <point x="1057" y="1456" type="line"/>
      <point x="930" y="1456" type="line"/>
      <point x="547.7625579833984" y="353.59246826171875" type="line"/>
      <point x="169" y="1456" type="line"/>
      <point x="42" y="1456" type="line"/>
      <point x="495.5165252685547" y="202.91016387939453" type="line"/>
      <point x="490" y="187" type="line" smooth="yes"/>
      <point x="422" y="4"/>
      <point x="377" y="-95"/>
      <point x="377" y="-185" type="curve" smooth="yes"/>
      <point x="377" y="-312"/>
      <point x="441" y="-384"/>
      <point x="549" y="-384" type="curve" smooth="yes"/>
      <point x="657" y="-384"/>
      <point x="723" y="-312"/>
    </contour>
    <contour>
      <point x="486" y="-185" type="curve" smooth="yes"/>
      <point x="486.0" y="-131.797454"/>
      <point x="506.908667781216" y="-59.42862920055198"/>
      <point x="549.539176940918" y="54.86993408203125" type="curve"/>
      <point x="593.633498716716" y="-62.52350721273599"/>
      <point x="612.0" y="-130.758516"/>
      <point x="612.0" y="-185.0" type="curve" smooth="yes"/>
      <point x="612" y="-241"/>
      <point x="594" y="-277"/>
      <point x="549" y="-277" type="curve" smooth="yes"/>
      <point x="506" y="-277"/>
      <point x="486" y="-242"/>
    </contour>
  </outline>
</glyph>
<glyph name="hv" format="1">
  <advance width="1501"/>
  <unicode hex="0195"/>
  <outline>
    <contour>
      <point x="550" y="1102" type="curve" smooth="yes"/>
      <point x="424.646799" y="1102.0"/>
      <point x="323.646742023389" y="1028.234679697271"/>
      <point x="260" y="914.6667785644531" type="curve"/>
      <point x="260" y="1536" type="line"/>
      <point x="149" y="1536" type="line"/>
      <point x="149" y="0" type="line"/>
      <point x="260" y="0" type="line"/>
      <point x="260" y="753.2088241577148" type="line"/>
      <point x="300.31208417976495" y="879.1170855455659"/>
      <point x="388.675848" y="995.9999999999999"/>
      <point x="521.0" y="995.9999999999998" type="curve" smooth="yes"/>
      <point x="680" y="996"/>
      <point x="729" y="886"/>
      <point x="729" y="698" type="curve" smooth="yes"/>
      <point x="729" y="455" type="line" smooth="yes"/>
      <point x="729" y="118"/>
      <point x="848" y="-21"/>
      <point x="1042" y="-21" type="curve" smooth="yes"/>
      <point x="1236" y="-21"/>
      <point x="1355" y="118"/>
      <point x="1355" y="455" type="curve" smooth="yes"/>
      <point x="1355" y="1082" type="line"/>
      <point x="1243" y="1082" type="line"/>
      <point x="1243" y="453" type="line" smooth="yes"/>
      <point x="1243" y="179"/>
      <point x="1151" y="86"/>
      <point x="1042" y="86" type="curve" smooth="yes"/>
      <point x="933" y="86"/>
      <point x="840" y="179"/>
      <point x="840" y="453" type="curve" smooth="yes"/>
      <point x="840" y="699" type="line" smooth="yes"/>
      <point x="840" y="932"/>
      <point x="773" y="1102"/>
    </contour>
  </outline>
</glyph>
<glyph name="khook" format="1">
  <advance width="889"/>
  <unicode hex="0199"/>
  <outline>
    <contour>
      <point x="402" y="1462" type="curve" smooth="yes"/>
      <point x="423" y="1462"/>
      <point x="450" y="1455"/>
      <point x="466" y="1449" type="curve"/>
      <point x="471" y="1539" type="line"/>
      <point x="443" y="1550"/>
      <point x="411" y="1557"/>
      <point x="382" y="1557" type="curve" smooth="yes"/>
      <point x="239" y="1557"/>
      <point x="149" y="1442"/>
      <point x="149" y="1233" type="curve" smooth="yes"/>
      <point x="149" y="0" type="line"/>
      <point x="260" y="0" type="line"/>
      <point x="260" y="415.55555725097656" type="line"/>
      <point x="373.62512969970703" y="541.8057022094727" type="line"/>
      <point x="730" y="0" type="line"/>
      <point x="862" y="0" type="line"/>
      <point x="447.00337982177734" y="626.7295913696289" type="line"/>
      <point x="827" y="1082" type="line"/>
      <point x="688" y="1082" type="line"/>
      <point x="353" y="678" type="line"/>
      <point x="260" y="559.8648681640625" type="line"/>
      <point x="260" y="1233" type="line" smooth="yes"/>
      <point x="260" y="1386"/>
      <point x="303" y="1462"/>
    </contour>
  </outline>
</glyph>
<glyph name="lambdabar" format="1">
  <advance width="988"/>
  <unicode hex="019B"/>
  <outline>
    <contour>
      <point x="829" y="1612" type="move" name="top0315"/>
    </contour>
    <contour>
      <point x="931" y="-1" type="curve"/>
      <point x="925" y="102" type="line"/>
      <point x="916" y="99"/>
      <point x="899" y="97"/>
      <point x="890" y="97" type="curve" smooth="yes"/>
      <point x="838" y="97"/>
      <point x="813" y="143"/>
      <point x="785" y="236" type="curve" smooth="yes"/>
      <point x="469.22242736816406" y="1224.0782012939453" type="line"/>
      <point x="603" y="1286" type="line"/>
      <point x="603" y="1398" type="line"/>
      <point x="438.16548919677734" y="1321.7028350830078" type="line"/>
      <point x="407.796080363946" y="1416.032301979276"/>
      <point x="358.69641099999996" y="1518.0"/>
      <point x="234.0" y="1518.0" type="curve"/>
      <point x="215" y="1518"/>
      <point x="181" y="1513"/>
      <point x="167" y="1507" type="curve"/>
      <point x="171" y="1410" type="line"/>
      <point x="180" y="1412"/>
      <point x="202" y="1414"/>
      <point x="210" y="1414" type="curve" smooth="yes"/>
      <point x="274.707916" y="1414.0"/>
      <point x="303.19511925724" y="1361.479966522998"/>
      <point x="332.51383209228516" y="1272.7997207641602" type="curve"/>
      <point x="199" y="1211" type="line"/>
      <point x="199" y="1099" type="line"/>
      <point x="364.58707427978516" y="1175.6455001831055" type="line"/>
      <point x="406.4977111816406" y="1049.0122985839844" type="line"/>
      <point x="60" y="0" type="line"/>
      <point x="183" y="0" type="line"/>
      <point x="461.860107421875" y="877.3891296386719" type="line"/>
      <point x="677" y="198" type="line" smooth="yes"/>
      <point x="720" y="67"/>
      <point x="763" y="-12"/>
      <point x="873" y="-12" type="curve" smooth="yes"/>
      <point x="894" y="-12"/>
      <point x="919" y="-6"/>
    </contour>
  </outline>
</glyph>
<glyph name="mcapturn" format="1">
  <advance width="1623"/>
  <unicode hex="019C"/>
  <outline>
    <contour>
      <point x="1342" y="0" type="line"/>
      <point x="1449" y="0" type="line"/>
      <point x="1449" y="1456" type="line"/>
      <point x="1338" y="1456" type="line"/>
      <point x="1338" y="340.9267044067383" type="line"/>
      <point x="1311.24607989064" y="195.871499284244"/>
      <point x="1232.6147799999999" y="86.0"/>
      <point x="1068.9999999999998" y="86.00000000000003" type="curve" smooth="yes"/>
      <point x="960" y="86"/>
      <point x="867" y="179"/>
      <point x="867" y="453" type="curve"/>
      <point x="867" y="1456" type="line"/>
      <point x="756" y="1456" type="line"/>
      <point x="756" y="455" type="line"/>
      <point x="756.0" y="421.566203"/>
      <point x="757.123305339321" y="390.15621231381795"/>
      <point x="759.3126754760742" y="360.7820739746094" type="curve"/>
      <point x="736.18012314146" y="206.02743093854096"/>
      <point x="658.00951" y="85.99999999999997"/>
      <point x="487.0" y="85.99999999999999" type="curve" smooth="yes"/>
      <point x="378" y="86"/>
      <point x="286" y="179"/>
      <point x="286" y="453" type="curve" smooth="yes"/>
      <point x="286" y="1456" type="line"/>
      <point x="175" y="1456" type="line"/>
      <point x="175" y="455" type="line" smooth="yes"/>
      <point x="175" y="109"/>
      <point x="294" y="-21"/>
      <point x="473" y="-21" type="curve" smooth="yes"/>
      <point x="633.98075" y="-21.0"/>
      <point x="734.424522830366" y="66.07373428509"/>
      <point x="785.545051574707" y="203.92913818359375" type="curve"/>
      <point x="831.7878262165481" y="43.488182279556014"/>
      <point x="929.1465240000001" y="-21.00000000000003"/>
      <point x="1055.0" y="-21.000000000000114" type="curve" smooth="yes"/>
      <point x="1190.9685" y="-21.0"/>
      <point x="1283.4545576022279" y="41.11777485395999"/>
      <point x="1339.5366668701172" y="143.48924255371094" type="curve"/>
    </contour>
  </outline>
</glyph>
<glyph name="Ohorn" format="1">
  <advance width="1237"/>
  <unicode hex="01A0"/>
  <outline>
    <contour>
      <point x="618" y="1608" type="move" name="top"/>
    </contour>
    <contour>
      <point x="601" y="0" type="move" name="bottom"/>
    </contour>
    <contour>
      <point x="1217" y="1608" type="move" name="top0315"/>
    </contour>
    <contour>
      <point x="1085" y="651" type="curve"/>
      <point x="1085" y="805" type="line"/>
      <point x="1085.0" y="955.699696"/>
      <point x="1059.351482035728" y="1086.61729037862"/>
      <point x="1012.2874221801758" y="1191.7945022583008" type="curve"/>
      <point x="1166.039897028149" y="1222.06301822971"/>
      <point x="1235.0" y="1352.852326"/>
      <point x="1234.9999999999998" y="1567.0" type="curve"/>
      <point x="1133" y="1567" type="line"/>
      <point x="1133.0" y="1395.585302"/>
      <point x="1093.082268413555" y="1292.4742780479169"/>
      <point x="963.1188049316406" y="1281.0735626220703" type="curve"/>
      <point x="879.354335472536" y="1405.574849973817"/>
      <point x="756.101532" y="1476.0"/>
      <point x="605.0" y="1476.0" type="curve" smooth="yes"/>
      <point x="320" y="1476"/>
      <point x="127" y="1213"/>
      <point x="127" y="805" type="curve"/>
      <point x="127" y="651" type="line"/>
      <point x="127" y="242"/>
      <point x="321" y="-20"/>
      <point x="607" y="-20" type="curve" smooth="yes"/>
      <point x="898" y="-20"/>
      <point x="1085" y="242"/>
    </contour>
    <contour>
      <point x="972" y="651" type="line"/>
      <point x="972" y="305"/>
      <point x="839" y="90"/>
      <point x="607" y="90" type="curve" smooth="yes"/>
      <point x="382" y="90"/>
      <point x="241" y="305"/>
      <point x="241" y="651" type="curve" smooth="yes"/>
      <point x="241" y="807" type="line" smooth="yes"/>
      <point x="241" y="1150"/>
      <point x="380" y="1366"/>
      <point x="605" y="1366" type="curve" smooth="yes"/>
      <point x="837" y="1366"/>
      <point x="972" y="1150"/>
      <point x="972" y="807" type="curve"/>
    </contour>
  </outline>
</glyph>
<glyph name="ohorn" format="1">
  <advance width="1007"/>
  <unicode hex="01A1"/>
  <outline>
    <contour>
      <point x="509" y="1290" type="move" name="top"/>
    </contour>
    <contour>
      <point x="509" y="-10" type="move" name="bottom"/>
    </contour>
    <contour>
      <point x="987" y="1290" type="move" name="top0315"/>
    </contour>
    <contour>
      <point x="910" y="525" type="curve"/>
      <point x="910" y="557" type="line"/>
      <point x="910.0" y="680.463305"/>
      <point x="885.574030321369" y="790.8687016812349"/>
      <point x="840.8767013549805" y="879.4752655029297" type="curve"/>
      <point x="972.955227908297" y="908.632260252166"/>
      <point x="1019.0" y="1021.8887460000001"/>
      <point x="1019.0" y="1198.0" type="curve"/>
      <point x="925" y="1198" type="line"/>
      <point x="925.0" y="1058.443024"/>
      <point x="905.700180617728" y="969.7673900078079"/>
      <point x="790.6853713989258" y="959.0944747924805" type="curve"/>
      <point x="720.27065980951" y="1049.02588329097"/>
      <point x="621.499831" y="1102.0"/>
      <point x="502.0" y="1102.0" type="curve" smooth="yes"/>
      <point x="256" y="1102"/>
      <point x="95" y="872"/>
      <point x="95" y="557" type="curve"/>
      <point x="95" y="525" type="line"/>
      <point x="95" y="210"/>
      <point x="256" y="-20"/>
      <point x="503" y="-20" type="curve" smooth="yes"/>
      <point x="751" y="-20"/>
      <point x="910" y="210"/>
    </contour>
    <contour>
      <point x="206" y="557" type="line"/>
      <point x="206" y="789"/>
      <point x="310" y="998"/>
      <point x="502" y="998" type="curve" smooth="yes"/>
      <point x="695" y="998"/>
      <point x="799" y="789"/>
      <point x="799" y="557" type="curve"/>
      <point x="799" y="525" type="line"/>
      <point x="799" y="288"/>
      <point x="695" y="84"/>
      <point x="503" y="84" type="curve" smooth="yes"/>
      <point x="310" y="84"/>
      <point x="206" y="288"/>
      <point x="206" y="525" type="curve"/>
    </contour>
  </outline>
</glyph>
<glyph name="OI" format="1">
  <advance width="1456"/>
  <unicode hex="01A2"/>
  <outline>
    <contour>
      <point x="623" y="-21" type="curve" smooth="yes"/>
      <point x="883" y="-21"/>
      <point x="1004" y="102"/>
      <point x="1047" y="175" type="curve"/>
      <point x="1047" y="1248.5842666625977" type="line"/>
      <point x="1171" y="1328" type="line"/>
      <point x="1171" y="-416" type="line"/>
      <point x="1282" y="-416" type="line"/>
      <point x="1282" y="1456" type="line"/>
      <point x="1193" y="1456" type="line"/>
      <point x="1005.0817642211914" y="1335.7323303222656" type="line"/>
      <point x="942.073369917389" y="1402.397976833373"/>
      <point x="824.1248199999999" y="1476.0"/>
      <point x="623.0" y="1476.0" type="curve" smooth="yes"/>
      <point x="333" y="1476"/>
      <point x="129" y="1217"/>
      <point x="129" y="809" type="curve" smooth="yes"/>
      <point x="129" y="646" type="line" smooth="yes"/>
      <point x="129" y="232"/>
      <point x="334" y="-21"/>
    </contour>
    <contour>
      <point x="623" y="1369" type="curve" smooth="yes"/>
      <point x="809" y="1369"/>
      <point x="902" y="1293"/>
      <point x="937" y="1242" type="curve"/>
      <point x="937" y="214" type="line"/>
      <point x="902" y="162"/>
      <point x="809" y="86"/>
      <point x="627" y="86" type="curve" smooth="yes"/>
      <point x="383" y="86"/>
      <point x="242" y="315"/>
      <point x="242" y="646" type="curve" smooth="yes"/>
      <point x="242" y="809" type="line" smooth="yes"/>
      <point x="242" y="1150"/>
      <point x="393" y="1369"/>
    </contour>
  </outline>
</glyph>
<glyph name="oi" format="1">
  <advance width="1126"/>
  <unicode hex="01A3"/>
  <outline>
    <contour>
      <point x="864" y="924" type="line"/>
      <point x="864" y="-416" type="line"/>
      <point x="975" y="-416" type="line"/>
      <point x="975" y="1082" type="line"/>
      <point x="885" y="1082" type="line"/>
      <point x="747.8794403076172" y="987.7296142578125" type="line"/>
      <point x="685.072895257328" y="1061.118963506416"/>
      <point x="595.128056" y="1102.0"/>
      <point x="490.99999999999994" y="1102.0" type="curve" smooth="yes"/>
      <point x="233" y="1102"/>
      <point x="100" y="865"/>
      <point x="100" y="562" type="curve" smooth="yes"/>
      <point x="100" y="520" type="line" smooth="yes"/>
      <point x="100" y="217"/>
      <point x="233" y="-21"/>
      <point x="491" y="-21" type="curve"/>
      <point x="601" y="-21"/>
      <point x="700" y="31"/>
      <point x="765" y="114" type="curve"/>
      <point x="765" y="851.1870956420898" type="line"/>
    </contour>
    <contour>
      <point x="491" y="83" type="curve" smooth="yes"/>
      <point x="305" y="83"/>
      <point x="211" y="263"/>
      <point x="211" y="520" type="curve" smooth="yes"/>
      <point x="211" y="562" type="line" smooth="yes"/>
      <point x="211" y="790"/>
      <point x="287" y="998"/>
      <point x="491" y="998" type="curve"/>
      <point x="553" y="998"/>
      <point x="611" y="974"/>
      <point x="654" y="928" type="curve"/>
      <point x="654" y="147" type="line"/>
      <point x="609" y="105"/>
      <point x="551" y="83"/>
    </contour>
  </outline>
</glyph>
<glyph name="Phook" format="1">
  <advance width="1263"/>
  <unicode hex="01A4"/>
  <outline>
    <contour>
      <point x="41" y="1172" type="curve" smooth="yes"/>
      <point x="41" y="1134"/>
      <point x="47" y="1093"/>
      <point x="57" y="1058" type="curve"/>
      <point x="149" y="1065" type="line"/>
      <point x="143" y="1085"/>
      <point x="138" y="1120"/>
      <point x="138" y="1148" type="curve" smooth="yes"/>
      <point x="138.0" y="1277.34168"/>
      <point x="201.353449222144" y="1348.279398998336"/>
      <point x="332" y="1348.9889755249023" type="curve"/>
      <point x="332" y="0" type="line"/>
      <point x="446" y="0" type="line"/>
      <point x="446" y="592" type="line"/>
      <point x="755" y="592" type="line"/>
      <point x="1026" y="592"/>
      <point x="1170" y="752"/>
      <point x="1170" y="1021" type="curve"/>
      <point x="1170" y="1279"/>
      <point x="1025" y="1456"/>
      <point x="755" y="1456" type="curve"/>
      <point x="332" y="1456" type="line"/>
      <point x="332" y="1455.9880142211914" type="line"/>
      <point x="145" y="1456"/>
      <point x="41" y="1357"/>
    </contour>
    <contour>
      <point x="446" y="1349" type="line"/>
      <point x="755" y="1349" type="line"/>
      <point x="968" y="1349"/>
      <point x="1055" y="1196"/>
      <point x="1055" y="1019" type="curve"/>
      <point x="1055" y="838"/>
      <point x="968" y="699"/>
      <point x="755" y="699" type="curve"/>
      <point x="446" y="699" type="line"/>
    </contour>
  </outline>
</glyph>
<glyph name="phook" format="1">
  <advance width="996"/>
  <unicode hex="01A5"/>
  <outline>
    <contour>
      <point x="539.0" y="-21.000000000000014" type="curve" smooth="yes"/>
      <point x="760" y="-21"/>
      <point x="887" y="141"/>
      <point x="887" y="490" type="curve" smooth="yes"/>
      <point x="887" y="591" type="line"/>
      <point x="887" y="953"/>
      <point x="761" y="1102"/>
      <point x="537" y="1102" type="curve" smooth="yes"/>
      <point x="408.566199" y="1102.0"/>
      <point x="317.553376081581" y="1041.607728442597"/>
      <point x="259" y="939.0746688842773" type="curve"/>
      <point x="259" y="1026" type="line" smooth="yes"/>
      <point x="259" y="1179"/>
      <point x="302" y="1255"/>
      <point x="401" y="1255" type="curve" smooth="yes"/>
      <point x="422" y="1255"/>
      <point x="449" y="1249"/>
      <point x="464" y="1242" type="curve"/>
      <point x="469" y="1333" type="line"/>
      <point x="442" y="1344"/>
      <point x="410" y="1350"/>
      <point x="381" y="1350" type="curve" smooth="yes"/>
      <point x="238" y="1350"/>
      <point x="148" y="1235"/>
      <point x="148" y="1026" type="curve" smooth="yes"/>
      <point x="148" y="-416" type="line"/>
      <point x="259" y="-416" type="line"/>
      <point x="259" y="130.08736419677734" type="line"/>
      <point x="317.80367474636796" y="36.18811416345598"/>
      <point x="410.05848" y="-21.00000000000002"/>
    </contour>
    <contour>
      <point x="509.99999999999994" y="995.9999999999999" type="curve" smooth="yes"/>
      <point x="692" y="996"/>
      <point x="776" y="867"/>
      <point x="776" y="591" type="curve" smooth="yes"/>
      <point x="776" y="490" type="line"/>
      <point x="776" y="213"/>
      <point x="692" y="83"/>
      <point x="512" y="83" type="curve" smooth="yes"/>
      <point x="381.40863" y="83.0"/>
      <point x="302.76597380230004" y="152.8620633893"/>
      <point x="259" y="246.92290496826172" type="curve"/>
      <point x="259" y="816.9044723510742" type="line"/>
      <point x="298.58864283867297" y="912.2409361313661"/>
      <point x="373.564535" y="996.0000000000001"/>
    </contour>
  </outline>
</glyph>
<glyph name="YR" format="1">
  <advance width="1199"/>
  <unicode hex="01A6"/>
  <outline>
    <contour>
      <point x="285" y="0" type="line"/>
      <point x="285" y="606" type="line"/>
      <point x="626.8290252685547" y="606" type="line"/>
      <point x="1093" y="-355" type="line"/>
      <point x="1216" y="-355" type="line"/>
      <point x="1216" y="-342" type="line"/>
      <point x="736.4173278808594" y="632.8572082519531" type="line"/>
      <point x="886.9795826" y="685.38619524"/>
      <point x="987.0" y="834.8844"/>
      <point x="986.9999999999999" y="1027.0" type="curve" smooth="yes"/>
      <point x="987" y="1305"/>
      <point x="828" y="1456"/>
      <point x="570" y="1456" type="curve" smooth="yes"/>
      <point x="285" y="1456" type="line"/>
      <point x="285" y="1547" type="line"/>
      <point x="171" y="1547" type="line"/>
      <point x="171" y="0" type="line"/>
    </contour>
    <contour>
      <point x="285" y="1349" type="line"/>
      <point x="570" y="1349" type="line" smooth="yes"/>
      <point x="768" y="1349"/>
      <point x="873" y="1225"/>
      <point x="873" y="1027" type="curve" smooth="yes"/>
      <point x="873" y="862"/>
      <point x="778" y="713"/>
      <point x="589" y="713" type="curve" smooth="yes"/>
      <point x="285" y="713" type="line"/>
    </contour>
  </outline>
</glyph>
<glyph name="tpalatalhook" format="1">
  <advance width="595"/>
  <unicode hex="01AB"/>
  <outline>
    <contour>
      <point x="514" y="-76" type="curve" smooth="yes"/>
      <point x="514" y="-3" type="line"/>
      <point x="513.9600448608398" y="-2.9812240600585938" type="line"/>
      <point x="510" y="98" type="line"/>
      <point x="489" y="93"/>
      <point x="460" y="88"/>
      <point x="430" y="88" type="curve" smooth="yes"/>
      <point x="370" y="88"/>
      <point x="316" y="114"/>
      <point x="316" y="264" type="curve"/>
      <point x="316" y="982" type="line"/>
      <point x="500" y="982" type="line"/>
      <point x="500" y="1082" type="line"/>
      <point x="316" y="1082" type="line"/>
      <point x="316" y="1359" type="line"/>
      <point x="204" y="1359" type="line"/>
      <point x="204" y="1082" type="line"/>
      <point x="38" y="1082" type="line"/>
      <point x="38" y="982" type="line"/>
      <point x="204" y="982" type="line"/>
      <point x="204" y="264" type="line"/>
      <point x="204" y="47"/>
      <point x="289" y="-20"/>
      <point x="404" y="-20" type="curve" smooth="yes"/>
      <point x="413.05924" y="-20.0"/>
      <point x="422.11848" y="-19.6892975632"/>
      <point x="431" y="-19.104331970214844" type="curve"/>
      <point x="431" y="-76" type="line" smooth="yes"/>
      <point x="431" y="-229"/>
      <point x="388" y="-305"/>
      <point x="289" y="-305" type="curve" smooth="yes"/>
      <point x="268" y="-305"/>
      <point x="242" y="-299"/>
      <point x="226" y="-292" type="curve"/>
      <point x="221" y="-383" type="line"/>
      <point x="248" y="-394"/>
      <point x="280" y="-400"/>
      <point x="309" y="-400" type="curve" smooth="yes"/>
      <point x="453" y="-400"/>
      <point x="514" y="-285"/>
    </contour>
  </outline>
</glyph>
<glyph name="uhorn" format="1">
  <advance width="1059"/>
  <unicode hex="01B0"/>
  <outline>
    <contour>
      <point x="507" y="1269" type="move" name="top"/>
    </contour>
    <contour>
      <point x="852" y="0" type="move" name="right"/>
    </contour>
    <contour>
      <point x="1039" y="1269" type="move" name="top0315"/>
    </contour>
    <contour>
      <point x="449" y="0" type="move" name="bottomu"/>
    </contour>
    <contour>
      <point x="492" y="0" type="move" name="bottom"/>
    </contour>
    <contour>
      <point x="731" y="0" type="line"/>
      <point x="838" y="0" type="line"/>
      <point x="838" y="864.5688858032227" type="line"/>
      <point x="1017.7837370150689" y="873.190776026073"/>
      <point x="1072.0" y="981.527782"/>
      <point x="1071.9999999999998" y="1179.0" type="curve"/>
      <point x="982" y="1179" type="line"/>
      <point x="982.0" y="1034.410104"/>
      <point x="968.60371778464" y="957.694704557824"/>
      <point x="838" y="949.7010803222656" type="curve"/>
      <point x="838" y="1082" type="line"/>
      <point x="727" y="1082" type="line"/>
      <point x="727" y="291.6565170288086" type="line"/>
      <point x="692.95971390048" y="172.60625763392"/>
      <point x="611.9884079999999" y="87.0"/>
      <point x="458.0" y="87.00000000000003" type="curve" smooth="yes"/>
      <point x="349" y="87"/>
      <point x="256" y="158"/>
      <point x="256" y="387" type="curve"/>
      <point x="256" y="1082" type="line"/>
      <point x="145" y="1082" type="line"/>
      <point x="145" y="389" type="line"/>
      <point x="145" y="94"/>
      <point x="266" y="-20"/>
      <point x="444" y="-20" type="curve" smooth="yes"/>
      <point x="580.294039" y="-20.0"/>
      <point x="672.432341872147" y="36.530592112729"/>
      <point x="728.9165725708008" y="130.2143325805664" type="curve"/>
    </contour>
  </outline>
</glyph>
<glyph name="Upsilon2" format="1">
  <advance width="1183"/>
  <unicode hex="01B1"/>
  <outline>
    <contour>
      <point x="929" y="726" type="curve" smooth="yes"/>
      <point x="929" y="609" type="line" smooth="yes"/>
      <point x="929" y="294"/>
      <point x="798" y="86"/>
      <point x="591" y="86" type="curve" smooth="yes"/>
      <point x="383" y="86"/>
      <point x="252" y="294"/>
      <point x="252" y="609" type="curve" smooth="yes"/>
      <point x="252" y="726" type="line"/>
      <point x="252" y="1097"/>
      <point x="379" y="1276"/>
      <point x="524" y="1334" type="curve"/>
      <point x="524" y="1456" type="line"/>
      <point x="134" y="1456" type="line"/>
      <point x="134" y="1349" type="line"/>
      <point x="371.86358642578125" y="1349" type="line"/>
      <point x="235.763317078676" y="1229.81876304946"/>
      <point x="136.0" y="1009.6021479999999"/>
      <point x="136.0" y="726.0000000000002" type="curve" smooth="yes"/>
      <point x="136" y="611" type="line" smooth="yes"/>
      <point x="136" y="233"/>
      <point x="321" y="-20"/>
      <point x="591" y="-20" type="curve" smooth="yes"/>
      <point x="861" y="-20"/>
      <point x="1045" y="233"/>
      <point x="1045" y="611" type="curve" smooth="yes"/>
      <point x="1045" y="726" type="line" smooth="yes"/>
      <point x="1045.0" y="1009.941364"/>
      <point x="944.997886760076" y="1229.792975868336"/>
      <point x="808.6481018066406" y="1349" type="curve"/>
      <point x="1050" y="1349" type="line"/>
      <point x="1050" y="1456" type="line"/>
      <point x="657" y="1456" type="line"/>
      <point x="657" y="1334" type="line"/>
      <point x="803" y="1276"/>
      <point x="929" y="1097"/>
    </contour>
  </outline>
</glyph>
<glyph name="Yhook" format="1">
  <advance width="1120"/>
  <unicode hex="01B3"/>
  <outline>
    <contour>
      <point x="861" y="1114" type="line" smooth="yes"/>
      <point x="927" y="1250"/>
      <point x="964" y="1359"/>
      <point x="1049" y="1359" type="curve" smooth="yes"/>
      <point x="1102" y="1359"/>
      <point x="1138" y="1325"/>
      <point x="1165" y="1294" type="curve"/>
      <point x="1212" y="1380" type="line"/>
      <point x="1169" y="1432"/>
      <point x="1104" y="1476"/>
      <point x="1034" y="1476" type="curve" smooth="yes"/>
      <point x="902" y="1476"/>
      <point x="840" y="1333"/>
      <point x="763" y="1167" type="curve" smooth="yes"/>
      <point x="534.0724716186523" y="669.6437225341797" type="line"/>
      <point x="173" y="1456" type="line"/>
      <point x="39" y="1456" type="line"/>
      <point x="476" y="551.7611618041992" type="line"/>
      <point x="476" y="0" type="line"/>
      <point x="591" y="0" type="line"/>
      <point x="591" y="547.870964050293" type="line"/>
    </contour>
  </outline>
</glyph>
<glyph name="Zbar" format="1">
  <advance width="1070"/>
  <unicode hex="01B5"/>
  <outline>
    <contour>
      <point x="535" y="1606" type="move" name="top"/>
    </contour>
    <contour>
      <point x="545" y="10" type="move" name="bottom"/>
    </contour>
    <contour>
      <point x="1050" y="1606" type="move" name="top0315"/>
    </contour>
    <contour>
      <point x="115" y="1349" type="line"/>
      <point x="815.5202026367188" y="1349" type="line"/>
      <point x="498.92799377441406" y="798" type="line"/>
      <point x="146" y="798" type="line"/>
      <point x="146" y="694" type="line"/>
      <point x="439.17193603515625" y="694" type="line"/>
      <point x="95" y="95" type="line"/>
      <point x="95" y="0" type="line"/>
      <point x="977" y="0" type="line"/>
      <point x="977" y="107" type="line"/>
      <point x="228.33309173583984" y="107" type="line"/>
      <point x="564.8052673339844" y="694" type="line"/>
      <point x="901" y="694" type="line"/>
      <point x="901" y="798" type="line" name="hr00"/>
      <point x="624.4187393188477" y="798" type="line"/>
      <point x="950" y="1366" type="line"/>
      <point x="950" y="1456" type="line"/>
      <point x="115" y="1456" type="line"/>
    </contour>
  </outline>
</glyph>
<glyph name="zbar" format="1">
  <advance width="889"/>
  <unicode hex="01B6"/>
  <outline>
    <contour>
      <point x="443" y="1292" type="move" name="top"/>
    </contour>
    <contour>
      <point x="458" y="10" type="move" name="bottom"/>
    </contour>
    <contour>
      <point x="869" y="1292" type="move" name="top0315"/>
    </contour>
    <contour>
      <point x="114" y="977" type="line"/>
      <point x="645.2623596191406" y="977" type="line"/>
      <point x="414.67305755615234" y="603" type="line"/>
      <point x="156" y="603" type="line"/>
      <point x="156" y="499" type="line"/>
      <point x="350.5519714355469" y="499" type="line"/>
      <point x="99" y="91" type="line"/>
      <point x="99" y="0" type="line"/>
      <point x="815" y="0" type="line"/>
      <point x="815" y="104" type="line"/>
      <point x="231.26612854003906" y="104" type="line"/>
      <point x="475.3538284301758" y="499" type="line"/>
      <point x="730" y="499" type="line"/>
      <point x="730" y="603" type="line"/>
      <point x="539.6199569702148" y="603" type="line"/>
      <point x="780" y="992" type="line"/>
      <point x="780" y="1082" type="line"/>
      <point x="114" y="1082" type="line"/>
    </contour>
  </outline>
</glyph>
<glyph name="uni01BA" format="1">
  <advance width="925"/>
  <unicode hex="01BA"/>
  <outline>
    <contour>
      <point x="645" y="394" type="curve" smooth="yes"/>
      <point x="645" y="283"/>
      <point x="593" y="232"/>
      <point x="415" y="185" type="curve" smooth="yes"/>
      <point x="201" y="129"/>
      <point x="89" y="43"/>
      <point x="89" y="-134" type="curve" smooth="yes"/>
      <point x="89" y="-312"/>
      <point x="222" y="-437"/>
      <point x="427" y="-437" type="curve" smooth="yes"/>
      <point x="660" y="-437"/>
      <point x="786" y="-281"/>
      <point x="786" y="-111" type="curve"/>
      <point x="675" y="-111" type="line"/>
      <point x="667" y="-280"/>
      <point x="539" y="-333"/>
      <point x="427" y="-333" type="curve" smooth="yes"/>
      <point x="279" y="-333"/>
      <point x="200" y="-241"/>
      <point x="200" y="-140" type="curve" smooth="yes"/>
      <point x="200" y="-51"/>
      <point x="243" y="33"/>
      <point x="435" y="83" type="curve" smooth="yes"/>
      <point x="637" y="136"/>
      <point x="756" y="207"/>
      <point x="756" y="390" type="curve" smooth="yes"/>
      <point x="756.0" y="536.441196"/>
      <point x="653.8574917794999" y="647.745369172148"/>
      <point x="487.9830627441406" y="667.7701950073242" type="curve"/>
      <point x="800" y="999" type="line"/>
      <point x="799" y="1082" type="line"/>
      <point x="115" y="1082" type="line" name="hr00"/>
      <point x="115" y="978" type="line"/>
      <point x="637" y="978" type="line"/>
      <point x="310" y="650" type="line"/>
      <point x="310" y="568" type="line"/>
      <point x="433" y="568" type="line" smooth="yes"/>
      <point x="584" y="568"/>
      <point x="645" y="484"/>
    </contour>
  </outline>
</glyph>
<glyph name="uni01BB" format="1">
  <advance width="1000"/>
  <unicode hex="01BB"/>
  <outline>
    <contour>
      <point x="906" y="104" type="line"/>
      <point x="268" y="104" type="line"/>
      <point x="607" y="561" type="line" smooth="yes"/>
      <point x="632.281875" y="594.776585"/>
      <point x="657.113772064725" y="629.1667762753749"/>
      <point x="680.6434020996094" y="664" type="curve"/>
      <point x="905" y="664" type="line"/>
      <point x="905" y="768" type="line" name="hr00"/>
      <point x="745.5467529296875" y="768" type="line"/>
      <point x="805.151433040686" y="873.143227423194"/>
      <point x="846.0" y="980.6465760000001"/>
      <point x="846.0" y="1086.0000000000002" type="curve" smooth="yes"/>
      <point x="846" y="1330"/>
      <point x="709" y="1476"/>
      <point x="487" y="1476" type="curve" smooth="yes"/>
      <point x="247" y="1476"/>
      <point x="107" y="1277"/>
      <point x="107" y="1036" type="curve"/>
      <point x="218" y="1036" type="line"/>
      <point x="218" y="1231"/>
      <point x="318" y="1372"/>
      <point x="487" y="1372" type="curve" smooth="yes"/>
      <point x="647" y="1372"/>
      <point x="734" y="1249"/>
      <point x="734" y="1075" type="curve" smooth="yes"/>
      <point x="734.0" y="983.285509"/>
      <point x="704.699478121109" y="893.8690981473641"/>
      <point x="625.1958312988281" y="768" type="curve"/>
      <point x="301" y="768" type="line"/>
      <point x="301" y="664" type="line"/>
      <point x="554.2728805541992" y="664" type="line"/>
      <point x="547.414399134725" y="654.5266271358751"/>
      <point x="540.3252500000001" y="644.86467"/>
      <point x="533.0000000000001" y="635.0" type="curve" smooth="yes"/>
      <point x="133" y="94" type="line"/>
      <point x="133" y="0" type="line"/>
      <point x="906" y="0" type="line"/>
    </contour>
  </outline>
</glyph>
<glyph name="wynn" format="1">
  <advance width="996"/>
  <unicode hex="01BF"/>
  <outline>
    <contour>
      <point x="886.9999999999999" y="562.0" type="curve" smooth="yes"/>
      <point x="887" y="583" type="line" smooth="yes"/>
      <point x="887" y="902"/>
      <point x="761" y="1102"/>
      <point x="537" y="1102" type="curve" smooth="yes"/>
      <point x="410.667" y="1102.0"/>
      <point x="317.85771903125" y="1041.79413725"/>
      <point x="256.17127990722656" y="939.3749084472656" type="curve"/>
      <point x="250" y="1082" type="line"/>
      <point x="148" y="1082" type="line"/>
      <point x="148" y="-416" type="line"/>
      <point x="259" y="-416" type="line"/>
      <point x="259" y="-105.244140625" type="line"/>
      <point x="638.3432774254719" y="-0.04096631822400809"/>
      <point x="886.9999999999999" y="173.815892"/>
    </contour>
    <contour>
      <point x="509.99999999999994" y="996.0000000000001" type="curve" smooth="yes"/>
      <point x="692" y="996"/>
      <point x="776" y="817"/>
      <point x="776" y="583" type="curve" smooth="yes"/>
      <point x="776" y="562" type="line" smooth="yes"/>
      <point x="776.0" y="235.72481799999997"/>
      <point x="559.382855711042" y="75.09804045626197"/>
      <point x="259" y="-3.234710693359375" type="curve"/>
      <point x="259" y="797.1669387817383" type="line"/>
      <point x="298.58864283867297" y="902.450915679188"/>
      <point x="373.564535" y="996.0"/>
    </contour>
  </outline>
</glyph>
<glyph name="uni01C6" format="1">
  <advance width="1703"/>
  <unicode hex="01C6"/>
  <outline>
    <contour>
      <point x="749" y="0" type="line"/>
      <point x="848" y="0" type="line"/>
      <point x="848" y="1560" type="line"/>
      <point x="737" y="1560" type="line"/>
      <point x="737" y="942.5552673339844" type="line"/>
      <point x="677.201241458784" y="1043.037931084096"/>
      <point x="587.021232" y="1102.0"/>
      <point x="461.99999999999994" y="1102.0" type="curve" smooth="yes"/>
      <point x="245" y="1102"/>
      <point x="109" y="886"/>
      <point x="109" y="551" type="curve" smooth="yes"/>
      <point x="109" y="530" type="line"/>
      <point x="109" y="207"/>
      <point x="246" y="-21"/>
      <point x="460" y="-21" type="curve" smooth="yes"/>
      <point x="588.4129" y="-21.0"/>
      <point x="681.052315432375" y="39.303873985424985"/>
      <point x="741.1002197265625" y="138.24620056152344" type="curve"/>
    </contour>
    <contour>
      <point x="1132" y="1495" type="line"/>
      <point x="1029" y="1495" type="line"/>
      <point x="1029" y="1478" type="line"/>
      <point x="1227" y="1252" type="line"/>
      <point x="1312" y="1252" type="line"/>
      <point x="1510" y="1478" type="line"/>
      <point x="1510" y="1495" type="line"/>
      <point x="1407" y="1495" type="line"/>
      <point x="1269" y="1327" type="line"/>
    </contour>
    <contour>
      <point x="931" y="977" type="line"/>
      <point x="1462.2623596191406" y="977" type="line"/>
      <point x="916" y="91" type="line"/>
      <point x="916" y="0" type="line"/>
      <point x="1632" y="0" type="line"/>
      <point x="1632" y="104" type="line"/>
      <point x="1048.266128540039" y="104" type="line"/>
      <point x="1597" y="992" type="line"/>
      <point x="1597" y="1082" type="line"/>
      <point x="931" y="1082" type="line"/>
    </contour>
    <contour>
      <point x="221" y="530" type="curve" smooth="yes"/>
      <point x="221" y="551" type="line"/>
      <point x="221" y="801"/>
      <point x="302" y="996"/>
      <point x="484" y="996" type="curve" smooth="yes"/>
      <point x="622.8545799999999" y="996.0"/>
      <point x="697.6188502964999" y="900.1431889652"/>
      <point x="737" y="793.2960433959961" type="curve"/>
      <point x="737" y="275.6280746459961" type="line"/>
      <point x="693.4003624382719" y="166.044616342592"/>
      <point x="614.38172" y="86.00000000000001"/>
      <point x="482.0" y="86.00000000000004" type="curve" smooth="yes"/>
      <point x="302" y="86"/>
      <point x="221" y="279"/>
    </contour>
  </outline>
</glyph>
<glyph name="gbar" format="1">
  <advance width="997"/>
  <unicode hex="01E5"/>
  <outline>
    <contour>
      <point x="497" y="1290" type="move" name="top"/>
    </contour>
    <contour>
      <point x="492" y="-466" type="move" name="bottom"/>
    </contour>
    <contour>
      <point x="511" y="-125" type="move" name="parenthesses.w3"/>
    </contour>
    <contour>
      <point x="492" y="-466" type="move" name="markbottom"/>
    </contour>
    <contour>
      <point x="977" y="1290" type="move" name="top0315"/>
    </contour>
    <contour>
      <point x="979" y="-163" type="line"/>
      <point x="979" y="-78" type="line" name="hr00"/>
      <point x="851.3554077148438" y="-78" type="line"/>
      <point x="853.1073119611441" y="-57.40438561349593"/>
      <point x="854.0000000000001" y="-36.05070799999993"/>
      <point x="854.0" y="-13.99999999999993" type="curve" smooth="yes"/>
      <point x="854" y="1082" type="line"/>
      <point x="752" y="1082" type="line"/>
      <point x="746.5128784179688" y="936.8961944580078" type="line"/>
      <point x="686.546755951384" y="1040.822217148496"/>
      <point x="595.348632" y="1102.0"/>
      <point x="467.9999999999999" y="1102.0" type="curve" smooth="yes"/>
      <point x="249" y="1102"/>
      <point x="116" y="886"/>
      <point x="116" y="551" type="curve" smooth="yes"/>
      <point x="116" y="530" type="line"/>
      <point x="116" y="207"/>
      <point x="249" y="-20"/>
      <point x="466" y="-20" type="curve" smooth="yes"/>
      <point x="591.746127" y="-20.0"/>
      <point x="682.851409939917" y="36.979332285744"/>
      <point x="743" y="131.23062133789062" type="curve"/>
      <point x="743" y="-18" type="line" smooth="yes"/>
      <point x="743.0" y="-38.85264"/>
      <point x="742.0959627548" y="-58.8758025276"/>
      <point x="740.3121643066406" y="-78" type="curve"/>
      <point x="49" y="-78" type="line"/>
      <point x="49" y="-163" type="line"/>
      <point x="725.1523742675781" y="-163" type="line"/>
      <point x="689.99146920777" y="-289.67351833409697"/>
      <point x="604.152639" y="-360.99999999999994"/>
      <point x="479.0" y="-361.0" type="curve" smooth="yes"/>
      <point x="384" y="-361"/>
      <point x="300" y="-314"/>
      <point x="227" y="-205" type="curve"/>
      <point x="165" y="-279" type="line"/>
      <point x="240" y="-404"/>
      <point x="376" y="-464"/>
      <point x="486" y="-464" type="curve" smooth="yes"/>
      <point x="665.510532" y="-464.0"/>
      <point x="795.3289455940641" y="-354.154264576352"/>
      <point x="838.4460754394531" y="-163" type="curve"/>
    </contour>
    <contour>
      <point x="227" y="530" type="curve" smooth="yes"/>
      <point x="227" y="551" type="line"/>
      <point x="227" y="801"/>
      <point x="309" y="996"/>
      <point x="491" y="996" type="curve" smooth="yes"/>
      <point x="630.0850350000001" y="996.0"/>
      <point x="704.1697953320851" y="898.782197887988"/>
      <point x="743" y="791.0240631103516" type="curve"/>
      <point x="743" y="278.96214294433594" type="line"/>
      <point x="699.749912734064" y="167.999659863344"/>
      <point x="621.8901079999999" y="86.99999999999999"/>
      <point x="488.9999999999999" y="86.99999999999999" type="curve" smooth="yes"/>
      <point x="309" y="87"/>
      <point x="227" y="279"/>
    </contour>
  </outline>
</glyph>
<glyph name="uni01F7" format="1">
  <advance width="1184"/>
  <unicode hex="01F7"/>
  <outline>
    <contour>
      <point x="1058.0" y="823.0" type="curve" smooth="yes"/>
      <point x="1058" y="884" type="line" smooth="yes"/>
      <point x="1058" y="1277"/>
      <point x="875" y="1476"/>
      <point x="586" y="1476" type="curve" smooth="yes"/>
      <point x="453.904369" y="1476.0"/>
      <point x="351.328050893877" y="1422.531055890336"/>
      <point x="287" y="1314.3415603637695" type="curve"/>
      <point x="287" y="1456" type="line"/>
      <point x="173" y="1456" type="line"/>
      <point x="173" y="-427" type="line"/>
      <point x="287" y="-427" type="line"/>
      <point x="287" y="-102.29705047607422" type="line"/>
      <point x="738.5581160612" y="11.619217488400025"/>
      <point x="1058.0" y="342.03882000000004"/>
    </contour>
    <contour>
      <point x="585.9999999999999" y="1368.9999999999998" type="curve" smooth="yes"/>
      <point x="813" y="1369"/>
      <point x="944" y="1215"/>
      <point x="944" y="886" type="curve" smooth="yes"/>
      <point x="944" y="823" type="line" smooth="yes"/>
      <point x="944.0" y="427.866808"/>
      <point x="698.04814206032" y="113.80663583937599"/>
      <point x="287" y="5.149452209472656" type="curve"/>
      <point x="287" y="1153.0028228759766" type="line"/>
      <point x="335.293457162032" y="1291.7224260922558"/>
      <point x="429.962986" y="1368.9999999999998"/>
    </contour>
  </outline>
</glyph>
<glyph name="uni021C" format="1">
  <advance width="1072"/>
  <unicode hex="021C"/>
  <outline>
    <contour>
      <point x="962" y="335" type="curve" smooth="yes"/>
      <point x="962.0" y="534.9476"/>
      <point x="898.838665106525" y="646.746963390425"/>
      <point x="797.3808517456055" y="700.4575653076172" type="curve"/>
      <point x="892.683337330112" y="798.6672074727201"/>
      <point x="943.0" y="914.1847080000001"/>
      <point x="943.0" y="1063.0000000000002" type="curve" smooth="yes"/>
      <point x="943" y="1337"/>
      <point x="777" y="1476"/>
      <point x="517" y="1476" type="curve" smooth="yes"/>
      <point x="296" y="1476"/>
      <point x="108" y="1322"/>
      <point x="108" y="1074" type="curve"/>
      <point x="222" y="1074" type="line"/>
      <point x="222" y="1255"/>
      <point x="357" y="1369"/>
      <point x="517" y="1369" type="curve" smooth="yes"/>
      <point x="735" y="1369"/>
      <point x="828" y="1241"/>
      <point x="828" y="1065" type="curve" smooth="yes"/>
      <point x="828" y="739"/>
      <point x="596" y="637"/>
      <point x="193" y="465" type="curve"/>
      <point x="194" y="364" type="line"/>
      <point x="417.246494" y="451.520114"/>
      <point x="595.58884654078" y="534.440291557836"/>
      <point x="722.1587142944336" y="633.369514465332" type="curve"/>
      <point x="795.796461233125" y="596.6920687218751"/>
      <point x="847.0" y="508.5156500000001"/>
      <point x="847.0" y="335.0" type="curve" smooth="yes"/>
      <point x="847" y="-40"/>
      <point x="600" y="-199"/>
      <point x="194" y="-328" type="curve"/>
      <point x="194" y="-437" type="line"/>
      <point x="649" y="-295"/>
      <point x="962" y="-120"/>
    </contour>
  </outline>
</glyph>
<glyph name="uni021D" format="1">
  <advance width="905"/>
  <unicode hex="021D"/>
  <outline>
    <contour>
      <point x="793" y="201" type="curve" smooth="yes"/>
      <point x="793.0" y="342.576453"/>
      <point x="746.11996915753" y="452.676313862913"/>
      <point x="656.1963424682617" y="503.8838577270508" type="curve"/>
      <point x="733.379608114481" y="581.947845935814"/>
      <point x="776.0" y="675.0259470000001"/>
      <point x="776.0" y="791.9999999999999" type="curve" smooth="yes"/>
      <point x="776" y="993"/>
      <point x="651" y="1102"/>
      <point x="444" y="1102" type="curve" smooth="yes"/>
      <point x="263" y="1102"/>
      <point x="106" y="981"/>
      <point x="106" y="790" type="curve"/>
      <point x="217" y="790" type="line"/>
      <point x="217" y="912"/>
      <point x="321" y="999"/>
      <point x="444" y="999" type="curve" smooth="yes"/>
      <point x="603" y="999"/>
      <point x="665" y="906"/>
      <point x="665" y="791" type="curve" smooth="yes"/>
      <point x="665" y="530"/>
      <point x="415" y="442"/>
      <point x="165" y="343" type="curve"/>
      <point x="166" y="245" type="line"/>
      <point x="335.955471" y="303.178827"/>
      <point x="478.209880541468" y="364.715358419216"/>
      <point x="582.476448059082" y="440.9537658691406" type="curve"/>
      <point x="646.8412508032001" y="405.112486867456"/>
      <point x="681.0000000000001" y="320.50196800000003"/>
      <point x="681.0" y="199.0" type="curve" smooth="yes"/>
      <point x="681" y="-72"/>
      <point x="492" y="-236"/>
      <point x="166" y="-332" type="curve"/>
      <point x="166" y="-437" type="line"/>
      <point x="571" y="-341"/>
      <point x="793" y="-137"/>
    </contour>
  </outline>
</glyph>
<glyph name="uni0220" format="1">
  <advance width="1162"/>
  <unicode hex="0220"/>
  <outline>
    <contour>
      <point x="1009" y="1030" type="line" smooth="yes"/>
      <point x="1009" y="1322"/>
      <point x="819" y="1476"/>
      <point x="591" y="1476" type="curve" smooth="yes"/>
      <point x="464.19793500000003" y="1476.0"/>
      <point x="356.51449507522506" y="1425.526829801406"/>
      <point x="284" y="1364.0297012329102" type="curve"/>
      <point x="284" y="1456" type="line"/>
      <point x="173" y="1456" type="line"/>
      <point x="173" y="0" type="line"/>
      <point x="284" y="0" type="line"/>
      <point x="284" y="1253.0758590698242" type="line"/>
      <point x="359.524622737079" y="1324.186018984269"/>
      <point x="463.22643500000004" y="1370.0"/>
      <point x="591.0" y="1370.0" type="curve" smooth="yes"/>
      <point x="771" y="1370"/>
      <point x="898" y="1252"/>
      <point x="898" y="1030" type="curve" smooth="yes"/>
      <point x="898" y="-427" type="line"/>
      <point x="1009" y="-427" type="line"/>
    </contour>
  </outline>
</glyph>
<glyph name="uni0221" format="1">
  <advance width="1255"/>
  <unicode hex="0221"/>
  <outline>
    <contour>
      <point x="737" y="1536" type="line"/>
      <point x="737" y="942.5552673339844" type="line"/>
      <point x="677.201241458784" y="1043.037931084096"/>
      <point x="587.021232" y="1102.0"/>
      <point x="461.99999999999994" y="1102.0" type="curve" smooth="yes"/>
      <point x="245" y="1102"/>
      <point x="109" y="886"/>
      <point x="109" y="551" type="curve" smooth="yes"/>
      <point x="109" y="530" type="line"/>
      <point x="109" y="207"/>
      <point x="246" y="-20"/>
      <point x="460" y="-20" type="curve" smooth="yes"/>
      <point x="585.5254" y="-20.0"/>
      <point x="676.8680368855" y="37.2968219824"/>
      <point x="737" y="132.02388763427734" type="curve"/>
      <point x="737" y="-100.61349487304688" type="line"/>
      <point x="580" y="-326" type="line"/>
      <point x="650" y="-398" type="line"/>
      <point x="748.8125381469727" y="-246.60830688476562" type="line"/>
      <point x="775.455397523625" y="-364.312719472325"/>
      <point x="848.70264" y="-437.0"/>
      <point x="984.0" y="-436.99999999999994" type="curve" smooth="yes"/>
      <point x="1125" y="-437"/>
      <point x="1209" y="-327"/>
      <point x="1209" y="-188" type="curve" smooth="yes"/>
      <point x="1209" y="-30"/>
      <point x="1116" y="54"/>
      <point x="997" y="54" type="curve" smooth="yes"/>
      <point x="942.324181" y="54.0"/>
      <point x="893.4436337562589" y="35.394127519379"/>
      <point x="848" y="4.4040374755859375" type="curve"/>
      <point x="848" y="1536" type="line"/>
    </contour>
    <contour>
      <point x="221" y="530" type="curve" smooth="yes"/>
      <point x="221" y="551" type="line"/>
      <point x="221" y="801"/>
      <point x="302" y="996"/>
      <point x="484" y="996" type="curve" smooth="yes"/>
      <point x="622.8545799999999" y="996.0"/>
      <point x="697.6188502964999" y="900.1431889652"/>
      <point x="737" y="793.2960433959961" type="curve"/>
      <point x="737" y="275.7533721923828" type="line"/>
      <point x="693.4003624382719" y="166.43821773393603"/>
      <point x="614.38172" y="87.00000000000004"/>
      <point x="482.0" y="86.99999999999999" type="curve" smooth="yes"/>
      <point x="302" y="87"/>
      <point x="221" y="279"/>
    </contour>
    <contour>
      <point x="848" y="-153" type="curve" smooth="yes"/>
      <point x="848" y="-118.92989349365234" type="line"/>
      <point x="891.591550960788" y="-74.645600717968"/>
      <point x="934.439946" y="-49.999999999999986"/>
      <point x="982.0" y="-49.999999999999986" type="curve" smooth="yes"/>
      <point x="1055" y="-50"/>
      <point x="1098" y="-107"/>
      <point x="1098" y="-188" type="curve" smooth="yes"/>
      <point x="1098" y="-269"/>
      <point x="1058" y="-333"/>
      <point x="985" y="-333" type="curve" smooth="yes"/>
      <point x="883" y="-333"/>
      <point x="848" y="-262"/>
    </contour>
  </outline>
</glyph>
<glyph name="uni0222" format="1">
  <advance width="1204"/>
  <unicode hex="0222"/>
  <outline>
    <contour>
      <point x="1075" y="425" type="curve" smooth="yes"/>
      <point x="1075.0" y="615.431388"/>
      <point x="988.708236679104" y="744.666066297936"/>
      <point x="853.224494934082" y="810.0679397583008" type="curve"/>
      <point x="986.599566162022" y="857.773726445397"/>
      <point x="1075.0" y="958.0322219999999"/>
      <point x="1075.0" y="1134.0" type="curve" smooth="yes"/>
      <point x="1075" y="1358"/>
      <point x="937" y="1465"/>
      <point x="760" y="1476" type="curve"/>
      <point x="760" y="1374" type="line"/>
      <point x="890" y="1353"/>
      <point x="961" y="1278"/>
      <point x="961" y="1134" type="curve" smooth="yes"/>
      <point x="961" y="926"/>
      <point x="807" y="873"/>
      <point x="619" y="873" type="curve" smooth="yes"/>
      <point x="584" y="873" type="line"/>
      <point x="397" y="873"/>
      <point x="243" y="926"/>
      <point x="243" y="1134" type="curve" smooth="yes"/>
      <point x="243" y="1278"/>
      <point x="313" y="1353"/>
      <point x="443" y="1374" type="curve"/>
      <point x="443" y="1476" type="line"/>
      <point x="266" y="1465"/>
      <point x="129" y="1358"/>
      <point x="129" y="1134" type="curve" smooth="yes"/>
      <point x="129.0" y="958.104308"/>
      <point x="217.328021394088" y="857.855881847412"/>
      <point x="350.32249450683594" y="810.1279983520508" type="curve"/>
      <point x="214.97161250808" y="744.6209749556959"/>
      <point x="129.0" y="614.892532"/>
      <point x="129.00000000000003" y="422.99999999999994" type="curve" smooth="yes"/>
      <point x="129" y="131"/>
      <point x="324" y="-20"/>
      <point x="589" y="-20" type="curve" smooth="yes"/>
      <point x="614" y="-20" type="line" smooth="yes"/>
      <point x="879" y="-20"/>
      <point x="1075" y="131"/>
    </contour>
    <contour>
      <point x="614" y="763" type="line"/>
      <point x="810" y="763"/>
      <point x="961" y="657"/>
      <point x="961" y="425" type="curve" smooth="yes"/>
      <point x="961" y="190"/>
      <point x="810" y="89"/>
      <point x="614" y="89" type="curve" smooth="yes"/>
      <point x="589" y="89" type="line" smooth="yes"/>
      <point x="395" y="89"/>
      <point x="243" y="190"/>
      <point x="243" y="423" type="curve" smooth="yes"/>
      <point x="243" y="657"/>
      <point x="395" y="763"/>
      <point x="589" y="763" type="curve" smooth="yes"/>
    </contour>
  </outline>
</glyph>
<glyph name="uni0223" format="1">
  <advance width="1185"/>
  <unicode hex="0223"/>
  <outline>
    <contour>
      <point x="1064" y="422" type="curve" smooth="yes"/>
      <point x="1064.0" y="614.229092"/>
      <point x="975.120156970814" y="743.6925216546471"/>
      <point x="835.5029144287109" y="807.2863082885742" type="curve"/>
      <point x="972.6062397310791" y="861.501703852012"/>
      <point x="1064.0" y="976.147054"/>
      <point x="1064.0" y="1169.0" type="curve" smooth="yes"/>
      <point x="1064" y="1399"/>
      <point x="936" y="1546"/>
      <point x="751" y="1557" type="curve"/>
      <point x="751" y="1458" type="line"/>
      <point x="889" y="1428"/>
      <point x="953" y="1324"/>
      <point x="953" y="1169" type="curve" smooth="yes"/>
      <point x="953" y="935"/>
      <point x="797" y="863"/>
      <point x="610" y="863" type="curve"/>
      <point x="575" y="863" type="line" smooth="yes"/>
      <point x="388" y="863"/>
      <point x="232" y="935"/>
      <point x="232" y="1168" type="curve" smooth="yes"/>
      <point x="232" y="1328"/>
      <point x="304" y="1430"/>
      <point x="445" y="1458" type="curve"/>
      <point x="445" y="1557" type="line"/>
      <point x="249" y="1547"/>
      <point x="121" y="1397"/>
      <point x="121" y="1168" type="curve" smooth="yes"/>
      <point x="121.0" y="975.877795"/>
      <point x="212.340095690569" y="861.462835587499"/>
      <point x="349.37628173828125" y="807.3005142211914" type="curve"/>
      <point x="209.96022378483403" y="743.601126216021"/>
      <point x="121.00000000000003" y="613.670334"/>
      <point x="121.0" y="420.00000000000006" type="curve" smooth="yes"/>
      <point x="121" y="131"/>
      <point x="315" y="-20"/>
      <point x="579" y="-20" type="curve" smooth="yes"/>
      <point x="605" y="-20" type="line" smooth="yes"/>
      <point x="870" y="-20"/>
      <point x="1064" y="131"/>
    </contour>
    <contour>
      <point x="605" y="759" type="line"/>
      <point x="800" y="759"/>
      <point x="953" y="651"/>
      <point x="953" y="422" type="curve" smooth="yes"/>
      <point x="953" y="190"/>
      <point x="800" y="83"/>
      <point x="605" y="83" type="curve" smooth="yes"/>
      <point x="579" y="83" type="line" smooth="yes"/>
      <point x="386" y="83"/>
      <point x="232" y="190"/>
      <point x="232" y="420" type="curve" smooth="yes"/>
      <point x="232" y="651"/>
      <point x="386" y="759"/>
      <point x="579" y="759" type="curve" smooth="yes"/>
    </contour>
  </outline>
</glyph>
<glyph name="uni0234" format="1">
  <advance width="712"/>
  <unicode hex="0234"/>
  <outline>
    <contour>
      <point x="194" y="1536" type="line"/>
      <point x="194" y="-100.61349487304688" type="line"/>
      <point x="37" y="-326" type="line"/>
      <point x="107" y="-398" type="line"/>
      <point x="205.81253814697266" y="-246.60830688476562" type="line"/>
      <point x="232.45539752362498" y="-364.312719472325"/>
      <point x="305.70264" y="-437.0"/>
      <point x="441.0" y="-436.99999999999994" type="curve" smooth="yes"/>
      <point x="582" y="-437"/>
      <point x="666" y="-327"/>
      <point x="666" y="-188" type="curve" smooth="yes"/>
      <point x="666" y="-30"/>
      <point x="573" y="54"/>
      <point x="454" y="54" type="curve" smooth="yes"/>
      <point x="399.324181" y="54.0"/>
      <point x="350.44363375625903" y="35.394127519379"/>
      <point x="305" y="4.4040374755859375" type="curve"/>
      <point x="305" y="1536" type="line"/>
    </contour>
    <contour>
      <point x="305" y="-153" type="curve" smooth="yes"/>
      <point x="305" y="-118.92989349365234" type="line"/>
      <point x="348.591550960788" y="-74.645600717968"/>
      <point x="391.439946" y="-49.999999999999986"/>
      <point x="439.0" y="-49.999999999999986" type="curve" smooth="yes"/>
      <point x="512" y="-50"/>
      <point x="555" y="-107"/>
      <point x="555" y="-188" type="curve" smooth="yes"/>
      <point x="555" y="-269"/>
      <point x="515" y="-333"/>
      <point x="442" y="-333" type="curve" smooth="yes"/>
      <point x="340" y="-333"/>
      <point x="305" y="-262"/>
    </contour>
  </outline>
</glyph>
<glyph name="uni0235" format="1">
  <advance width="1247"/>
  <unicode hex="0235"/>
  <outline>
    <contour>
      <point x="550" y="1102" type="curve" smooth="yes"/>
      <point x="423.772415" y="1102.0"/>
      <point x="322.238902950525" y="1027.202010917975"/>
      <point x="258.6736831665039" y="912.2759552001953" type="curve"/>
      <point x="255" y="1082" type="line"/>
      <point x="149" y="1082" type="line"/>
      <point x="149" y="0" type="line"/>
      <point x="260" y="0" type="line"/>
      <point x="260" y="753.2088241577148" type="line"/>
      <point x="300.31208417976495" y="879.1170855455659"/>
      <point x="388.675848" y="995.9999999999999"/>
      <point x="521.0" y="995.9999999999998" type="curve" smooth="yes"/>
      <point x="650" y="996"/>
      <point x="729" y="927"/>
      <point x="729" y="706" type="curve" smooth="yes"/>
      <point x="729" y="-100.61349487304688" type="line"/>
      <point x="572" y="-326" type="line"/>
      <point x="643" y="-398" type="line"/>
      <point x="740.845458984375" y="-246.7019271850586" type="line"/>
      <point x="767.546517689064" y="-364.349969134388"/>
      <point x="840.9687739999999" y="-437.0"/>
      <point x="976.9999999999999" y="-437.0000000000001" type="curve" smooth="yes"/>
      <point x="1117" y="-437"/>
      <point x="1202" y="-327"/>
      <point x="1202" y="-188" type="curve" smooth="yes"/>
      <point x="1202" y="-30"/>
      <point x="1109" y="54"/>
      <point x="989" y="54" type="curve" smooth="yes"/>
      <point x="934.159445" y="54.0"/>
      <point x="885.4559912605" y="35.28184115547499"/>
      <point x="840" y="4.124153137207031" type="curve"/>
      <point x="840" y="705" type="line" smooth="yes"/>
      <point x="840" y="990"/>
      <point x="731" y="1102"/>
    </contour>
    <contour>
      <point x="840" y="-153" type="curve" smooth="yes"/>
      <point x="840" y="-118.99427032470703" type="line"/>
      <point x="883.70856702915" y="-74.66926842730001"/>
      <point x="926.8148" y="-50.000000000000014"/>
      <point x="975.0" y="-50.00000000000002" type="curve" smooth="yes"/>
      <point x="1047" y="-50"/>
      <point x="1091" y="-107"/>
      <point x="1091" y="-188" type="curve" smooth="yes"/>
      <point x="1091" y="-269"/>
      <point x="1050" y="-333"/>
      <point x="978" y="-333" type="curve" smooth="yes"/>
      <point x="876" y="-333"/>
      <point x="840" y="-262"/>
    </contour>
  </outline>
</glyph>
<glyph name="uni0236" format="1">
  <advance width="735"/>
  <unicode hex="0236"/>
  <outline>
    <contour>
      <point x="690" y="229" type="curve" smooth="yes"/>
      <point x="690" y="387"/>
      <point x="597" y="471"/>
      <point x="478" y="471" type="curve" smooth="yes"/>
      <point x="425.865235" y="471.0"/>
      <point x="375.537473028214" y="452.327635375122"/>
      <point x="329" y="421.58350372314453" type="curve"/>
      <point x="329" y="982" type="line"/>
      <point x="513" y="982" type="line"/>
      <point x="513" y="1082" type="line"/>
      <point x="329" y="1082" type="line"/>
      <point x="329" y="1359" type="line"/>
      <point x="217" y="1359" type="line"/>
      <point x="217" y="1082" type="line"/>
      <point x="51" y="1082" type="line"/>
      <point x="51" y="982" type="line"/>
      <point x="217" y="982" type="line"/>
      <point x="217" y="316.33333587646484" type="line"/>
      <point x="61" y="91" type="line"/>
      <point x="131" y="19" type="line"/>
      <point x="229.17062377929688" y="169.40821075439453" type="line"/>
      <point x="256.26966699993596" y="52.28937431723202"/>
      <point x="330.0734719999999" y="-19.999999999999986"/>
      <point x="465.0" y="-19.99999999999997" type="curve" smooth="yes"/>
      <point x="606" y="-20"/>
      <point x="690" y="90"/>
    </contour>
    <contour>
      <point x="329" y="264" type="curve" smooth="yes"/>
      <point x="329" y="298.3458557128906" type="line"/>
      <point x="372.46244281027305" y="342.865264383646"/>
      <point x="414.62296000000003" y="367.0"/>
      <point x="463.00000000000006" y="367.0" type="curve" smooth="yes"/>
      <point x="536" y="367"/>
      <point x="579" y="310"/>
      <point x="579" y="229" type="curve" smooth="yes"/>
      <point x="579" y="148"/>
      <point x="538" y="84"/>
      <point x="466" y="84" type="curve" smooth="yes"/>
      <point x="364" y="84"/>
      <point x="329" y="155"/>
    </contour>
  </outline>
</glyph>
<glyph name="uni0238" format="1">
  <advance width="1586"/>
  <unicode hex="0238"/>
  <outline>
    <contour>
      <point x="1477" y="530" type="curve" smooth="yes"/>
      <point x="1477" y="551" type="line"/>
      <point x="1477" y="886"/>
      <point x="1350" y="1102"/>
      <point x="1127" y="1102" type="curve" smooth="yes"/>
      <point x="999.376441" y="1102.0"/>
      <point x="908.071685653545" y="1041.122767209296"/>
      <point x="848" y="937.6635818481445" type="curve"/>
      <point x="848" y="1536" type="line"/>
      <point x="737" y="1536" type="line"/>
      <point x="737" y="942.5552673339844" type="line"/>
      <point x="677.201241458784" y="1043.037931084096"/>
      <point x="587.021232" y="1102.0"/>
      <point x="461.99999999999994" y="1102.0" type="curve" smooth="yes"/>
      <point x="245" y="1102"/>
      <point x="109" y="886"/>
      <point x="109" y="551" type="curve" smooth="yes"/>
      <point x="109" y="530" type="line"/>
      <point x="109" y="207"/>
      <point x="246" y="-20"/>
      <point x="460" y="-20" type="curve" smooth="yes"/>
      <point x="587.25526" y="-20.0"/>
      <point x="679.379122773655" y="38.886913446064"/>
      <point x="739.4681015014648" y="135.95697784423828" type="curve"/>
      <point x="744" y="0" type="line"/>
      <point x="848" y="0" type="line"/>
      <point x="848" y="135.81790161132812" type="line"/>
      <point x="908.372935017376" y="38.831748490943994"/>
      <point x="1000.80436" y="-20.0"/>
      <point x="1128.0" y="-19.999999999999986" type="curve" smooth="yes"/>
      <point x="1349" y="-20"/>
      <point x="1477" y="207"/>
    </contour>
    <contour>
      <point x="1104.0" y="996.0" type="curve" smooth="yes"/>
      <point x="1290" y="996"/>
      <point x="1365" y="801"/>
      <point x="1365" y="551" type="curve" smooth="yes"/>
      <point x="1365" y="530" type="line"/>
      <point x="1365" y="279"/>
      <point x="1286" y="87"/>
      <point x="1106" y="87" type="curve" smooth="yes"/>
      <point x="971.913541" y="87.0"/>
      <point x="890.075666238443" y="172.61213802925602"/>
      <point x="848" y="283.91375732421875" type="curve"/>
      <point x="848" y="782.4399642944336" type="line"/>
      <point x="886.0031991725" y="893.5637701925"/>
      <point x="960.45915" y="996.0"/>
    </contour>
    <contour>
      <point x="221" y="530" type="curve" smooth="yes"/>
      <point x="221" y="551" type="line"/>
      <point x="221" y="801"/>
      <point x="302" y="996"/>
      <point x="484" y="996" type="curve" smooth="yes"/>
      <point x="622.8545799999999" y="996.0"/>
      <point x="697.6188502964999" y="900.1431889652"/>
      <point x="737" y="793.2960433959961" type="curve"/>
      <point x="737" y="275.7533721923828" type="line"/>
      <point x="693.4003624382719" y="166.43821773393603"/>
      <point x="614.38172" y="87.00000000000004"/>
      <point x="482.0" y="86.99999999999999" type="curve" smooth="yes"/>
      <point x="302" y="87"/>
      <point x="221" y="279"/>
    </contour>
  </outline>
</glyph>
<glyph name="uni0239" format="1">
  <advance width="1585"/>
  <unicode hex="0239"/>
  <outline>
    <contour>
      <point x="1127.9999999999998" y="-19.99999999999993" type="curve" smooth="yes"/>
      <point x="1349" y="-20"/>
      <point x="1476" y="207"/>
      <point x="1476" y="530" type="curve" smooth="yes"/>
      <point x="1476" y="551" type="line"/>
      <point x="1476" y="886"/>
      <point x="1349" y="1102"/>
      <point x="1126" y="1102" type="curve" smooth="yes"/>
      <point x="999.037206" y="1102.0"/>
      <point x="906.3065066724" y="1041.751513376576"/>
      <point x="844.8035278320312" y="939.2666473388672" type="curve"/>
      <point x="840" y="1082" type="line"/>
      <point x="744" y="1082" type="line"/>
      <point x="738.7992706298828" y="946.7809524536133" type="line"/>
      <point x="677.774547423451" y="1044.685703549776"/>
      <point x="586.832569" y="1102.0"/>
      <point x="463.0000000000001" y="1102.0" type="curve" smooth="yes"/>
      <point x="240" y="1102"/>
      <point x="109" y="886"/>
      <point x="109" y="551" type="curve" smooth="yes"/>
      <point x="109" y="530" type="line"/>
      <point x="109" y="207"/>
      <point x="241" y="-20"/>
      <point x="462" y="-20" type="curve" smooth="yes"/>
      <point x="583.87692" y="-20.0"/>
      <point x="674.756890692204" y="34.01448592249599"/>
      <point x="736" y="123.86566925048828" type="curve"/>
      <point x="736" y="-416" type="line"/>
      <point x="847" y="-416" type="line"/>
      <point x="847" y="128.2969512939453" type="line"/>
      <point x="908.8216245034689" y="35.91476560986804"/>
      <point x="1001.9939769999999" y="-19.99999999999995"/>
    </contour>
    <contour>
      <point x="221" y="530" type="curve" smooth="yes"/>
      <point x="221" y="551" type="line"/>
      <point x="221" y="801"/>
      <point x="304" y="998"/>
      <point x="486" y="998" type="curve" smooth="yes"/>
      <point x="617.7588499999999" y="998.0"/>
      <point x="694.2282038331" y="907.2034879461"/>
      <point x="736" y="806.1592483520508" type="curve"/>
      <point x="736" y="263.3008575439453" type="line"/>
      <point x="690.25" y="159.375"/>
      <point x="610.75" y="84.0"/>
      <point x="484.0" y="84.0" type="curve" smooth="yes"/>
      <point x="304" y="84"/>
      <point x="221" y="279"/>
    </contour>
    <contour>
      <point x="1099.0" y="995.9999999999999" type="curve" smooth="yes"/>
      <point x="1281" y="996"/>
      <point x="1364" y="801"/>
      <point x="1364" y="551" type="curve" smooth="yes"/>
      <point x="1364" y="530" type="line"/>
      <point x="1364" y="279"/>
      <point x="1281" y="84"/>
      <point x="1100" y="84" type="curve" smooth="yes"/>
      <point x="970.0634239999999" y="84.0"/>
      <point x="890.9735979830399" y="161.16742056249598"/>
      <point x="847" y="266.9382095336914" type="curve"/>
      <point x="847" y="795.9747695922852" type="line"/>
      <point x="886.641741514315" y="901.7468574220679"/>
      <point x="961.311826" y="995.9999999999999"/>
    </contour>
  </outline>
</glyph>
<glyph name="uni023A" format="1">
  <advance width="1124"/>
  <unicode hex="023A"/>
  <outline>
    <contour>
      <point x="-131" y="-125" type="line"/>
      <point x="-28" y="-125" type="line"/>
      <point x="55.726417541503906" y="0" type="line"/>
      <point x="164" y="0" type="line"/>
      <point x="255.62751007080078" y="298.44388580322266" type="line"/>
      <point x="328.3396224975586" y="407" type="line"/>
      <point x="835.0438613891602" y="407" type="line"/>
      <point x="960" y="0" type="line"/>
      <point x="1079" y="0" type="line"/>
      <point x="749.1056137084961" y="1035.1858444213867" type="line"/>
      <point x="1108" y="1571" type="line"/>
      <point x="1005" y="1571" type="line"/>
      <point x="715.8993148803711" y="1139.384895324707" type="line"/>
      <point x="615" y="1456" type="line"/>
      <point x="509" y="1456" type="line"/>
      <point x="128.7463836669922" y="262.7903747558594" type="line"/>
    </contour>
    <contour>
      <point x="562" y="1296.3428573608398" type="line"/>
      <point x="643.4136734008789" y="1031.166893005371" type="line"/>
      <point x="342.79219818115234" y="582.3517303466797" type="line"/>
    </contour>
    <contour>
      <point x="400.00943756103516" y="514" type="line"/>
      <point x="675.7865982055664" y="925.7236557006836" type="line"/>
      <point x="802.192985534668" y="514" type="line"/>
    </contour>
  </outline>
</glyph>
<glyph name="uni023B" format="1">
  <advance width="1158"/>
  <unicode hex="023B"/>
  <outline>
    <contour>
      <point x="592.0000000000001" y="-20.00000000000005" type="curve" smooth="yes"/>
      <point x="866" y="-20"/>
      <point x="1019" y="160"/>
      <point x="1045" y="454" type="curve"/>
      <point x="930" y="454" type="line"/>
      <point x="904" y="210"/>
      <point x="807" y="87"/>
      <point x="592" y="87" type="curve" smooth="yes"/>
      <point x="536.20945" y="87.0"/>
      <point x="486.62870014616396" y="101.264095385248"/>
      <point x="443.6083450317383" y="127.56890106201172" type="curve"/>
      <point x="818.6522827148438" y="1288.288803100586" type="line"/>
      <point x="881.157967697727" y="1225.402053261301"/>
      <point x="916.392525" y="1127.365966"/>
      <point x="930.0" y="1000.0000000000001" type="curve"/>
      <point x="1045" y="1000" type="line"/>
      <point x="1029.572825" y="1184.509013"/>
      <point x="964.64212247603" y="1322.560869400582"/>
      <point x="855.1426239013672" y="1401.222427368164" type="curve"/>
      <point x="910" y="1571" type="line"/>
      <point x="824" y="1571" type="line"/>
      <point x="782.3112106323242" y="1441.977767944336" type="line"/>
      <point x="729.284720699491" y="1464.3501404386232"/>
      <point x="668.729464" y="1476.0000000000002"/>
      <point x="601.0" y="1476.0000000000002" type="curve" smooth="yes"/>
      <point x="312" y="1476"/>
      <point x="129" y="1212"/>
      <point x="129" y="818" type="curve"/>
      <point x="129" y="637" type="line"/>
      <point x="129.0" y="379.875994"/>
      <point x="206.937038228583" y="178.54298257893097"/>
      <point x="338.9089813232422" y="69.6964111328125" type="curve"/>
      <point x="276" y="-125" type="line"/>
      <point x="362" y="-125" type="line"/>
      <point x="409.7828140258789" y="22.88257598876953" type="line"/>
      <point x="464.259171770193" y="-5.113517365353051"/>
      <point x="525.38436" y="-20.000000000000053"/>
    </contour>
    <contour>
      <point x="242.99999999999997" y="637.0" type="curve" smooth="yes"/>
      <point x="243" y="820" type="line" smooth="yes"/>
      <point x="243" y="1150"/>
      <point x="376" y="1369"/>
      <point x="601" y="1369" type="curve" smooth="yes"/>
      <point x="658.407874" y="1369.0"/>
      <point x="707.428253615572" y="1358.515632019465"/>
      <point x="748.81884765625" y="1338.3225555419922" type="curve"/>
      <point x="375.98744201660156" y="184.45018768310547" type="line"/>
      <point x="289.06509331249595" y="281.30509916834404"/>
      <point x="242.99999999999994" y="443.17836400000004"/>
    </contour>
  </outline>
</glyph>
<glyph name="uni023C" format="1">
  <advance width="929"/>
  <unicode hex="023C"/>
  <outline>
    <contour>
      <point x="490.0" y="-20.000000000000007" type="curve"/>
      <point x="677" y="-20"/>
      <point x="833" y="129"/>
      <point x="842" y="335" type="curve"/>
      <point x="736" y="335" type="line"/>
      <point x="726" y="172"/>
      <point x="614" y="84"/>
      <point x="490" y="84" type="curve" smooth="yes"/>
      <point x="439.779878" y="84.0"/>
      <point x="397.404793380708" y="96.243012882014"/>
      <point x="362.03450775146484" y="118.103515625" type="curve"/>
      <point x="637.5146942138672" y="944.544075012207" type="line"/>
      <point x="693.827931254866" y="896.536022724213"/>
      <point x="730.772179" y="818.071206"/>
      <point x="736.0000000000001" y="716.9999999999999" type="curve"/>
      <point x="842" y="717" type="line"/>
      <point x="836.769384" y="870.649345"/>
      <point x="772.1176933158689" y="987.962061596035"/>
      <point x="672.9206466674805" y="1050.7619400024414" type="curve"/>
      <point x="808" y="1456" type="line"/>
      <point x="723" y="1456" type="line"/>
      <point x="599.2199401855469" y="1085.2539596557617" type="line"/>
      <point x="565.1714050048" y="1096.2582790144"/>
      <point x="528.542656" y="1102.0"/>
      <point x="490.0" y="1102.0" type="curve" smooth="yes"/>
      <point x="232" y="1102"/>
      <point x="99" y="865"/>
      <point x="99" y="562" type="curve" smooth="yes"/>
      <point x="99" y="520" type="line" smooth="yes"/>
      <point x="99.0" y="327.02233"/>
      <point x="152.94863998929998" y="160.8161655586"/>
      <point x="258.77906799316406" y="65.56546020507812" type="curve"/>
      <point x="98" y="-416" type="line"/>
      <point x="184" y="-416" type="line"/>
      <point x="328.43487548828125" y="17.30461883544922" type="line"/>
      <point x="375.268721095125" y="-6.820287619643011"/>
      <point x="429.15869799999996" y="-20.000000000000007"/>
    </contour>
    <contour>
      <point x="210.0" y="520.0" type="curve" smooth="yes"/>
      <point x="210" y="562" type="line" smooth="yes"/>
      <point x="210" y="790"/>
      <point x="285" y="998"/>
      <point x="490" y="998" type="curve"/>
      <point x="516.708612" y="998.0"/>
      <point x="542.185666381156" y="993.749139831732"/>
      <point x="565.9322814941406" y="985.5507583618164" type="curve"/>
      <point x="296.57450103759766" y="178.7703399658203" type="line"/>
      <point x="235.050332246346" y="260.485852079896"/>
      <point x="210.0" y="386.18071000000003"/>
    </contour>
  </outline>
</glyph>
<glyph name="uni023E" format="1">
  <advance width="1067"/>
  <unicode hex="023E"/>
  <outline>
    <contour>
      <point x="63" y="1349" type="line"/>
      <point x="477" y="1349" type="line"/>
      <point x="477" y="670.9754638671875" type="line"/>
      <point x="171" y="-125" type="line"/>
      <point x="261" y="-125" type="line"/>
      <point x="477" y="437.72811126708984" type="line"/>
      <point x="477" y="0" type="line"/>
      <point x="591" y="0" type="line"/>
      <point x="591" y="734.723503112793" type="line"/>
      <point x="826.7865600585938" y="1349" type="line"/>
      <point x="1005" y="1349" type="line"/>
      <point x="1005" y="1456" type="line"/>
      <point x="867.8579025268555" y="1456" type="line"/>
      <point x="912" y="1571" type="line"/>
      <point x="823" y="1571" type="line"/>
      <point x="778.7900924682617" y="1456" type="line"/>
      <point x="63" y="1456" type="line"/>
    </contour>
    <contour>
      <point x="591" y="1349" type="line"/>
      <point x="737.6556625366211" y="1349" type="line"/>
      <point x="591" y="967.5153350830078" type="line"/>
    </contour>
  </outline>
</glyph>
<glyph name="uni0242" format="1">
  <advance width="835"/>
  <unicode hex="0242"/>
  <outline>
    <contour>
      <point x="348" y="0" type="line"/>
      <point x="459" y="0" type="line"/>
      <point x="459" y="347.57220458984375" type="line"/>
      <point x="655.139792896416" y="371.941517765147"/>
      <point x="735.0" y="518.5854"/>
      <point x="735.0" y="701.0" type="curve" smooth="yes"/>
      <point x="735" y="950"/>
      <point x="614" y="1101"/>
      <point x="390" y="1101" type="curve" smooth="yes"/>
      <point x="204" y="1101"/>
      <point x="61" y="948"/>
      <point x="61" y="700" type="curve"/>
      <point x="172" y="700" type="line"/>
      <point x="172" y="879"/>
      <point x="260" y="998"/>
      <point x="390" y="998" type="curve" smooth="yes"/>
      <point x="570" y="998"/>
      <point x="624" y="857"/>
      <point x="624" y="705" type="curve" smooth="yes"/>
      <point x="624" y="547"/>
      <point x="569" y="431"/>
      <point x="396" y="431" type="curve" smooth="yes"/>
      <point x="348" y="431" type="line"/>
    </contour>
  </outline>
</glyph>
<glyph name="uni0245" format="1">
  <advance width="1108"/>
  <unicode hex="0245"/>
  <outline>
    <contour>
      <point x="46" y="0" type="line"/>
      <point x="171" y="0" type="line"/>
      <point x="549" y="1274" type="line"/>
      <point x="553.0952377319336" y="1291.3333358764648" type="line"/>
      <point x="557" y="1274" type="line"/>
      <point x="938" y="0" type="line"/>
      <point x="1062" y="0" type="line"/>
      <point x="608" y="1456" type="line"/>
      <point x="500" y="1456" type="line"/>
    </contour>
  </outline>
</glyph>
